<svg id="Layer_1" data-name="Layer 1" xmlns="http://www.w3.org/2000/svg" viewBox="0 0 1266.29 1040.55"><line x1="456.09" y1="48.95" x2="456.09" y2="726.27" fill="none" stroke="#fff" stroke-linecap="round" stroke-miterlimit="10" stroke-width="2"/><line x1="510.84" y1="53.99" x2="510.84" y2="726.4" fill="none" stroke="#fff" stroke-linecap="round" stroke-miterlimit="10" stroke-width="2"/><path d="M107,794.09c4.07-.42,480-71.37,480-71.37l784.3,108.5v4.67L586.68,735.42,107,799.79Z" transform="translate(-106 -0.45)" fill="none" stroke="#fff" stroke-linecap="round" stroke-miterlimit="10" stroke-width="2"/><path d="M110.74,799.24c4-.41,475.94-63.82,475.94-63.82l780.88,100v4.65l-781.2-92L110.74,804.91Z" transform="translate(-106 -0.45)" fill="none" stroke="#fff" stroke-linecap="round" stroke-miterlimit="10" stroke-width="2"/><path d="M118.49,804c4-.41,467.73-56,467.73-56l773.58,91.06v4.59L585.91,760.52,118.49,809.59Z" transform="translate(-106 -0.45)" fill="none" stroke="#fff" stroke-linecap="round" stroke-miterlimit="10" stroke-width="2"/><polygon points="31.18 807.18 31.18 835.44 478.18 784.28 1253.8 863.28 1253.8 843.25 479.91 760.07 31.18 807.18" fill="none" stroke="#fff" stroke-linecap="round" stroke-miterlimit="10" stroke-width="2"/><polygon points="31.18 835.44 52.14 835.44 478.18 789.62 1253.8 863.28 478.18 784.28 31.18 835.44" fill="none" stroke="#fff" stroke-linecap="round" stroke-miterlimit="10" stroke-width="2"/><polygon points="448.56 792.8 448.56 804.95 453.74 804.95 453.74 1038.05 476.56 1039.55 505.37 1037.68 505.37 807.2 510.84 807.2 510.84 792.8 478.18 789.62 448.56 792.8" fill="none" stroke="#fff" stroke-linecap="round" stroke-miterlimit="10" stroke-width="2"/><polyline points="38.42 852.47 478.18 815.43 505.37 817.67" fill="none" stroke="#fff" stroke-linecap="round" stroke-miterlimit="10" stroke-width="2"/><polyline points="38.42 856.59 478.18 821.53 505.37 823.78" fill="none" stroke="#fff" stroke-linecap="round" stroke-miterlimit="10" stroke-width="2"/><polyline points="453.74 1017.01 477.51 1017.01 505.37 1017.01" fill="none" stroke="#fff" stroke-linecap="round" stroke-miterlimit="10" stroke-width="2"/><line x1="478.18" y1="821.54" x2="478.18" y2="1017.01" fill="none" stroke="#fff" stroke-linecap="round" stroke-miterlimit="10" stroke-width="2"/><polyline points="453.74 1034.31 36.75 1021.96 36.75 835.44" fill="none" stroke="#fff" stroke-linecap="round" stroke-miterlimit="10" stroke-width="2"/><path d="M455.47,803.91v227.76l-9,2.5V819.62s-7.13-9.53-4.56-18.61Z" transform="translate(-106 -0.45)" fill="none" stroke="#fff" stroke-linecap="round" stroke-miterlimit="10" stroke-width="2"/><path d="M421.72,803.66c-2.57,9.08,4.57,18.6,4.57,18.6v210.88l20.2,1" transform="translate(-106 -0.45)" fill="none" stroke="#fff" stroke-linecap="round" stroke-miterlimit="10" stroke-width="2"/><path d="M337.78,816.33v211.86l-8.4,2.32V830.94s-6.67-8.86-4.27-17.31Z" transform="translate(-106 -0.45)" fill="none" stroke="#fff" stroke-linecap="round" stroke-miterlimit="10" stroke-width="2"/><path d="M311,816.57c-2.41,8.45,4.27,17.31,4.27,17.31V1030l14.11.48" transform="translate(-106 -0.45)" fill="none" stroke="#fff" stroke-linecap="round" stroke-miterlimit="10" stroke-width="2"/><path d="M337.78,816.33v211.86l-8.4,2.32V830.94s-6.67-8.86-4.27-17.31Z" transform="translate(-106 -0.45)" fill="none" stroke="#fff" stroke-linecap="round" stroke-miterlimit="10" stroke-width="2"/><path d="M311,816.57c-2.41,8.45,4.27,17.31,4.27,17.31V1030l14.11.48" transform="translate(-106 -0.45)" fill="none" stroke="#fff" stroke-linecap="round" stroke-miterlimit="10" stroke-width="2"/><path d="M237.11,827.4v198l-6.92,2.32V841.54s-5.51-7.47-3.52-15.92Z" transform="translate(-106 -0.45)" fill="none" stroke="#fff" stroke-linecap="round" stroke-miterlimit="10" stroke-width="2"/><path d="M215,827.17c-2,8.45,3.52,17.31,3.52,17.31v182.77l11.64.48" transform="translate(-106 -0.45)" fill="none" stroke="#fff" stroke-linecap="round" stroke-miterlimit="10" stroke-width="2"/><path d="M159.31,835.77V1022.9l-6.63,2.23V849.63s-5.24-7-3.34-15.13Z" transform="translate(-106 -0.45)" fill="none" stroke="#fff" stroke-miterlimit="10" stroke-width="2"/><path d="M138.18,835.88c-1.89,8.08,3.37,16.56,3.37,16.56v172.23l11.13.46" transform="translate(-106 -0.45)" fill="none" stroke="#fff" stroke-miterlimit="10" stroke-width="2"/><line x1="349.47" y1="1015.6" x2="35.55" y2="1011.35" fill="none" stroke="#fff" stroke-miterlimit="10" stroke-width="2"/><line x1="1045.28" y1="863.74" x2="505.37" y2="817.67" fill="none" stroke="#fff" stroke-linecap="round" stroke-miterlimit="10" stroke-width="2"/><line x1="1253.8" y1="881.53" x2="1136.8" y2="871.55" fill="none" stroke="#fff" stroke-linecap="round" stroke-miterlimit="10" stroke-width="2"/><line x1="1045.3" y1="868.41" x2="505.37" y2="823.78" fill="none" stroke="#fff" stroke-linecap="round" stroke-miterlimit="10" stroke-width="2"/><line x1="1253.8" y1="885.64" x2="1136.8" y2="875.97" fill="none" stroke="#fff" stroke-linecap="round" stroke-miterlimit="10" stroke-width="2"/><polyline points="505.89 1034.31 1253.8 1007.84 1253.8 863.28" fill="none" stroke="#fff" stroke-linecap="round" stroke-miterlimit="10" stroke-width="2"/><path d="M779.74,808.64v221.17l9,2.45v-208s7.13-9.32,4.57-18.2Z" transform="translate(-106 -0.45)" fill="none" stroke="#fff" stroke-linecap="round" stroke-miterlimit="10" stroke-width="2"/><path d="M813.4,806.16c2.57,8.89-4.47,20.71-4.47,20.71v204.38l-20.21,1" transform="translate(-106 -0.45)" fill="none" stroke="#fff" stroke-linecap="round" stroke-miterlimit="10" stroke-width="2"/><path d="M933.85,823.53V1023.9l8.4,2.22V838.06s6.52-7.83,4.11-15.87Z" transform="translate(-106 -0.45)" fill="none" stroke="#fff" stroke-linecap="round" stroke-miterlimit="10" stroke-width="2"/><path d="M960.48,823.06c2.4,8-4.12,16.45-4.12,16.45v186.15l-14.11.46" transform="translate(-106 -0.45)" fill="none" stroke="#fff" stroke-linecap="round" stroke-miterlimit="10" stroke-width="2"/><path d="M1045.77,833.85v186.34l6.93,2.22v-175s5.5-5.87,3.52-13.94Z" transform="translate(-106 -0.45)" fill="none" stroke="#fff" stroke-linecap="round" stroke-miterlimit="10" stroke-width="2"/><path d="M1067.86,833.63c2,8.08-3.52,14.79-3.52,14.79V1022l-11.64.46" transform="translate(-106 -0.45)" fill="none" stroke="#fff" stroke-linecap="round" stroke-miterlimit="10" stroke-width="2"/><line x1="1136.8" y1="1003.31" x2="1253.8" y2="1000.77" fill="none" stroke="#fff" stroke-miterlimit="10" stroke-width="2"/><line x1="505.37" y1="1017.01" x2="1045.3" y2="1005.29" fill="none" stroke="#fff" stroke-miterlimit="10" stroke-width="2"/><polygon points="15.22 318.29 478.18 1 1232.49 504.02 1232.49 514 478.12 15.55 15.22 328.42 15.22 318.29" fill="none" stroke="#fff" stroke-linecap="round" stroke-linejoin="round" stroke-width="2"/><polyline points="15.22 328.42 31.18 328.42 478.18 34.42 1218.52 514 1232.49 514" fill="none" stroke="#fff" stroke-linecap="round" stroke-miterlimit="10" stroke-width="2"/><line x1="478.18" y1="34.43" x2="478.18" y2="722.39" fill="none" stroke="#fff" stroke-linecap="round" stroke-miterlimit="10" stroke-width="2"/><line x1="31.18" y1="328.42" x2="31.18" y2="789.62" fill="none" stroke="#fff" stroke-linecap="round" stroke-miterlimit="10" stroke-width="2"/><line x1="1218.52" y1="514" x2="1218.52" y2="824.41" fill="none" stroke="#fff" stroke-linecap="round" stroke-miterlimit="10" stroke-width="2"/><line x1="117.46" y1="259.31" x2="117.46" y2="777" fill="none" stroke="#fff" stroke-linecap="round" stroke-miterlimit="10" stroke-width="2"/><polyline points="129.03 775.28 129.03 251.5 139 257.51 139 773.8" fill="none" stroke="#fff" stroke-linecap="round" stroke-miterlimit="10" stroke-width="2"/><line x1="15.22" y1="328.87" x2="15.22" y2="791.8" fill="none" stroke="#fff" stroke-linecap="round" stroke-miterlimit="10" stroke-width="2"/><polyline points="26.79 790.24 26.79 321.05 36.75 324.75 36.75 787.83" fill="none" stroke="#fff" stroke-linecap="round" stroke-miterlimit="10" stroke-width="2"/><line x1="210.69" y1="195.96" x2="210.69" y2="763.13" fill="none" stroke="#fff" stroke-linecap="round" stroke-miterlimit="10" stroke-width="2"/><polyline points="225.75 760.88 225.75 186.13 238.72 191.92 238.72 758.94" fill="none" stroke="#fff" stroke-linecap="round" stroke-miterlimit="10" stroke-width="2"/><line x1="324.93" y1="118.53" x2="324.93" y2="744.68" fill="none" stroke="#fff" stroke-linecap="round" stroke-miterlimit="10" stroke-width="2"/><polyline points="339.99 743.75 339.99 108.7 352.96 116.78 352.96 741.8" fill="none" stroke="#fff" stroke-linecap="round" stroke-miterlimit="10" stroke-width="2"/><line x1="960.91" y1="334.25" x2="960.91" y2="788.66" fill="none" stroke="#fff" stroke-linecap="round" stroke-miterlimit="10" stroke-width="2"/><polyline points="949.34 787.06 949.34 326.43 939.37 333.5 939.37 785.83" fill="none" stroke="#fff" stroke-linecap="round" stroke-miterlimit="10" stroke-width="2"/><line x1="1063.15" y1="401.42" x2="1063.15" y2="802.8" fill="none" stroke="#fff" stroke-linecap="round" stroke-miterlimit="10" stroke-width="2"/><polyline points="1051.58 801.2 1051.58 394.32 1041.62 399.09 1041.62 799.82" fill="none" stroke="#fff" stroke-linecap="round" stroke-miterlimit="10" stroke-width="2"/><line x1="1136.8" y1="449.57" x2="1136.8" y2="812.99" fill="none" stroke="#fff" stroke-linecap="round" stroke-miterlimit="10" stroke-width="2"/><polyline points="1125.23 811.39 1125.23 442.48 1115.27 447.24 1115.27 810.01" fill="none" stroke="#fff" stroke-linecap="round" stroke-miterlimit="10" stroke-width="2"/><line x1="1232.49" y1="512.9" x2="1232.49" y2="826.41" fill="none" stroke="#fff" stroke-linecap="round" stroke-miterlimit="10" stroke-width="2"/><polyline points="1220.92 824.63 1220.92 505.8 1210.96 510.57 1210.96 823.76" fill="none" stroke="#fff" stroke-linecap="round" stroke-miterlimit="10" stroke-width="2"/><line x1="846.15" y1="258.6" x2="846.15" y2="772.78" fill="none" stroke="#fff" stroke-linecap="round" stroke-miterlimit="10" stroke-width="2"/><polyline points="831.09 770.82 831.09 248.77 818.12 254.57 818.12 769.02" fill="none" stroke="#fff" stroke-linecap="round" stroke-miterlimit="10" stroke-width="2"/><line x1="701.77" y1="163.24" x2="701.77" y2="752.97" fill="none" stroke="#fff" stroke-linecap="round" stroke-miterlimit="10" stroke-width="2"/><polyline points="686.72 750.73 686.72 153.41 673.74 161.49 673.74 749.07" fill="none" stroke="#fff" stroke-linecap="round" stroke-miterlimit="10" stroke-width="2"/><path d="M1296.1,857.68V1011l6.63,2.23v-141a16,16,0,0,0,3.34-13.74Z" transform="translate(-106 -0.45)" fill="none" stroke="#fff" stroke-miterlimit="10" stroke-width="2"/><path d="M1317.23,859.38c2.15,8.72-3.37,13.72-3.37,13.72v139.63l-11.13.46" transform="translate(-106 -0.45)" fill="none" stroke="#fff" stroke-miterlimit="10" stroke-width="2"/><line x1="112.55" y1="893.25" x2="53.31" y2="896.25" fill="none" stroke="#fff" stroke-miterlimit="10" stroke-width="2"/><line x1="112.55" y1="983.05" x2="53.31" y2="981.55" fill="none" stroke="#fff" stroke-miterlimit="10" stroke-width="2"/><line x1="112.55" y1="987.92" x2="53.31" y2="987.92" fill="none" stroke="#fff" stroke-miterlimit="10" stroke-width="2"/><line x1="60.12" y1="896.25" x2="60.12" y2="981.73" fill="none" stroke="#fff" stroke-miterlimit="10" stroke-width="2"/><line x1="131.11" y1="982.3" x2="209.27" y2="981.73" fill="none" stroke="#fff" stroke-miterlimit="10" stroke-width="2"/><line x1="131.11" y1="986.79" x2="209.27" y2="986.54" fill="none" stroke="#fff" stroke-miterlimit="10" stroke-width="2"/><line x1="131.11" y1="891.76" x2="209.27" y2="888.76" fill="none" stroke="#fff" stroke-miterlimit="10" stroke-width="2"/><line x1="139.93" y1="891.42" x2="140.19" y2="982.24" fill="none" stroke="#fff" stroke-miterlimit="10" stroke-width="2"/><line x1="231.78" y1="888.01" x2="321.28" y2="885.64" fill="none" stroke="#fff" stroke-miterlimit="10" stroke-width="2"/><line x1="231.78" y1="980.81" x2="319.04" y2="980.31" fill="none" stroke="#fff" stroke-miterlimit="10" stroke-width="2"/><line x1="231.78" y1="985.55" x2="320.29" y2="985.3" fill="none" stroke="#fff" stroke-miterlimit="10" stroke-width="2"/><line x1="240.46" y1="887.78" x2="240.46" y2="979.56" fill="none" stroke="#fff" stroke-miterlimit="10" stroke-width="2"/><line x1="349.47" y1="883.03" x2="453.74" y2="881.53" fill="none" stroke="#fff" stroke-miterlimit="10" stroke-width="2"/><line x1="396.87" y1="882.34" x2="396.87" y2="1032.61" fill="none" stroke="#fff" stroke-miterlimit="10" stroke-width="2"/><polygon points="356.95 890.26 389.63 890.26 389.63 991.53 358.7 991.53 356.95 890.26" fill="none" stroke="#fff" stroke-miterlimit="10" stroke-width="2"/><polygon points="402.85 890.26 402.85 991.53 446.5 991.53 446.5 889.26 402.85 890.26" fill="none" stroke="#fff" stroke-miterlimit="10" stroke-width="2"/><line x1="673.74" y1="997.27" x2="505.37" y2="1000.77" fill="none" stroke="#fff" stroke-miterlimit="10" stroke-width="2"/><line x1="505.89" y1="991.53" x2="673.74" y2="989.04" fill="none" stroke="#fff" stroke-miterlimit="10" stroke-width="2"/><line x1="505.89" y1="878.79" x2="673.74" y2="881.53" fill="none" stroke="#fff" stroke-miterlimit="10" stroke-width="2"/><line x1="666.51" y1="880.16" x2="666.51" y2="989.14" fill="none" stroke="#fff" stroke-miterlimit="10" stroke-width="2"/><line x1="702.93" y1="881.53" x2="826.65" y2="885.64" fill="none" stroke="#fff" stroke-miterlimit="10" stroke-width="2"/><line x1="702.93" y1="987.79" x2="827.85" y2="987.04" fill="none" stroke="#fff" stroke-miterlimit="10" stroke-width="2"/><line x1="702.93" y1="994.78" x2="827.85" y2="994.03" fill="none" stroke="#fff" stroke-miterlimit="10" stroke-width="2"/><line x1="819.92" y1="885.64" x2="819.92" y2="987.1" fill="none" stroke="#fff" stroke-miterlimit="10" stroke-width="2"/><line x1="850.36" y1="987.1" x2="939.77" y2="987.1" fill="none" stroke="#fff" stroke-miterlimit="10" stroke-width="2"/><line x1="850.36" y1="994.78" x2="939.77" y2="993.78" fill="none" stroke="#fff" stroke-miterlimit="10" stroke-width="2"/><line x1="850.36" y1="885.64" x2="939.77" y2="888.01" fill="none" stroke="#fff" stroke-miterlimit="10" stroke-width="2"/><line x1="934.16" y1="887.87" x2="934.16" y2="987.1" fill="none" stroke="#fff" stroke-miterlimit="10" stroke-width="2"/><line x1="1045.28" y1="843.35" x2="1045.28" y2="1015.22" fill="none" stroke="#fff" stroke-linecap="round" stroke-miterlimit="10" stroke-width="2"/><line x1="1136.8" y1="851.36" x2="1136.8" y2="1011.98" fill="none" stroke="#fff" stroke-linecap="round" stroke-miterlimit="10" stroke-width="2"/><polyline points="1061.19 1014.66 1061.19 861.64 1123.3 866.31 1123.3 1011.98" fill="none" stroke="#fff" stroke-miterlimit="10" stroke-width="2"/><line x1="958.34" y1="987.1" x2="1045.28" y2="987.1" fill="none" stroke="#fff" stroke-miterlimit="10" stroke-width="2"/><line x1="958.34" y1="993.78" x2="1045.28" y2="992.78" fill="none" stroke="#fff" stroke-miterlimit="10" stroke-width="2"/><line x1="958.34" y1="887.87" x2="1045.28" y2="892.25" fill="none" stroke="#fff" stroke-miterlimit="10" stroke-width="2"/><line x1="1039.18" y1="891.95" x2="1039.18" y2="987.1" fill="none" stroke="#fff" stroke-miterlimit="10" stroke-width="2"/><line x1="1136.8" y1="896.62" x2="1190.1" y2="899.24" fill="none" stroke="#fff" stroke-miterlimit="10" stroke-width="2"/><line x1="1136.8" y1="984.17" x2="1190.1" y2="984.17" fill="none" stroke="#fff" stroke-miterlimit="10" stroke-width="2"/><line x1="1136.8" y1="988.48" x2="1190.1" y2="987.92" fill="none" stroke="#fff" stroke-miterlimit="10" stroke-width="2"/><line x1="1184.68" y1="898.97" x2="1184.68" y2="983.24" fill="none" stroke="#fff" stroke-miterlimit="10" stroke-width="2"/><line x1="96.23" y1="341.9" x2="96.23" y2="416.74" fill="none" stroke="#fff" stroke-linecap="round" stroke-miterlimit="10" stroke-width="2"/><line x1="96.23" y1="450.26" x2="96.23" y2="525.1" fill="none" stroke="#fff" stroke-linecap="round" stroke-miterlimit="10" stroke-width="2"/><line x1="96.23" y1="567.83" x2="96.23" y2="642.67" fill="none" stroke="#fff" stroke-linecap="round" stroke-miterlimit="10" stroke-width="2"/><line x1="96.23" y1="676.8" x2="96.23" y2="751.64" fill="none" stroke="#fff" stroke-linecap="round" stroke-miterlimit="10" stroke-width="2"/><line x1="1115.59" y1="1012.73" x2="1115.59" y2="865.71" fill="none" stroke="#fff" stroke-miterlimit="10" stroke-width="2"/><polygon points="519.45 839.06 517.72 868.41 658.39 870.8 658.39 844.99 519.45 839.06" fill="none" stroke="#fff" stroke-miterlimit="10" stroke-width="2"/><path d="M547.76,839.51v29.35s-81.19,3.52-80.07,2.39-.77-23.6,0-24.7S547.76,839.51,547.76,839.51Z" transform="translate(-106 -0.45)" fill="none" stroke="#fff" stroke-miterlimit="10" stroke-width="2"/><polygon points="308.56 876.41 242.71 880.16 242.71 852.47 308.56 843.25 308.56 876.41" fill="none" stroke="#fff" stroke-miterlimit="10" stroke-width="2"/><polygon points="198.56 880.16 140.06 882.34 139 858.46 198.56 854.93 198.56 880.16" fill="none" stroke="#fff" stroke-miterlimit="10" stroke-width="2"/><polygon points="104.13 887.78 60.12 889.26 59.24 866.31 104.13 861.7 104.13 887.78" fill="none" stroke="#fff" stroke-miterlimit="10" stroke-width="2"/><polygon points="711.16 871.02 818.12 876.04 818.12 858.46 711.16 849.85 711.16 871.02" fill="none" stroke="#fff" stroke-miterlimit="10" stroke-width="2"/><polygon points="861.57 876.54 931.17 880.16 931.17 865.71 861.57 861.64 861.57 876.54" fill="none" stroke="#fff" stroke-miterlimit="10" stroke-width="2"/><polygon points="965.97 881.53 1035.93 885.64 1035.93 873.8 965.97 868.41 965.97 881.53" fill="none" stroke="#fff" stroke-miterlimit="10" stroke-width="2"/><polygon points="1142.94 891.95 1182.98 894.38 1182.98 885.64 1142.94 883.59 1142.94 891.95" fill="none" stroke="#fff" stroke-miterlimit="10" stroke-width="2"/><polyline points="993.73 344.8 993.73 308.06 964.09 279.98 964.09 325.03" fill="none" stroke="#fff" stroke-linecap="round" stroke-miterlimit="10" stroke-width="2"/><line x1="964.09" y1="279.98" x2="934.16" y2="303.22" fill="none" stroke="#fff" stroke-linecap="round" stroke-miterlimit="10" stroke-width="2"/><polyline points="117.46 328.87 90.8 345.23 90.8 419.56 117.46 406.84" fill="none" stroke="#fff" stroke-linecap="round" stroke-miterlimit="10" stroke-width="2"/><polygon points="74.09 427.3 74.09 353.46 44.4 368.93 44.4 440.76 74.09 427.3" fill="none" stroke="#fff" stroke-linecap="round" stroke-miterlimit="10" stroke-width="2"/><line x1="49.65" y1="366.19" x2="49.65" y2="438.56" fill="none" stroke="#fff" stroke-linecap="round" stroke-miterlimit="10" stroke-width="2"/><polyline points="210.69 274.01 183.59 291.23 183.59 372.05 210.69 358.2" fill="none" stroke="#fff" stroke-linecap="round" stroke-miterlimit="10" stroke-width="2"/><polygon points="177.23 294.59 177.23 375.04 149.17 387.61 149.17 311.8 177.23 294.59" fill="none" stroke="#fff" stroke-linecap="round" stroke-miterlimit="10" stroke-width="2"/><line x1="153.54" y1="309.12" x2="153.54" y2="385.62" fill="none" stroke="#fff" stroke-linecap="round" stroke-miterlimit="10" stroke-width="2"/><line x1="188.8" y1="287.91" x2="188.71" y2="369.43" fill="none" stroke="#fff" stroke-linecap="round" stroke-miterlimit="10" stroke-width="2"/><polygon points="277.51 234.73 242.71 256.18 242.71 341.1 279.38 321.05 277.51 234.73" fill="none" stroke="#fff" stroke-linecap="round" stroke-miterlimit="10" stroke-width="2"/><polyline points="324.93 297.96 286.49 317.42 286.49 229.11 324.93 205.17" fill="none" stroke="#fff" stroke-linecap="round" stroke-miterlimit="10" stroke-width="2"/><line x1="246.97" y1="253.55" x2="246.97" y2="338.23" fill="none" stroke="#fff" stroke-linecap="round" stroke-miterlimit="10" stroke-width="2"/><line x1="291.28" y1="226.13" x2="291.28" y2="314.67" fill="none" stroke="#fff" stroke-linecap="round" stroke-miterlimit="10" stroke-width="2"/><polygon points="361.69 183.09 361.69 278.5 396.86 259.31 396.86 160.64 361.69 183.09" fill="none" stroke="#fff" stroke-linecap="round" stroke-miterlimit="10" stroke-width="2"/><polygon points="450.74 228.49 407.71 253.06 407.71 153.16 450.74 123.97 450.74 228.49" fill="none" stroke="#fff" stroke-linecap="round" stroke-miterlimit="10" stroke-width="2"/><line x1="365.95" y1="180.37" x2="365.95" y2="276.88" fill="none" stroke="#fff" stroke-linecap="round" stroke-miterlimit="10" stroke-width="2"/><line x1="411.47" y1="150.61" x2="411.47" y2="250.43" fill="none" stroke="#fff" stroke-linecap="round" stroke-miterlimit="10" stroke-width="2"/><polyline points="117.46 439.77 90.8 452.94 90.8 527.27 117.46 517.74" fill="none" stroke="#fff" stroke-linecap="round" stroke-miterlimit="10" stroke-width="2"/><polygon points="74.09 533.01 74.09 459.17 44.4 471.09 44.4 542.93 74.09 533.01" fill="none" stroke="#fff" stroke-linecap="round" stroke-miterlimit="10" stroke-width="2"/><line x1="49.65" y1="468.99" x2="49.65" y2="541.36" fill="none" stroke="#fff" stroke-linecap="round" stroke-miterlimit="10" stroke-width="2"/><polyline points="210.69 396.06 183.59 410.03 183.59 490.85 210.69 480.25" fill="none" stroke="#fff" stroke-linecap="round" stroke-miterlimit="10" stroke-width="2"/><polygon points="177.23 412.64 177.23 493.08 149.17 502.3 149.17 426.49 177.23 412.64" fill="none" stroke="#fff" stroke-linecap="round" stroke-miterlimit="10" stroke-width="2"/><line x1="153.54" y1="424.33" x2="153.54" y2="500.83" fill="none" stroke="#fff" stroke-linecap="round" stroke-miterlimit="10" stroke-width="2"/><line x1="188.8" y1="407.34" x2="188.71" y2="488.84" fill="none" stroke="#fff" stroke-linecap="round" stroke-miterlimit="10" stroke-width="2"/><polygon points="277.51 364.76 242.71 382.05 242.71 466.98 279.38 451.3 277.51 364.76" fill="none" stroke="#fff" stroke-linecap="round" stroke-miterlimit="10" stroke-width="2"/><polyline points="324.93 433.66 286.49 448.52 286.49 360.22 324.93 340.87" fill="none" stroke="#fff" stroke-linecap="round" stroke-miterlimit="10" stroke-width="2"/><line x1="246.97" y1="379.94" x2="246.97" y2="464.61" fill="none" stroke="#fff" stroke-linecap="round" stroke-miterlimit="10" stroke-width="2"/><line x1="291.28" y1="357.81" x2="291.28" y2="446.35" fill="none" stroke="#fff" stroke-linecap="round" stroke-miterlimit="10" stroke-width="2"/><polygon points="361.69 323.19 361.69 418.6 396.86 403.62 396.86 304.95 361.69 323.19" fill="none" stroke="#fff" stroke-linecap="round" stroke-miterlimit="10" stroke-width="2"/><polygon points="450.74 379.24 407.71 398.66 407.71 298.76 450.74 274.72 450.74 379.24" fill="none" stroke="#fff" stroke-linecap="round" stroke-miterlimit="10" stroke-width="2"/><line x1="365.95" y1="320.98" x2="365.95" y2="417.49" fill="none" stroke="#fff" stroke-linecap="round" stroke-miterlimit="10" stroke-width="2"/><line x1="411.47" y1="296.66" x2="411.47" y2="396.48" fill="none" stroke="#fff" stroke-linecap="round" stroke-miterlimit="10" stroke-width="2"/><polyline points="117.46 560.66 90.8 569.66 90.8 644 117.46 638.63" fill="none" stroke="#fff" stroke-linecap="round" stroke-miterlimit="10" stroke-width="2"/><polygon points="74.09 647.12 74.09 573.28 44.4 580.56 44.4 652.4 74.09 647.12" fill="none" stroke="#fff" stroke-linecap="round" stroke-miterlimit="10" stroke-width="2"/><line x1="49.65" y1="579.27" x2="49.65" y2="651.64" fill="none" stroke="#fff" stroke-linecap="round" stroke-miterlimit="10" stroke-width="2"/><polyline points="210.69 531.53 183.59 541.26 183.59 622.08 210.69 615.71" fill="none" stroke="#fff" stroke-linecap="round" stroke-miterlimit="10" stroke-width="2"/><polygon points="177.23 542.88 177.23 623.32 149.17 628.15 149.17 552.34 177.23 542.88" fill="none" stroke="#fff" stroke-linecap="round" stroke-miterlimit="10" stroke-width="2"/><line x1="153.54" y1="550.87" x2="153.54" y2="627.36" fill="none" stroke="#fff" stroke-linecap="round" stroke-miterlimit="10" stroke-width="2"/><line x1="188.8" y1="539.39" x2="188.71" y2="620.88" fill="none" stroke="#fff" stroke-linecap="round" stroke-miterlimit="10" stroke-width="2"/><polygon points="277.51 510.68 242.71 522.53 242.71 607.45 279.38 597.51 277.51 510.68" fill="none" stroke="#fff" stroke-linecap="round" stroke-miterlimit="10" stroke-width="2"/><polyline points="324.93 587 286.49 595.85 286.49 507.54 324.93 494.2" fill="none" stroke="#fff" stroke-linecap="round" stroke-miterlimit="10" stroke-width="2"/><line x1="246.97" y1="521.08" x2="246.97" y2="605.75" fill="none" stroke="#fff" stroke-linecap="round" stroke-miterlimit="10" stroke-width="2"/><line x1="291.28" y1="505.88" x2="291.28" y2="594.42" fill="none" stroke="#fff" stroke-linecap="round" stroke-miterlimit="10" stroke-width="2"/><polygon points="361.69 482.27 361.69 577.68 396.86 568.2 396.86 469.53 361.69 482.27" fill="none" stroke="#fff" stroke-linecap="round" stroke-miterlimit="10" stroke-width="2"/><polygon points="450.74 552.24 407.71 564.94 407.71 465.04 450.74 447.73 450.74 552.24" fill="none" stroke="#fff" stroke-linecap="round" stroke-miterlimit="10" stroke-width="2"/><line x1="365.95" y1="480.73" x2="365.95" y2="577.24" fill="none" stroke="#fff" stroke-linecap="round" stroke-miterlimit="10" stroke-width="2"/><line x1="411.47" y1="463.53" x2="411.47" y2="563.34" fill="none" stroke="#fff" stroke-linecap="round" stroke-miterlimit="10" stroke-width="2"/><polyline points="117.46 670.06 90.8 678.53 90.8 752.86 117.46 748.04" fill="none" stroke="#fff" stroke-linecap="round" stroke-miterlimit="10" stroke-width="2"/><polygon points="74.09 755.64 74.09 681.81 44.4 688.48 44.4 760.32 74.09 755.64" fill="none" stroke="#fff" stroke-linecap="round" stroke-miterlimit="10" stroke-width="2"/><line x1="49.65" y1="687.3" x2="49.65" y2="759.68" fill="none" stroke="#fff" stroke-linecap="round" stroke-miterlimit="10" stroke-width="2"/><polyline points="210.69 651.84 183.59 660.16 183.59 740.98 210.69 736.03" fill="none" stroke="#fff" stroke-linecap="round" stroke-miterlimit="10" stroke-width="2"/><polygon points="177.23 661.43 177.23 741.88 149.17 745.24 149.17 669.43 177.23 661.43" fill="none" stroke="#fff" stroke-linecap="round" stroke-miterlimit="10" stroke-width="2"/><line x1="153.54" y1="668.19" x2="153.54" y2="744.68" fill="none" stroke="#fff" stroke-linecap="round" stroke-miterlimit="10" stroke-width="2"/><line x1="188.8" y1="658.56" x2="188.71" y2="740.04" fill="none" stroke="#fff" stroke-linecap="round" stroke-miterlimit="10" stroke-width="2"/><polygon points="277.51 639.27 242.71 647.59 242.71 732.52 279.38 726.3 277.51 639.27" fill="none" stroke="#fff" stroke-linecap="round" stroke-miterlimit="10" stroke-width="2"/><polyline points="324.93 720.4 286.49 725.35 286.49 637.05 324.93 627.61" fill="none" stroke="#fff" stroke-linecap="round" stroke-miterlimit="10" stroke-width="2"/><line x1="246.97" y1="646.58" x2="246.97" y2="731.25" fill="none" stroke="#fff" stroke-linecap="round" stroke-miterlimit="10" stroke-width="2"/><line x1="291.28" y1="635.87" x2="291.28" y2="724.41" fill="none" stroke="#fff" stroke-linecap="round" stroke-miterlimit="10" stroke-width="2"/><polygon points="361.69 619.4 361.69 714.81 396.86 708.89 396.86 610.22 361.69 619.4" fill="none" stroke="#fff" stroke-linecap="round" stroke-miterlimit="10" stroke-width="2"/><polygon points="450.74 698.4 407.71 706.73 407.71 606.83 450.74 593.88 450.74 698.4" fill="none" stroke="#fff" stroke-linecap="round" stroke-miterlimit="10" stroke-width="2"/><line x1="365.95" y1="618.29" x2="365.95" y2="714.8" fill="none" stroke="#fff" stroke-linecap="round" stroke-miterlimit="10" stroke-width="2"/><line x1="411.47" y1="605.7" x2="411.47" y2="705.52" fill="none" stroke="#fff" stroke-linecap="round" stroke-miterlimit="10" stroke-width="2"/><polygon points="762.34 261.81 808.21 292.07 808.87 372.64 760.56 344.85 762.34 261.81" fill="none" stroke="#fff" stroke-linecap="round" stroke-miterlimit="10" stroke-width="2"/><polyline points="700.55 310.59 751.2 339.59 750.5 253.75 701.77 220.37" fill="none" stroke="#fff" stroke-linecap="round" stroke-miterlimit="10" stroke-width="2"/><line x1="802.6" y1="288.43" x2="803.26" y2="368.95" fill="none" stroke="#fff" stroke-linecap="round" stroke-miterlimit="10" stroke-width="2"/><line x1="744.18" y1="249.43" x2="744.88" y2="335.73" fill="none" stroke="#fff" stroke-linecap="round" stroke-miterlimit="10" stroke-width="2"/><polygon points="763.37 387.59 809.18 411.49 809.85 492.06 761.6 470.98 763.37 387.59" fill="none" stroke="#fff" stroke-linecap="round" stroke-miterlimit="10" stroke-width="2"/><polyline points="701.66 445.33 752.24 467.04 751.54 381.2 700.9 353.2" fill="none" stroke="#fff" stroke-linecap="round" stroke-miterlimit="10" stroke-width="2"/><line x1="803.58" y1="408.62" x2="804.24" y2="489.14" fill="none" stroke="#fff" stroke-linecap="round" stroke-miterlimit="10" stroke-width="2"/><line x1="745.23" y1="377.77" x2="745.94" y2="464.07" fill="none" stroke="#fff" stroke-linecap="round" stroke-miterlimit="10" stroke-width="2"/><polygon points="764.52 528.74 810.28 544.77 810.94 625.34 762.76 612.55 764.52 528.74" fill="none" stroke="#fff" stroke-linecap="round" stroke-miterlimit="10" stroke-width="2"/><polyline points="702.9 597.58 753.42 610.25 752.71 524.41 702.15 505.44" fill="none" stroke="#fff" stroke-linecap="round" stroke-miterlimit="10" stroke-width="2"/><line x1="804.68" y1="542.84" x2="805.34" y2="623.37" fill="none" stroke="#fff" stroke-linecap="round" stroke-miterlimit="10" stroke-width="2"/><line x1="746.41" y1="522.09" x2="747.12" y2="608.39" fill="none" stroke="#fff" stroke-linecap="round" stroke-miterlimit="10" stroke-width="2"/><polyline points="960.93 382.52 987.09 400.1 987.09 466.63 960.92 452.59" fill="none" stroke="#fff" stroke-linecap="round" stroke-miterlimit="10" stroke-width="2"/><polygon points="1003.49 475.17 1003.49 409.25 1032.62 426.15 1032.62 489.98 1003.49 475.17" fill="none" stroke="#fff" stroke-linecap="round" stroke-miterlimit="10" stroke-width="2"/><line x1="1027.48" y1="423.17" x2="1027.47" y2="487.53" fill="none" stroke="#fff" stroke-linecap="round" stroke-miterlimit="10" stroke-width="2"/><line x1="981.76" y1="396.53" x2="981.76" y2="463.57" fill="none" stroke="#fff" stroke-linecap="round" stroke-miterlimit="10" stroke-width="2"/><polyline points="960.92 482.18 987.09 496.51 987.08 563.04 960.92 552.25" fill="none" stroke="#fff" stroke-linecap="round" stroke-miterlimit="10" stroke-width="2"/><polygon points="1003.49 569.54 1003.49 503.63 1032.62 516.92 1032.62 580.75 1003.49 569.54" fill="none" stroke="#fff" stroke-linecap="round" stroke-miterlimit="10" stroke-width="2"/><line x1="1027.47" y1="514.58" x2="1027.47" y2="578.94" fill="none" stroke="#fff" stroke-linecap="round" stroke-miterlimit="10" stroke-width="2"/><line x1="981.76" y1="493.6" x2="981.75" y2="560.64" fill="none" stroke="#fff" stroke-linecap="round" stroke-miterlimit="10" stroke-width="2"/><polyline points="960.92 590.81 987.08 600.98 987.08 667.52 960.91 660.88" fill="none" stroke="#fff" stroke-linecap="round" stroke-miterlimit="10" stroke-width="2"/><polygon points="1003.48 671.41 1003.48 605.5 1032.61 614.18 1032.61 678.01 1003.48 671.41" fill="none" stroke="#fff" stroke-linecap="round" stroke-miterlimit="10" stroke-width="2"/><line x1="1027.47" y1="612.66" x2="1027.46" y2="677.01" fill="none" stroke="#fff" stroke-linecap="round" stroke-miterlimit="10" stroke-width="2"/><line x1="981.75" y1="598.92" x2="981.75" y2="665.96" fill="none" stroke="#fff" stroke-linecap="round" stroke-miterlimit="10" stroke-width="2"/><polyline points="960.91 689.12 987.08 698.42 987.08 764.96 960.91 759.19" fill="none" stroke="#fff" stroke-linecap="round" stroke-miterlimit="10" stroke-width="2"/><polygon points="1003.48 768.3 1003.48 702.39 1032.61 710.07 1032.61 773.9 1003.48 768.3" fill="none" stroke="#fff" stroke-linecap="round" stroke-miterlimit="10" stroke-width="2"/><line x1="1027.46" y1="708.72" x2="1027.46" y2="773.08" fill="none" stroke="#fff" stroke-linecap="round" stroke-miterlimit="10" stroke-width="2"/><line x1="981.75" y1="696.54" x2="981.74" y2="763.58" fill="none" stroke="#fff" stroke-linecap="round" stroke-miterlimit="10" stroke-width="2"/><polyline points="1063.16 448.59 1080.26 459.92 1080.26 519.01 1063.16 510.28" fill="none" stroke="#fff" stroke-linecap="round" stroke-miterlimit="10" stroke-width="2"/><polygon points="1090.98 524.5 1090.98 465.67 1110.02 476.99 1110.02 534.4 1090.98 524.5" fill="none" stroke="#fff" stroke-linecap="round" stroke-miterlimit="10" stroke-width="2"/><line x1="1106.65" y1="474.95" x2="1106.65" y2="532.76" fill="none" stroke="#fff" stroke-linecap="round" stroke-miterlimit="10" stroke-width="2"/><line x1="1076.78" y1="457.56" x2="1076.78" y2="517" fill="none" stroke="#fff" stroke-linecap="round" stroke-miterlimit="10" stroke-width="2"/><polyline points="1063.16 536.33 1080.26 545.54 1080.26 604.63 1063.16 598.02" fill="none" stroke="#fff" stroke-linecap="round" stroke-miterlimit="10" stroke-width="2"/><polygon points="1090.97 608.73 1090.98 549.9 1110.02 558.63 1110.01 616.04 1090.97 608.73" fill="none" stroke="#fff" stroke-linecap="round" stroke-miterlimit="10" stroke-width="2"/><line x1="1106.65" y1="557.06" x2="1106.65" y2="614.87" fill="none" stroke="#fff" stroke-linecap="round" stroke-miterlimit="10" stroke-width="2"/><line x1="1076.77" y1="543.63" x2="1076.77" y2="603.07" fill="none" stroke="#fff" stroke-linecap="round" stroke-miterlimit="10" stroke-width="2"/><polyline points="1063.16 631.97 1080.26 638.33 1080.25 697.42 1063.15 693.66" fill="none" stroke="#fff" stroke-linecap="round" stroke-miterlimit="10" stroke-width="2"/><polygon points="1090.97 699.65 1090.97 640.82 1110.01 646.11 1110.01 703.52 1090.97 699.65" fill="none" stroke="#fff" stroke-linecap="round" stroke-miterlimit="10" stroke-width="2"/><line x1="1106.65" y1="645.16" x2="1106.65" y2="702.97" fill="none" stroke="#fff" stroke-linecap="round" stroke-miterlimit="10" stroke-width="2"/><line x1="1076.77" y1="637.01" x2="1076.77" y2="696.45" fill="none" stroke="#fff" stroke-linecap="round" stroke-miterlimit="10" stroke-width="2"/><polyline points="1063.15 718.52 1080.25 724.87 1080.25 783.96 1063.15 780.21" fill="none" stroke="#fff" stroke-linecap="round" stroke-miterlimit="10" stroke-width="2"/><polygon points="1090.97 786.13 1090.97 727.29 1110.01 732.36 1110.01 789.77 1090.97 786.13" fill="none" stroke="#fff" stroke-linecap="round" stroke-miterlimit="10" stroke-width="2"/><line x1="1106.65" y1="731.46" x2="1106.64" y2="789.27" fill="none" stroke="#fff" stroke-linecap="round" stroke-miterlimit="10" stroke-width="2"/><line x1="1076.77" y1="723.56" x2="1076.77" y2="783" fill="none" stroke="#fff" stroke-linecap="round" stroke-miterlimit="10" stroke-width="2"/><polyline points="1137.07 483.8 1161.58 501.77 1161.58 555.97 1137.07 541.53" fill="none" stroke="#fff" stroke-linecap="round" stroke-miterlimit="10" stroke-width="2"/><polygon points="1176.94 564.64 1176.94 511.32 1204.23 528.47 1204.22 579.46 1176.94 564.64" fill="none" stroke="#fff" stroke-linecap="round" stroke-miterlimit="10" stroke-width="2"/><line x1="1199.41" y1="525.48" x2="1199.4" y2="577" fill="none" stroke="#fff" stroke-linecap="round" stroke-miterlimit="10" stroke-width="2"/><line x1="1156.58" y1="498.15" x2="1156.58" y2="552.89" fill="none" stroke="#fff" stroke-linecap="round" stroke-miterlimit="10" stroke-width="2"/><polyline points="1137.07 565.91 1161.57 580.31 1161.57 634.51 1137.06 623.64" fill="none" stroke="#fff" stroke-linecap="round" stroke-miterlimit="10" stroke-width="2"/><polygon points="1176.93 640.98 1176.94 587.66 1204.22 600.98 1204.22 651.97 1176.93 640.98" fill="none" stroke="#fff" stroke-linecap="round" stroke-miterlimit="10" stroke-width="2"/><line x1="1199.4" y1="598.66" x2="1199.4" y2="650.18" fill="none" stroke="#fff" stroke-linecap="round" stroke-miterlimit="10" stroke-width="2"/><line x1="1156.58" y1="577.41" x2="1156.58" y2="632.15" fill="none" stroke="#fff" stroke-linecap="round" stroke-miterlimit="10" stroke-width="2"/><polyline points="1137.06 655.42 1161.57 665.41 1161.57 719.62 1137.06 713.15" fill="none" stroke="#fff" stroke-linecap="round" stroke-miterlimit="10" stroke-width="2"/><polygon points="1176.93 723.38 1176.93 670.06 1204.22 678.68 1204.22 729.67 1176.93 723.38" fill="none" stroke="#fff" stroke-linecap="round" stroke-miterlimit="10" stroke-width="2"/><line x1="1199.4" y1="677.18" x2="1199.4" y2="728.71" fill="none" stroke="#fff" stroke-linecap="round" stroke-miterlimit="10" stroke-width="2"/><line x1="1156.58" y1="663.4" x2="1156.57" y2="718.14" fill="none" stroke="#fff" stroke-linecap="round" stroke-miterlimit="10" stroke-width="2"/><polyline points="1137.06 736.42 1161.57 744.79 1161.56 798.99 1137.05 794.16" fill="none" stroke="#fff" stroke-linecap="round" stroke-miterlimit="10" stroke-width="2"/><polygon points="1176.93 801.75 1176.93 748.43 1204.22 755.28 1204.21 806.28 1176.93 801.75" fill="none" stroke="#fff" stroke-linecap="round" stroke-miterlimit="10" stroke-width="2"/><line x1="1199.4" y1="754.09" x2="1199.39" y2="805.62" fill="none" stroke="#fff" stroke-linecap="round" stroke-miterlimit="10" stroke-width="2"/><line x1="1156.57" y1="743.11" x2="1156.57" y2="797.85" fill="none" stroke="#fff" stroke-linecap="round" stroke-miterlimit="10" stroke-width="2"/><polyline points="845.02 321.05 884.18 345.77 884.44 419.02 845.3 398.53" fill="none" stroke="#fff" stroke-linecap="round" stroke-miterlimit="10" stroke-width="2"/><polygon points="893.37 350.87 893.63 423.52 934.16 442.48 933.92 375.09 893.37 350.87" fill="none" stroke="#fff" stroke-linecap="round" stroke-miterlimit="10" stroke-width="2"/><line x1="927.59" y1="371.36" x2="927.84" y2="439.52" fill="none" stroke="#fff" stroke-linecap="round" stroke-miterlimit="10" stroke-width="2"/><line x1="876.65" y1="341.06" x2="877.04" y2="415.19" fill="none" stroke="#fff" stroke-linecap="round" stroke-miterlimit="10" stroke-width="2"/><polyline points="845.43 433.37 884.56 453.45 884.82 526.71 845.7 510.85" fill="none" stroke="#fff" stroke-linecap="round" stroke-miterlimit="10" stroke-width="2"/><polygon points="893.75 457.48 894.01 530.13 934.52 544.42 934.28 477.04 893.75 457.48" fill="none" stroke="#fff" stroke-linecap="round" stroke-miterlimit="10" stroke-width="2"/><line x1="927.96" y1="474.03" x2="928.2" y2="542.19" fill="none" stroke="#fff" stroke-linecap="round" stroke-miterlimit="10" stroke-width="2"/><line x1="877.03" y1="449.63" x2="877.43" y2="523.74" fill="none" stroke="#fff" stroke-linecap="round" stroke-miterlimit="10" stroke-width="2"/><polyline points="845.87 558.05 884.99 572.4 885.25 645.66 846.15 635.53" fill="none" stroke="#fff" stroke-linecap="round" stroke-miterlimit="10" stroke-width="2"/><polygon points="894.17 575.11 894.43 647.76 934.92 656.29 934.68 588.9 894.17 575.11" fill="none" stroke="#fff" stroke-linecap="round" stroke-miterlimit="10" stroke-width="2"/><line x1="928.36" y1="586.78" x2="928.61" y2="654.94" fill="none" stroke="#fff" stroke-linecap="round" stroke-miterlimit="10" stroke-width="2"/><line x1="877.46" y1="569.67" x2="877.86" y2="643.77" fill="none" stroke="#fff" stroke-linecap="round" stroke-miterlimit="10" stroke-width="2"/><polyline points="846.27 668.78 885.37 680.17 885.63 753.42 846.54 746.26" fill="none" stroke="#fff" stroke-linecap="round" stroke-miterlimit="10" stroke-width="2"/><polygon points="894.55 682.18 894.81 754.84 935.29 760.37 935.05 692.98 894.55 682.18" fill="none" stroke="#fff" stroke-linecap="round" stroke-miterlimit="10" stroke-width="2"/><line x1="928.74" y1="691.32" x2="928.98" y2="759.49" fill="none" stroke="#fff" stroke-linecap="round" stroke-miterlimit="10" stroke-width="2"/><line x1="877.85" y1="678.01" x2="878.24" y2="752.09" fill="none" stroke="#fff" stroke-linecap="round" stroke-miterlimit="10" stroke-width="2"/><polygon points="765.54 653.12 811.25 663.42 811.91 744 763.78 737.25 765.54 653.12" fill="none" stroke="#fff" stroke-linecap="round" stroke-miterlimit="10" stroke-width="2"/><polyline points="703.99 730.03 754.45 736.14 753.74 650.3 703.24 637.9" fill="none" stroke="#fff" stroke-linecap="round" stroke-miterlimit="10" stroke-width="2"/><line x1="805.66" y1="662.19" x2="806.32" y2="742.72" fill="none" stroke="#fff" stroke-linecap="round" stroke-miterlimit="10" stroke-width="2"/><line x1="747.45" y1="648.79" x2="748.16" y2="735.09" fill="none" stroke="#fff" stroke-linecap="round" stroke-miterlimit="10" stroke-width="2"/><polygon points="664.47 211.18 664.67 303.22 607.01 273.43 606.8 176.4 664.47 211.18" fill="none" stroke="#fff" stroke-linecap="round" stroke-miterlimit="10" stroke-width="2"/><polygon points="518.67 224.32 589.22 263.69 589.01 164.88 518.44 118.53 518.67 224.32" fill="none" stroke="#fff" stroke-linecap="round" stroke-miterlimit="10" stroke-width="2"/><line x1="657.49" y1="207.03" x2="657.69" y2="300.35" fill="none" stroke="#fff" stroke-linecap="round" stroke-miterlimit="10" stroke-width="2"/><line x1="582.86" y1="160.91" x2="583.06" y2="259.84" fill="none" stroke="#fff" stroke-linecap="round" stroke-miterlimit="10" stroke-width="2"/><polygon points="664.76 346.34 664.95 438.38 607.31 415.32 607.1 318.3 664.76 346.34" fill="none" stroke="#fff" stroke-linecap="round" stroke-miterlimit="10" stroke-width="2"/><polygon points="518.99 376.91 589.52 407.71 589.31 308.9 518.77 271.12 518.99 376.91" fill="none" stroke="#fff" stroke-linecap="round" stroke-miterlimit="10" stroke-width="2"/><line x1="657.78" y1="342.99" x2="657.98" y2="436.32" fill="none" stroke="#fff" stroke-linecap="round" stroke-miterlimit="10" stroke-width="2"/><line x1="583.16" y1="305.66" x2="583.37" y2="404.59" fill="none" stroke="#fff" stroke-linecap="round" stroke-miterlimit="10" stroke-width="2"/><polygon points="665.08 499.81 665.28 591.86 607.65 577.16 607.44 480.13 665.08 499.81" fill="none" stroke="#fff" stroke-linecap="round" stroke-miterlimit="10" stroke-width="2"/><polygon points="519.36 552.03 589.87 572.18 589.66 473.36 519.14 446.24 519.36 552.03" fill="none" stroke="#fff" stroke-linecap="round" stroke-miterlimit="10" stroke-width="2"/><line x1="658.11" y1="497.47" x2="658.3" y2="590.79" fill="none" stroke="#fff" stroke-linecap="round" stroke-miterlimit="10" stroke-width="2"/><line x1="583.51" y1="471.05" x2="583.72" y2="569.97" fill="none" stroke="#fff" stroke-linecap="round" stroke-miterlimit="10" stroke-width="2"/><polygon points="665.36 632.11 665.56 724.16 607.94 715.51 607.74 618.48 665.36 632.11" fill="none" stroke="#fff" stroke-linecap="round" stroke-miterlimit="10" stroke-width="2"/><polygon points="519.67 699.97 590.17 712.43 589.96 613.61 519.45 594.18 519.67 699.97" fill="none" stroke="#fff" stroke-linecap="round" stroke-miterlimit="10" stroke-width="2"/><line x1="658.39" y1="630.49" x2="658.59" y2="723.81" fill="none" stroke="#fff" stroke-linecap="round" stroke-miterlimit="10" stroke-width="2"/><line x1="583.81" y1="611.96" x2="584.02" y2="710.88" fill="none" stroke="#fff" stroke-linecap="round" stroke-miterlimit="10" stroke-width="2"/></svg>