<svg id="Layer_7" data-name="Layer 7" xmlns="http://www.w3.org/2000/svg" viewBox="0 0 1354.83 611.57"><path d="M780.9,833.85l-91.77,9.68m95.23-10-3.46.33m7-.65-3.54.32m7.21-.6-3.67.28m7.49-.54-3.82.26m7.75-.5-3.93.24m8-.45-4,.21m8.14-.39-4.11.18m8.3-.33-4.19.15m8.43-.27-4.24.12m8.51-.21-4.27.09m8.57-.15-4.3.06m8.59-.09-4.29,0m8.57,0h-4.28m8.54,0-4.26,0m8.46.09-4.2-.06m8.33.15-4.13-.09m8.19.21-4.06-.12m8,.27-4-.15m7.83.33-3.86-.18m7.58.39-3.72-.21m7.31.43-3.59-.22m7,.48-3.43-.26m6.69.55-3.26-.29m6.44.62-3.18-.33m120.85,13.06L874.69,833.52M469.6,816.25l75.79-6.42m-225.8-12.22L401,791.7m475.86,40.83,3.46.35m-7.11-.67,3.65.32m-7.47-.61,3.82.29m-7.84-.55,4,.26m-8.18-.49,4.16.23m-8.46-.43,4.3.2m-8.74-.36,4.44.16m-9-.3,4.53.14m-9.15-.24,4.62.1m-9.31-.17,4.69.07m-9.44-.1,4.75,0m-9.52,0h4.77m-9.57,0,4.8,0m-9.58.1,4.78-.06m-9.55.16,4.77-.1m-9.49.24,4.72-.14m-14,.5,4.59-.2m-9.1.44,4.51-.24m-8.9.5,4.39-.26m-8.65.55,4.26-.29m-8.38.6,4.12-.31m-8.07.66,4-.35m-7.71.72,3.76-.37m-95.6,10,91.84-9.63m76.58-31.87-94.2-8.83m408.59,38.3-140,17.79M908.23,784.19l-26.92,2.36m120,5.38-93.11-7.74m93.11,8.57L908.16,785m0,0L883,787.18m0,0,118.31,10.12m-121,35.58,117.73,12.67M881.31,787.86l120,10.32M1118.48,821l48.28,9.81M890.52,793.24,1001.34,803m165.42,27.85,32.51-4.13M1118.48,821l37.43-4.41M852.37,796.72,1118.48,821m37.43-4.41-129-11.37m129,11.37,19.08,3.76m0,1.51,24.27,4.82m0,2.64v-2.64m-197.93-55.79-93.09-6.84m-129.21-2v7m76.19-12.51v6.81m-68.11-1.94-8.08.59M1175,789.65l-148-11.25m-115.6-14.54,90,6.58m-214.22-8.92,0,7m68.13-11.91-68.11,4.87m426.08,66.05v-7.86M1258,821.8v-7.66m-231.09-8.88V778.4m488,4,0-27.34m10-1-10,1M1458,761l-11,1.16m-62.69,6.54-12.19,1.27m-69.41,38.76,0-31.51m-13.51,33.18,0-31.77m13.54-1.41-13.54,1.41m214.81-24.15,11,.59m-237.51,22.76,11.71.8m-11.67,30.82,11.7,1m13.55-1.67-13.55,1.67m95.2-11.8-12.2,1.51M1504,781.67l11,.7m10-1.25-10,1.25m-142.82,17.7,0-30.14m-11.44,29.29,11.48.85m-11.53-30.85,11.49.71m86,17.19,0-26.16m-11,25.41,0-24.25m-15-.87,15,.87m78,19-.06-27.14m-247.55,23.81-6.41.66m6.45,31,0-31.62m83.26,21.43-.05-30M1504,781.67l0-27.23m-262.44,58.33,16.56,1.37m0,0-44.83,5.57M652.91,607.92l26.25,0m-13.59-21.2-12.64.15m106.14,20.94-106.16.09m0,0,0-21m354.48-4.36v25.06m-248.32-22,0,22.25m248.34-25.3-17.68.22m53.2-147.17-35.52-3.32m-248.2-2.2v22.21m-106.11,8.55,0-21m354.29-32.59v25m38.68.9v2.15m0-6.69v2.14m0-6.69v2.14m0-6.68v2.12m0-6.66v2.11m0-5.75v1.2m21.57,30.29-13.36-1.21m16.26-22-11.37-1.19m-193,345.86-10.92-.82m.83,19.48-77.4-6.55m0-4.86v4.86M759,787.57v4.9m93.36,8.75L759,792.47m-.83-7.19,10.7-.88m85,7.58-85-7.58m0-4.89v4.89m-.81-7.17,10.59-.84m-20.48,8.89v2.22m95,6.32-95-8.54m9.89-8v2.21m85.75,5.11-85.75-7.32m9.78-8v2.19M856,775.58l-78.16-6.32m76,22.72v-5.12m27.43,2.68L853.88,792m19.82-10.52,8.38.69m9.22,8.25-10-.86m10,.86-38.15,3.42m38.15-3.42v2.3m-38.15,3.45v-2.33m28.93-11.67v2.28m-28.26,2.44v-2.32m28.26-2.4-28.26,2.4m20.64-10.46v2.27M856,777.88v-2.3m18.45-1.49L856,775.58m0,7.36v-5.07m17.63-1.45v5m0,0-17.64,1.48m17.65-16.19V774m-7.55-7.84,7.56.57m-7.56,6.68v-7.25m42.1-2.09,0,20.1m0-20.1-34.54,2.66M758.2,763.6l-7-.55m27.84-.94-7-.55m7,.55L758.2,763.6m107.64-6.19-10.61-.76m0-1.06v1.06m10.61-.3v1.06m0-42.73-10.61-.55m0-81.17,0,81.17m10.64-81.29,0,81.84m0,1.06-10.61-.55m0-1.06v1.06m10.61-.51v1.06m0,40.61-10.6-.76m0-40.4v40.4m10.62-39.85,0,40.61m-103.33,4.48,9.53.73m-32.8-153.68,32.92,0m-.09,110.87,0,42.84m-32.89-45.74,32.92,1.81m.07-83.72-.07,83.72m.09-109.78v11m-32.91-10.94v11m-.09,98,32.92,1.82m0-1.09v1.09m-32.92-2.9v1.08M571.24,778.17l37.26-2.69m143,17.63-16.69-6M571.21,808.45l180.33-15.34m-16.69-6L608.5,775.48m-37.28,25,163.63-13.36M886.78,447.23l103-8.05m-103,100.91,103-3.44m-103,2.29v1.15m0-1.15,103-3.5m-103-87.06,103-8m-103,6.84v1.15M1082.29,578v2.65" transform="translate(-220.87 -263.8)" fill="none" stroke="#f7f8f9" stroke-miterlimit="10" stroke-width="2"/><path d="M1082.29,573.42v2.63m0-7.26v2.63m0-7.24v2.62m0-7.24v2.6m0-7.21v2.58m0-7.21,0,2.58m0-7.2v2.56m0-7.17v2.54m0-7.16V539m0-7.15v2.51m0-7.12v2.49m0-7.11v2.49m0-7.1v2.47m0-7.1v2.46m0-7.08v2.45m0-7.06v2.43m0-7.05V502m0-7v2.39m0-7v2.38m0-7v2.37m0-7v2.36m0-7v2.34m0-7v2.33m0-6.95v2.31m0-6.92v2.29m0-6.91v2.29m0-6.9v2.27m0-6.88V451m0-6.86v2.23m0-6.85v2.22m0-6.83v2.21m0-6.83v2.2m0-6.81v2.18m0-6.8v2.17m35.32-9.78v2.11m0-6.8V411m0-6.85v2.16m0-6.85v2.15m0-6.83v2.12m0-6.81v2.12m0-6.79v2.09m0-6.78v2.08m0-6.76v2.07m0-6.76v2.05m0-6.73v2m0-6.71v2m0-6.71v2m0-6.69v2m0-6.69v2m0-6.67v2m0-6.63v1.94m0-6.63v1.93m0-6.61v1.92m0-11.29v1.9m-28,96.22-7.31.62M1070.17,578.2v2.64m0-7.23v2.63m0-7.22v2.6m0-7.21V567m0-7.2v2.6m0-7.19v2.57m0-7.16v2.56m0-7.15v2.53m0-7.13V544m0-7.12v2.52m0-7.11v2.49m0-7.08v2.48m0-7.07v2.47m0-7.07V521m0-7.05v2.44m0-7v2.43m0-7v2.42m0-7v2.41m0-7v2.38m0-7v2.37m0-7v2.36m0-6.95v2.34m0-6.93v2.33m0-6.92v2.3m0-6.9v2.3m0-6.89,0,2.29m0-6.88v2.27m0-6.86v2.26m0-6.85v2.25m0-6.84v2.23m-185.19,6.57,1.84-.14m-53.48,4,31.46-2.35M833.23,583.46v1.21m3.42-.43,24.78-.32M834.71,459.74l-.05,81.51m26.82-83.49-26.77,2m-35-4.5-33.15,2.57m66.77-.12-33.62-2.45m-33.22,89.38,0,40.88m33.2-42-33.16,1.1m66.79,0-13.42-.42m-53.37-.61v1.08m33.16-2.2v1.1m0-1.1-33.16,1.12m.07-84.66-.07,84.66m33.22-87.22-.06,86.1m33.68-83.65-33.62-2.45m0,0-33.15,2.56m0-1.07v1.07m33.15-3.64v1.08m-87.39,6.6,47.48-3.65m-47.48,3.65-.13,123.25m27.2-1.37,20.3-.26M713.48,547.8l0,37.33M738.16,463l-24.6,1.87m25.84,80,20.29-.67m-46.13-79.29-.08,80.84M739.39,547l20.3-.66m-20.29-1.45.07-81.93m-.11,121.88,0-37.84m20.38-85.57-20.3,1.53m-1.42,121.89,0-37.81m-24.6.8,24.6-.8m269.33-114.74-17.68,1.42m17.68-1.42V582.53M1054,439.28V437.1m0,6.75v-2.2m0,6.77v-2.2m0,6.77v-2.22m0,6.8v-2.25m0,6.81v-2.25m0,6.83v-2.27m0,6.84V469m0,6.86v-2.3m0,6.86v-2.31m0,6.89v-2.33m0,6.9v-2.34m0,6.91v-2.35m0,6.92v-2.36m0,6.94v-2.38m0,7v-2.41m0,7V510m0,7v-2.43m0,7v-2.44m0,7V523.7m0,7v-2.47m0,7v-2.48m0,7.06v-2.5m0,7.07V542m0,7.07V546.5m0,7.1v-2.53m0,7.11v-2.56m0,7.13v-2.57m0,7.14v-2.58m0,7.16v-2.6m0,7.18v-2.61m0,7.18v-2.63M665.71,459.8l-12.62,1m12.62-1-.14,126.94m-94.36,220.5v1.21m-21.7.63v1.22M410.27,793.15l0-5.62M549.52,803l21.69-1.79m-21.7,9.11,21.7-1.85M410.29,787.53,431.44,786m118.07,23.06,21.7-1.84M410.27,793.15l139.24,15.93m21.7-7.89v6M549.52,803v6.1M410.27,794.27v-1.12m341.29-29.07,0,29m-143-40.39,143,11.36M608.5,775.48l0-22.76m143,11.36,6.64-.48m-6.66,29.51,6.63-.56M608.53,752.72l6.56-.41M1043,583l1.6,0m130.29-1.59L1043,583m0-1.85V583m0-4.56,3.17,0m128.71-1.89L1043,578.48m0-1.84v1.84m0-4.55,3.17.06m128.71-2.17L1043,573.93m0-1.84v1.84m0-4.55,3.17.06M1174.83,567,1043,569.38m0-1.85v1.85m0-4.55,3.17.07m128.71-2.72L1043,564.83m0-1.85v1.85m0-4.56,3.17.09m128.7-3L1043,560.27m0-1.84v1.84m0-4.55,3.17.09m128.7-3.27L1043,555.72m0-1.85v1.85m0-4.55,3.17.1m128.7-3.55L1043,551.17m0-1.85v1.85m0-4.56,3.17.11m128.7-3.83L1043,546.61m0-1.84v1.84m0-4.55,3.17.11m128.69-4.09-131.86,4" transform="translate(-220.87 -263.8)" fill="none" stroke="#f7f8f9" stroke-miterlimit="10" stroke-width="2"/><path d="M1043,540.23v1.83m0-4.55,3.17.12m128.69-4.38L1043,537.51m0-1.84v1.84m0-4.54,3.17.12m128.69-4.65L1043,533m0-1.85V533m0-4.56,3.17.14m128.69-4.93L1043,528.41m0-1.84v1.84m0-4.55,3.17.14m128.68-5.21L1043,523.86m0-1.85v1.85m0-4.55,3.16.14M1174.8,514,1043,519.31m0-1.85v1.85m0-4.56,3.17.16m128.69-5.75-131.86,5.59m0-1.84v1.84m0-4.55,3.17.17m128.69-6-131.86,5.86m0-1.83v1.83m0-4.54,3.17.17m128.67-6.31-131.84,6.14m0-1.85v1.85m0-4.56,3.17.19m128.67-6.58-131.84,6.39m0-1.84v1.84m0-4.55,3.17.19m128.67-6.86-131.84,6.67m0-1.84v1.84m0-4.55,3.17.2m128.67-7.14L1042.94,492m0-1.85V492m0-4.55,3.17.21m128.66-7.41-131.83,7.2m0-1.84v1.84m0-4.55,3.17.22m128.66-7.69-131.83,7.47m0-1.84v1.84m0-4.55,3.17.23m128.66-8-131.83,7.75m0-1.84v1.84m0-4.55,3.17.24m128.66-8.25-131.83,8m0-1.84v1.84m0-4.54,3.17.23M1174.76,461l-131.82,8.29m0-1.85v1.85m0-4.56,3.17.25m128.65-8.79-131.82,8.54m0-1.84v1.84m0-4.55,3.17.25m128.65-9.06-131.82,8.81m0-1.85v1.85m0-4.55,3.17.26m128.64-9.33-131.81,9.07m0-1.84v1.84m0-4.54,3.15.26m128.66-9.62-131.81,9.36m0-1.85v1.85m0-4.56,3.16.28m128.66-9.89-131.82,9.61m0-1.84v1.84m0-4.54,3.16.28m128.66-10.17L1042.93,442m0-1.84V442m0-4.55,3.16.29m128.65-10.44-131.81,10.15m0-4.55,3.16.3m128.65-10.72-131.81,10.42m0-1.84v1.84m0-4.54,3.16.3m128.65-11-131.81,10.7m0-1.85v1.85m0-4.56,3.16.31m128.65-11.26-131.81,10.95m0-1.84v1.84m0-4.54,3.16.31M1174.72,408l-131.79,11.23m0-1.84v1.84m0-4.55,3.16.32m128.63-11.81-131.79,11.49m0-1.85v1.85m0-4.55,3.16.34m128.63-12.1-131.79,11.76m0-1.84v1.84m0-4.55,3.16.35m128.63-12.37-131.79,12m0-1.84v1.84m0-4.55,3.16.36m128.62-12.65L1042.93,401m0-1.83V401m0-4.54,3.16.36m128.62-12.92-131.78,12.56m0-1.85v1.85m0-4.55,3.16.37m128.62-13.2-131.78,12.83m0-1.84v1.84m0-4.54,3.15.37m128.63-13.47-131.78,13.1m0-1.85v1.85m0-4.56,3.15.39m128.62-13.75-131.77,13.36m0-1.83v1.83m0-4.54,3.16.39m128.62-14-131.78,13.63m0-1.84v1.84m0-4.55,3.16.4m128.62-14.3-131.78,13.9m0-1.83v1.83m0-4.54,3.16.41M1174.7,355,1042.92,369.2m0-1.85v1.85m0-4.54,3.16.41m128.61-14.86-131.77,14.45m0-1.85v1.85m0-4.56,3.16.43m128.61-15.13-131.77,14.7m0-1.84v1.84m0-4.54,3.16.43m128.61-15.41-131.77,15m0-1.84v1.84m0-4.55,3.16.44m128.61-15.67L1042.92,351m0-1.83V351m0-4.54,3.16.45m128.6-16-131.76,15.51m0-1.85v1.85m0-4.54,3.16.45m128.6-16.23-131.76,15.78m0-1.85v1.85m0-4.55,3.16.46m128.6-16.51-131.76,16.05m0-1.84v1.84m0-4.54,3.16.46m128.6-16.78-131.76,16.32m0-1.85v1.85m0-4.56,3.16.49m128.58-17-131.74,16.56m0-1.83v1.83m0-4.54,3.16.49m128.58-17.33-131.74,16.84m0-1.83v1.83m0-4.54,3.15.49m128.59-17.6L1042.92,319.2m0-1.85v1.85m0-4.55,3.15.51m128.59-17.89-131.74,17.38m0-1.84v1.84m131.73-19.33-131.73,17.49M615.09,752.31,751.2,763.05m14.33-1,6.51-.48m-6.51.48-3-.24m-11.31,1.25,14.33-1m-80-154.12,53.73,0m-53.73,0v10.67m180.71.51V607.79m-69.84,11V607.85m0,10.93,69.83.32M886.73,584v-.91m0-2.53v-1.72m-25.3,2.07v-1.7m8,1.81-8-.11m0,0,25.3-.35m-17.31.46,3,0m0,0-4.79-.06m19.09-4.6v-1.72m-25.3,2.12V575m8,1.82-8-.12m0,0,25.3-.4m-17.31.52,3,0m0,0-4.79-.08m19.09-4.66v-1.72m-25.3,2.18v-1.7m8,1.84-8-.14m0,0,25.3-.46m-17.31.6,3,0m0,0-4.78-.09m19.07-4.7v-1.72m-25.3,2.22v-1.7m8,1.86-8-.16m0,0,25.3-.5m-17.31.66,3-.06m0,0-4.78-.09m19.08-4.76v-1.72m-25.31,2.28v-1.7m8,1.87-8-.17m0,0,25.31-.56m-17.32.73,3-.06m0,0-4.78-.11m19.08-4.8v-1.73M861.43,560l0-1.71m8,1.89-8-.18m0,0,25.31-.61m-17.32.79,3-.07m0,0-4.78-.11m19.08-4.87v-1.72m-25.29,2.38v-1.69m8,1.91-8-.22" transform="translate(-220.87 -263.8)" fill="none" stroke="#f7f8f9" stroke-miterlimit="10" stroke-width="2"/><path d="M861.45,555.74l25.29-.66m-17.31.88,3-.08m0,0-4.78-.12m19.08-4.92v-1.72m-25.29,2.43v-1.69m8,1.92-8-.23m0,0,25.29-.71m-17.31.94,3-.09m0,0-4.78-.14m19.08-5v-1.72m-25.29,2.49v-1.71m8,2-8-.24m0,0,25.29-.77m-17.31,1,3-.09m0,0-4.78-.15m19.07-5v-1.73m-25.29,2.54,25.29-.81m-17.31,1.07,3-.1m0,0-4.78-.15m19.07-5.08v-1.72M861.45,539v-1.7m0,1.7,25.29-.88m-17.31,1.15,3-.1m0,0-4.78-.16m19.07-5.13v-1.72m-25.3,2.64v-1.69m0,1.69,25.29-.92m-17.31,1.21,3-.11m0,0-4.78-.18m19.08-5.16v-1.72m-25.29,2.69v-1.71m0,1.71,25.29-1m-17.31,1.27,3-.11m0,0-4.78-.19m19.08-5.22v-1.73m-25.29,2.75v-1.7m0,1.7,25.29-1m-17.31,1.34,3-.11m0,0-4.78-.2m19.08-5.28v-1.72m-25.29,2.8v-1.7m0,1.7,25.29-1.08m-17.31,1.41,3-.12m0,0-4.77-.2m19.07-5.34v-1.72M861.46,518v-1.7m0,1.7,25.29-1.14m-17.31,1.48,3-.12m0,0-4.78-.21m19.07-5.39V510.9m-25.29,2.9v-1.7m0,1.7,25.29-1.18m-17.31,1.56,3-.15m0,0-4.78-.23m19.07-5.42v-1.72m-25.29,2.94v-1.7m0,1.7,25.29-1.22M869.44,510l3-.15m0,0-4.78-.24m19.07-5.49V502.4m-25.28,3v-1.7m0,1.7,25.28-1.29m-17.29,1.7,3-.15m0,0-4.78-.25m19.09-5.54v-1.72m-25.3,3.06v-1.7m0,1.7,25.3-1.34m-17.31,1.76,3-.16m0,0-4.78-.25m19.09-5.59v-1.72M861.47,497v-1.7m0,1.7,25.3-1.39m-17.31,1.82,3-.16m0,0-4.78-.26m19.09-5.65v-1.72m-25.3,3.16v-1.7m0,1.7,25.3-1.44m-17.31,1.89,3-.17m0,0-4.79-.26m19.08-5.7v-1.73m-25.3,3.21v-1.7m0,1.7,25.3-1.48m-17.31,2,3-.17m0,0-4.79-.29m19.08-5.74v-1.72m-25.3,3.26v-1.7m0,1.7,25.3-1.54m-17.31,2,3-.18m0,0-4.79-.3m19.08-5.8v-1.71m-25.29,3.31v-1.7m0,1.7,25.29-1.6m-17.31,2.11,3-.2m0,0-4.79-.3m19.08-5.85v-1.72m-25.29,3.37v-1.7m0,1.7,25.29-1.65m-17.3,2.17,3-.2m0,0-4.79-.31m19.08-5.9v-1.72m-25.3,3.41v-1.69m0,1.69,25.29-1.69m-17.3,2.23,3-.2m0,0-4.79-.32m19.09-5.95v-1.72m-25.3,3.46V466m0,1.69,25.3-1.74m-17.31,2.29,3-.2m0,0-4.78-.33m19.08-6V460m-25.3,3.52v-1.71m0,1.71,25.3-1.81M869.47,464l3-.21m0,0-4.79-.34m19.08-6.06v-1.72m-25.3,3.57,25.3-1.85m-17.31,2.43,3-.21m0,0-4.79-.35m19.08-6.11v-1.72m-25.28,3.62v-1.7m0,1.7,25.28-1.9m-17.31,2.51,3-.23m0,0-4.79-.36m-6.2-4.22V449.2m8,2.32-8-.63m0-1.69,25.28-2m-25.28,3.66L886.78,449m-17.3,2.57,3-.24m0,0-4.79-.36m-107.93,7.41,6.76-.52m-6.84,87,6.77-.22m-6.77-.85,6.77-.23m-6.69-84.15,6.76-.51M873.76,632.75l0,134m0-134,40.67-.46m-45-55.44v2.26m0-6.44v2.22m0-6.4v2.19m0-6.37v2.16m0-6.34v2.13m0-6.3V558m0-6.26v2.06m0-6.24v2m0-14.56V537m0-6.1v1.9m0-6.08v1.86m0-6v1.84m0-6v1.8m0-6v1.76m0-5.94v1.72m0-5.9,0,1.68m0-5.86v1.66m0-5.84v1.62m0-5.8v1.6m0-5.78v1.56m0-5.73v1.53m0-5.7v1.5m0-5.68V478m0-5.64v1.44m0-5.62v1.4m0-5.58v1.38m0-5.56v1.34m0-5.5V457m0-5.47v1.27m7.5,128v2.44m0-6.65V579m0-6.63v2.4m0-6.61v2.38m0-6.6v2.37m0-6.59v2.36m0-6.57v2.34m0-6.56v2.33m0-6.53v2.32m0-6.54v2.31m0-6.53V541m0-6.51v2.28m0-6.49v2.26m0-6.47v2.24m0-6.46v2.25m0-6.47v2.24m0-6.44v2.21m0-6.43v2.2m0-6.41v2.18m0-6.39v2.17m0-6.38v2.15m0-6.37v2.15m0-6.35v2.13m0-6.35V486m0-6.34v2.11m0-6.31v2.08m0-6.3v2.09m0-6.3v2.07m0-6.28v2.05m0-6.26v2m0-6.25v2m0-6.23v2m6.12-2.5,1.79.15m-.05,130.81v2.45m0-6.68v2.42m0-6.65v2.41" transform="translate(-220.87 -263.8)" fill="none" stroke="#f7f8f9" stroke-miterlimit="10" stroke-width="2"/><path d="M884.89,568v2.4m0-6.63v2.39m0-6.61v2.37m0-6.6v2.34m0-6.57v2.33m0-6.57v2.33m0-6.56v2.32m0-6.55v2.31m0-6.54v2.3m0-6.53v2.28m0-6.51V528m0-6.49v2.25m0-6.48v2.24m0-6.46v2.22m0-6.45V511m0-6.43v2.19m0-6.42v2.18m0-6.41v2.17m0-6.4V494m0-6.39v2.15m0-6.38v2.14m0-6.37v2.12m0-6.34v2.1m0-6.32v2.08m0-6.31v2.07m0-6.3v2.06m0-6.29v2m0-10.22v1.74M866.21,619.1l7.56,0m0,0,40.67-.19m-40.67-11.15v11.34m0,0v13.62m-77.37-24.9h-9.16m0,0v11m49.44-75.21,24.78-.82m0-.21-61.83,2m69.81-4.52v1.12m-34.34,2.31,1.58,0m-1.61,41.09,0-41.14m-34.7,41.57,0-40.45m2.26,39.23v1.19m-1.56-40.45,1.59,0m-1.62,40.42,0-40.47M740.26,463l19.51-1.47m-45.42,3.44,23.81-1.81m-23.9,82.57.09-80.76m-.13,120.18,0-37.3M693.91,712.6l.07-77.8m-.12,113.38,0-33.4m-.79,0,0,33.4M719,714.05l20.15,1.11m-46-80.35-.08,77.83M719,716.18l20.17,1.12M719,714.05l.07-79.54M719,750l0-33.84m-1.34,33.74,0-33.82m0-2.12.08-79.46M693.1,712.64,717.68,714M401,793.21l9.26,1.06M401.38,619l224.48,1.31m-20.18-2.07-204.3.76M401,792.09v1.12m434.63-173.9v13.88m-209.77-12.9v15.28m0-15.28,209.78-1M571.32,729.8l3.9-.2m-110.75,5.7,75.58-3.89m35.19-17.55v-1.05m-111.7,21.5,76.51-3.91m31.27-1.06,3.9.26M743,618.94l-139.57-.66m0,0L416.8,619m403,.33L750,619m-197.17.78,6.85,0m43.76-.26v-1.26M750,619l-7,0M416.8,619l136.06.78m22.38,93,39.9-1.76m-214,8.42,9.27.64m.18-87.61-.18,87.61m0,0,53.14-2.36M571.34,713l3.9-.18m-110.75,4.9,75.6-3.34m-138.93,6.21,9.27.65m164.81-7.37,39.9-1.77m-204.71,9.14,53.13-2.38m151.58-7.8v1m-214,7.38v1.11m9.27-.47v1.12m53.14-3.48v1.1M575.22,729.6l0-15.74m-111.51-80.6-.16,84.49m1.09-84.48-.17,84.44m-.95,17.64.93-.05m-.9-17.55.92,0M401,792.09l9.26,1.06m53.27-57.8-.1,50.59m1-50.64-.1,50.58M835.64,619.31l-84.3-.39m122.43.21-38.13.18m-63.49-.49-20.81.1m20.81-.1,7,0M549.79,634.48,549.52,803m-9.31-168.63,9.58.13M549.52,803l-9.58-1.08m63.33-182.29,9.46,0m59.58.42-69-.39m78.56.34-9.52,0m30.92-.82,8.65,0m61,.39-69.6-.35m78.29.31-8.69,0m-118.47-.14,9,0m60.32.41-69.36-.37m78.46.32-9.1,0M706,462.5l6.32.42m39.18,299.9,11-.78m-147.41-10,136.38,10.74M624.05,743.06l-8.94.51m0,.27L751.47,754m0,0,11-.75m-11,.75v8.85M868.3,543.38v1.34m0-5.52v.91m0-5.09v2m0-6.19v2m0-6.15v1.94m0-6.12v1.9m0-6.09v1.89m0-6.07V516m0-6.05v1.83m0-6v1.81m0-6v1.78m0-6v1.75m0-5.93v1.72m0-5.9v1.7m0-5.88v1.66m0-5.84v1.64m0-5.81v1.6m0-5.78v1.58m0-5.76v1.54m0-5.72v1.52m0-5.7v1.5m-1.48,82v1.44m0-5.62v1m0-5.19v2.11m0-6.3v2.09m0-6.27v2.06m0-6.24v2m0-6.23v2m0-6.2v2m0-6.19v2m0-6.17v2m0-6.14v1.94m0-6.11v1.9m0-6.1V495m0-6.07v1.86m0-6v1.83m0-6v1.83m0-6v1.79m0-6V474m0-5.95v1.74m0-5.93v1.73m0-5.91v1.71m-31.41-1.6,26-1.92m-26,83.35,0-81.43M1051,316.29v-1.78m0,10.92V323.6m0,6.38v-1.84m0,6.4V332.7m0,6.41v-1.87m0,6.42v-1.87m0,6.44v-1.9m0,6.46v-1.9m0,6.47v-1.93m0,6.48V360m0,6.5v-2m0,6.51v-2m0,6.54v-2m0,6.53v-2m0,6.55v-2m0,6.58v-2m0,6.59v-2m0,6.6v-2.06m0,6.61v-2.06m0,6.63v-2.08m0,6.64V410m0,11.22v-2.12m0,6.69v-2.13m0,6.69v-2.15m0,6.72v-2.17m0,6.74v-2.19m0,6.75v-2.19m0,6.76v-2.21m0,6.77V451m0,6.8v-2.25m0,6.81v-2.25m0,6.82v-2.27m0,6.84v-2.29m0,6.85v-2.29m0,6.86v-2.31" transform="translate(-220.87 -263.8)" fill="none" stroke="#f7f8f9" stroke-miterlimit="10" stroke-width="2"/><path d="M1051,485.16v-2.32m0,6.89V487.4m0,6.89v-2.35m0,6.92v-2.37m0,6.94V501m0,6.95V505.6m0,7v-2.41m0,7V514.7m0,7v-2.44m0,7v-2.46m0,7v-2.47m0,7v-2.48m0,7v-2.48m0,7.06V542m0,7.08v-2.52m0,7.08v-2.53m0,7.1v-2.55m0,7.13v-2.57m0,7.13V564.8m0,7.15v-2.6m0,7.16v-2.6m0,7.18v-2.62m-5-261.53v-1.78m0,6.34v-1.81m0,6.36v-1.82m0,6.37v-1.83m0,6.37V333.3m0,6.4v-1.86m0,6.41v-1.87m0,6.42v-1.88m0,6.44v-1.91m0,6.46V356m0,6.47v-1.93m0,6.49v-1.95m0,6.5v-2m0,6.51v-2m0,6.54v-2m0,6.55v-2m0,6.56v-2m0,6.57v-2m0,6.59v-2.05m0,6.6v-2.06m0,6.61v-2.07m0,34V437.7m0,6.73v-2.19m0,6.75v-2.21m0,6.76v-2.22m0,6.77v-2.23m0,6.79V460.4m0,6.81V465m0,6.82v-2.28m0,6.83V474m0,6.83v-2.29m0,6.86v-2.32m0,6.87v-2.33m0,6.88V492.2m0,6.9v-2.36m0,6.92v-2.37m0,6.93v-2.39m0,6.94v-2.4m0,7v-2.42m0,7v-2.44m0,7V524m0,7v-2.46m0,7v-2.47m0,7v-2.5m0,7v-2.51m0,7.06v-2.51m0,7.08v-2.53m0,7.08v-2.54m0,7.11v-2.56m0,7.11V564.9m0,7.14v-2.6m0,7.15V574m0,7.16v-2.62m1.73-261.82v-1.79m0,6.35v-1.81m0,6.36V324m0,6.38v-1.84m0,6.39v-1.85m0,6.4v-1.85m0,6.41v-1.87m0,6.43v-1.89m0,6.45v-1.91m0,6.46v-1.92m0,6.47v-1.93m0,6.49v-1.95m0,6.51v-2m0,6.52v-2m0,6.54v-2m0,6.54v-2m0,6.56v-2m0,6.57v-2m0,6.58v-2m0,6.61v-2.07m0,6.62v-2.07m0,6.63V410.3m0,6.65v-2.11m0,6.66v-2.12m0,6.69v-2.13m0,6.68v-2.14m0,6.7V433m0,6.72v-2.18m0,6.74v-2.19m0,6.75v-2.21m0,6.76v-2.22m0,6.79v-2.23m0,6.78v-2.24m0,6.81v-2.27m0,6.82v-2.27m0,6.84v-2.3m0,6.85v-2.31m0,6.88V483m0,6.87v-2.33m0,6.9v-2.35m0,6.9v-2.36m0,6.93V501.2m0,6.94v-2.39m0,6.94V510.3m0,7v-2.42m0,7v-2.44m0,7v-2.45m0,7v-2.45m0,7V533m0,7v-2.48m0,7v-2.51m0,7.07v-2.52m0,7.08v-2.53m0,7.09v-2.54m0,7.11v-2.56m0,7.12v-2.58m0,7.14,0-2.58m0,7.14V574m0,7.17v-2.62m46.59-267.89v-1.84m0,6.48v-1.84m0,6.49v-1.86m0,6.51v-1.87m0,6.53v-1.9m0,6.54V332m0,6.55V336.6m0,6.56v-1.93m0,6.59v-1.95m0,6.6v-2m0,6.61v-2m0,6.62v-2m0,6.64v-2m0,6.66v-2m0,6.67v-2m0,6.69v-2.05m0,6.7V383m0,6.71V387.6m0,6.72v-2.08m0,6.74,0-2.1m0,6.75v-2.12m0,6.77v-2.13m0,6.78v-2.14m0,11.45v-2.17m0,6.82V424.7m0,6.85v-2.21m0,6.86V434m0,6.87v-2.23m0,6.89v-2.25m0,6.9V447.9m0,6.91v-2.27m0,6.94v-2.3m0,6.95v-2.31m0,7v-2.32m0,7V471.1m0,7v-2.36m0,7v-2.37m0,7V485m0,7.05v-2.41m0,7.06v-2.4m0,7.06V499m0,7.07v-2.43m0,7.08v-2.44m0,7.11v-2.47m0,7.12v-2.48m0,7.13v-2.49m0,7.15v-2.51m0,7.17v-2.53m0,7.19v-2.55m0,7.2v-2.56m0,7.22v-2.57m0,7.23V550m0,7.23v-2.59m0,7.26v-2.62m0,7.27v-2.63m0,7.28v-2.63m0,7.3v-2.66m0,7.31v-2.67m-5.09-266.59v-1.82m0,6.46v-1.85m0,6.49v-1.86m0,6.5v-1.87m0,6.51V328m0,6.52v-1.91m0,6.54v-1.91m0,6.55v-1.92" transform="translate(-220.87 -263.8)" fill="none" stroke="#f7f8f9" stroke-miterlimit="10" stroke-width="2"/><path d="M1089.52,348.38v-1.94m0,6.58v-1.95m0,6.59v-2m0,6.6v-2m0,6.63v-2m0,6.65v-2m0,6.66v-2m0,6.67v-2m0,6.69v-2.06m0,6.7v-2.08m0,6.72v-2.09m0,6.73v-2.1m0,6.74V402m0,6.75V406.6m0,6.77v-2.14m0,11.42v-2.17m0,6.81v-2.18m0,6.82v-2.19m0,6.83v-2.2m0,6.86V439m0,6.88v-2.25m0,6.89v-2.26m0,6.9v-2.27m0,6.92v-2.29m0,6.93v-2.31m0,6.95v-2.31m0,7V471.4m0,7V476m0,7v-2.36m0,7v-2.38m0,7v-2.39m0,7v-2.39m0,7v-2.42m0,7.06v-2.43m0,7.09v-2.46m0,7.1v-2.46m0,7.11v-2.48m0,7.12v-2.49m0,7.13V527m0,7.15v-2.52m0,7.16v-2.54m0,7.19v-2.56m0,7.2V545.5m0,7.21v-2.58m0,7.24v-2.6m0,7.24V559.4m0,7.26,0-2.63m0,7.27v-2.63m0,7.28V573.3m0,7.29v-2.65M1091.36,311V309.2m0,6.47v-1.85m0,6.49v-1.86m0,6.5v-1.87m0,6.51v-1.88m0,6.53v-1.9m0,6.55V337m0,6.55V341.6m0,6.58v-1.95m0,6.59v-2m0,6.6v-2m0,6.61v-2m0,6.63v-2m0,6.64v-2m0,6.64v-2m0,6.68v-2.05m0,6.69v-2.06m0,6.71V387.9m0,6.72v-2.08m0,6.72v-2.09m0,6.75v-2.13m0,6.77v-2.12m0,6.77v-2.15m0,6.79v-2.16m0,6.81v-2.18m0,6.82,0-2.18m0,6.84v-2.21m0,6.85v-2.22m0,6.87v-2.23m0,6.87v-2.25m0,6.9v-2.25m0,6.89v-2.27m0,6.93v-2.3m0,6.95V462m0,7v-2.32m0,7v-2.33m0,7v-2.34m0,7v-2.36m0,7v-2.38m0,7v-2.38m0,7v-2.4m0,7.06V499.1m0,7.07v-2.45m0,7.09v-2.44m0,7.09V513m0,7.13v-2.49m0,7.13v-2.49m0,7.14V526.9m0,7.16v-2.52m0,7.18v-2.55m0,7.2v-2.56m0,7.2v-2.56m0,7.21v-2.58m0,7.24v-2.6m0,7.25v-2.61m0,7.26V564m0,7.28v-2.64m0,7.3v-2.66m0,7.31v-2.67m45.61-272.86v-1.87m0,6.6v-1.87m0,6.61v-1.89m0,6.63v-1.91m0,6.64v-1.92m0,6.66V326.8m0,6.67v-2m0,6.69v-2m0,6.7v-2m0,6.72v-2m0,6.74v-2m0,6.75v-2m0,6.76v-2m0,6.77v-2.06m0,6.8V369.3m0,6.81V374m0,6.83v-2.1m0,6.84,0-2.11m0,6.85v-2.13m0,6.87v-2.15m0,6.89v-2.16m0,6.9v-2.17m0,6.91v-2.2m0,6.94v-2.21m0,6.95v-2.22m0,6.95v-2.23m0,7V426m0,7v-2.26m0,7v-2.27m0,7v-2.28m0,7v-2.31m0,7.05v-2.32m0,7.06v-2.33m0,7.07v-2.34m0,7.09v-2.37m0,7.11v-2.38m0,7.12v-2.39m0,7.13V478m0,7.15v-2.44m0,7.18v-2.45m0,7.19v-2.46m0,7.2v-2.47m0,7.21,0-2.49m0,7.24v-2.51m0,7.25v-2.52m0,7.26v-2.53m0,7.27v-2.54m0,7.28v-2.56m0,7.31V530m0,7.32V534.7m0,7.33v-2.59m0,7.35v-2.62m0,7.36V548.9m0,7.37v-2.65m0,7.39v-2.66m0,7.41v-2.68m0,7.42v-2.69m0,7.43v-2.71m0,7.46v-2.72M1132,305.72v-1.86m0,6.57v-1.87m0,6.6v-1.89m0,6.62V318m0,6.63v-1.92m0,6.65v-1.93m0,6.66v-2m0,6.68v-2m0,6.68v-2m0,6.7v-2m0,6.71v-2m0,6.74v-2m0,6.74,0-2m0,6.76v-2m0,6.77v-2.06m0,6.79v-2.09m0,6.82v-2.1m0,6.82V384m0,6.83v-2.12m0,6.85v-2.13m0,6.86V398.1m0,6.88v-2.17m0,6.89v-2.18m0,6.92v-2.2m0,6.93V417m0,6.95v-2.23m0,7v-2.25m0,7V431.1m0,7v-2.27m0,7v-2.28m0,7v-2.31m0,7V450" transform="translate(-220.87 -263.8)" fill="none" stroke="#f7f8f9" stroke-miterlimit="10" stroke-width="2"/><path d="M1132.09,457v-2.34m0,7.07v-2.35m0,7.07v-2.35m0,7.09v-2.38m0,7.11v-2.39m0,7.12v-2.41m0,7.14,0-2.42m0,7.16v-2.44m0,7.17v-2.45m0,7.17v-2.45m0,7.19v-2.48m0,7.21v-2.49m0,7.23v-2.52m0,7.25V516m0,7.25v-2.53m0,7.27v-2.56m0,7.29v-2.57m0,7.31v-2.6m0,7.32v-2.59m0,7.32V544.3m0,7.35V549m0,7.36v-2.63m0,7.37v-2.66m0,7.39v-2.67m0,7.41v-2.68m0,7.41v-2.7m0,7.44v-2.72m1.79-271.89v-1.86m0,6.6v-1.88m0,6.61V313m0,6.62v-1.91m0,6.64v-1.92m0,6.65v-1.94m0,6.66v-1.94m0,6.68v-2m0,6.7v-2m0,6.71,0-2m0,6.73v-2m0,6.75v-2m0,6.77v-2.05m0,6.77v-2m0,6.77v-2.06m0,6.8v-2.08m0,6.81v-2.1m0,6.83v-2.11m0,6.85v-2.14m0,6.87V393.2m0,6.87v-2.14m0,6.88v-2.17m0,6.9v-2.18m0,6.92v-2.21m0,6.94v-2.22m0,6.95v-2.22m0,7v-2.25m0,7V431m0,7v-2.27m0,7v-2.28m0,7v-2.3m0,7v-2.32m0,7.06v-2.33m0,7.06v-2.34m0,7.08V464m0,7.1v-2.38m0,7.11v-2.4m0,7.14v-2.41m0,7.14v-2.42m0,7.16V487.6m0,7.17v-2.46m0,7.19V497m0,7.21v-2.49m0,7.21v-2.49m0,7.23v-2.5m0,7.25v-2.54m0,7.28v-2.55m0,7.27v-2.55m0,7.29v-2.57m0,7.31v-2.58m0,7.32v-2.6m0,7.33v-2.61m0,7.35V549m0,7.37V553.7m0,7.38v-2.65m0,7.38v-2.67m0,7.41v-2.68m0,7.42v-2.71m0,7.45v-2.72M999.6,723.5V610.06M957.73,764.51l41.87,3m-43.44-46.27V610.06M915.92,761.5l40.24,2.89m1.58-40.79v40.91M999.6,610.06H957.75M914.39,763.62l87,6.35m-85.41-48.58V761.5m41.82-40.17,41.86,2.17m-83.67-4.34,40.23,2.1m45.08-111.2V723.59M957.75,610.06V721.33m0,2.27,41.86,2.22M916,610.05l0,109.11m40.23,45.12-39.48-2.84m82.92,6-41.1-3m-41.81-45.32,0-109.07m-.05,151.39v-40M833.35,865.9l17.95-2.22m-17.95,8.53V865.9M291.51,797.39,833.35,865.9M291.5,802l541.85,70.19m.29-7.12,11.22-1.39M296.31,797.36l537.33,67.73M306.71,796.62l-10.4.74M844.86,863.7,306.71,796.62M679,713.56l0,33.53m6.51-139.17h-6.35m6.23,106,0,33.63m6.48-33.94-6.44.31m0,0-6.36-.36m0-1v1m6.36-.7v1.06m0-1.06-6.36-.35m12.8.06-6.44.29m.08-78-.08,78m101.75,5.84,0,42.82m-8-153.68h-7m6.91,111.26,0,43m8.19-154.26h-8.07m8,109.76-8.08.41m0,0-7-.38m15.14-83.9-.06,83.87m-8-83.78L779.07,718m.09-110.17,0,11m8,99.85-8.07.41m0,0-7-.39m15.08-1.12v1.1m-8.07-.69v1.1M291.71,795,401,787.27m-115.93,6.91,6.62.83M615.18,685l63.89-2.1M292,695.57,401.23,692m-115.9,3.2,6.63.39m109.27-4.17-115.9,3.78m393.74-12.83-63.89,2.08M292,695.57,291.71,795m916.85,43.87v-1.37m5.85,2.39V838m6.31,2.86v-2.44m6.68,3.28v-3m6.91,3.67V839m7,4v-3.9m7,4.34V839.1m6.87,4.59V839m6.6,4.78v-5m6.2,4.92v-5.19m5.7,5v-5.36m5.1,5v-5.45m4.4,4.94v-5.48m-4.27-.41L1574.74,791m-299.88,46.3,4.06-.49m-8.64.9,4.58-.41m-9.7.73,5.12-.32m-10.69.57,5.57-.25m-11.49.41,5.92-.16m-12.08.23,6.16-.07m-12.46,0,6.3,0m-12.6-.14,6.3.11m-12.51-.31,6.21.2m-12.2-.49,6,.29m-11.67-.66,5.68.37m-11.08-.82,5.4.45M1187,834.73l24.66,2.33m258.54-42.53,79.48-10.23M1278.8,837.76l4.39-.54m-9.48,1,5.09-.45m-10.79.82,5.7-.37m-11.9.64,6.2-.27m-12.8.45,6.6-.18m-13.47.25,6.87-.07m-13.88.05,7,0m-14-.15,7,.13m-13.94-.35,6.91.22m-13.59-.54,6.68.32m-13-.74,6.31.42m-12.15-.9,5.84.48m-5.84-.48-14.1-1.34" transform="translate(-220.87 -263.8)" fill="none" stroke="#f7f8f9" stroke-miterlimit="10" stroke-width="2"/><path d="M1283.2,842.7l-208,29.84m139.23-32.64-5.85-1m12.15,2-6.3-1m13,1.79-6.68-.84m13.59,1.55-6.91-.71m13.94,1.29-7-.58m14,1-7-.44m13.88.71-6.86-.27m13.46.39-6.6-.12m12.8.08-6.2,0m11.9-.24-5.7.2m10.8-.56-5.1.36m9.49-.87-4.39.51m10.1-235.57h-11.7m247.44.33,45.51,0m0,0,0-20.66m-281.21,20.35,0-24.4m23.73-.25-23.73.25m23.75,24.39,0-24.64m0,24.64h-23.72m-266.8-317.37,152.53-22m-152.53,46.38,152.54-20.32m-149.36,20.81-3.18-.49m34.81,5.44-5.92-.92m22.08,3.45-6.49-1m22.88,3.58-6.63-1m91.81-29.81V268.28m-152.53,46.38V290.27m4.82,488.13,0-170.75m230.7-229.28-44.77-6.28m58.18,448-13,1.67m-44.82,5.77-13.93,1.79m-.41-564.57,71.62,14.44m-28.92,100.65,16-1.51m-83-110.09,24.22-3.49m113.49,96.65,0,24.6m257.39,36.08,0-20.64m-257.39-40-39.26,3.89m0,24.21,0-24.21m39.3,20.71-39.27,3.5m287.39,197.59,9.61.16m-9.95-166.52,9.61,1.35m0,0,.34,165.17m-9.95-166.52.34,166.36M1312.61,583l13.47.22M1312.39,386l13.46,1.88M1312.39,386l.22,197m-39.49-193.45,0,21.09M1270.63,435l18.1,1.94m0,0-7.81.55m7.81-.55,0-24.38M1477.25,607.9h-3.18m.27,149.59,3.16-.32m-3.16.32-.27-149.59m-3.67,0h3.67m-3.42,149.39,3.69.2m23.4-45-.18-101.43m.25,140.14-.06-35.47m-20.26,37.51,20.32-2m-20.31,5.37,22.75-2.34m-.27-146.3-22.73,0m.24,145.49,21.23-2.13m-.91,0,.91,0m-.06-35.58v-3.14m0,0-21.23,1.54m20.31-1.58.92,0m-30.52,41.65-10.15,1M1468.07,718l.07,36.21m-.24-143.1.17,103.58m2.58,42.61-12.64,1.3m12.64-1.3-.25-149.38m-12.65,0,12.65,0m-1.34,146.34L1458,755.35m10.15-1.16.92,0m-.07-39.53v3.19m-11.07-2.39,11.06-.8m-.92,0,.92,0m-140.71-107h-3.86m.2,165.22,3.86-.4m-3.86.4-.2-165.22m-3.84,0h3.84m-3.65,165,3.85.25M1353.93,723l-.14-111.77m.19,154.43,0-39.09m-25.46,41.65,25.51-2.56m-25.5,6.24L1356.8,769m-.22-161.22-28.3,0m.19,160.64,26.47-2.67m-1-.05,1,.05m0-39.2V723m0,0L1328.42,725m25.51-2,1,0m-37,46.24-15.24,1.54m15.2-41.53,0,40m-.18-158,.14,114.38m2.94,47.06-18.14,1.87m18.14-1.87-.19-165m-18.13,0,18.13,0m-1.75,161.62-16.2,1.64m15.24-1.7,1,.06m0-43.66v3.53m-16.2-2.35,16.2-1.18m-1,0,1,0M1044.55,583.06l130.29-1.54m-130.29,26.11,130.31-.12m-130.31.12V583.06m-1.62-172,3.16.34m-20.8-96.2v94m0-94,17.63-2.34M1271,817.6v2.53m136.49-19.87L1271,817.6m278.61-35.39-79.46,10.09m-32.35-207.22,122.69,2m-123-183.55,122.64,17.19m-141.79-15.69,19.15-1.5m0,0,.29,181.5m-36.74-131.59v-2.23m16.06-1,1.32-.08m-17.19,134.27V583.2m-.54-129.59.19,129.58M1379.21,449l1.19.13m-30.52-3.21,1.24.12M1285,581.47v1.71m0-4.38-3.9.05M1285,577v1.81m-14.2-.27,14.2.27m0-4.48-3.9,0m3.9-1.87v1.82m-14.2-.31,14.2.31m0-4.48-3.89.06M1285,568v1.82m-14.2-.35,14.2.35m0-4.49-3.91.07m3.91-1.88v1.81m-14.2-.39,14.2.39m0-4.48-3.91.08m3.89-1.89,0,1.81m-14.2-.42,14.2.42m0-4.48-3.89.09m3.89-1.9v1.81m-14.19-.46,14.19.46m0-4.48-3.9.09m3.9-1.91v1.82m-14.19-.51,14.19.51m0-4.47-3.89.1m3.89-1.93v1.83m-14.19-.55,14.19.55m0-4.48-3.9.1m3.9-1.92V543m-14.19-.59,14.19.59m0-4.49-3.9.11m3.89-1.92v1.81m-14.19-.61,14.19.61m0-4.48-3.89.12m3.89-1.93V534m-14.19-.66,14.19.66m0-4.48-3.9.12m3.9-1.93v1.81m-14.19-.7,14.19.7m0-4.48-3.89.14m3.89-1.95V525m-14.18-.73,14.18.73m0-4.48-3.9.14m3.9-2v1.81m-14.2-.77,14.2.77m0-4.48-3.9.15m3.9-2v1.82m-14.2-.82,14.2.82m0-4.47-3.89.15" transform="translate(-220.87 -263.8)" fill="none" stroke="#f7f8f9" stroke-miterlimit="10" stroke-width="2"/><path d="M1284.9,509.77v1.83m-14.2-.86,14.2.86m0-4.48-3.91.16m3.91-2v1.82m-14.2-.9,14.2.9m0-4.48-3.91.16m3.89-2,0,1.82m-14.2-.94,14.2.94m0-4.48-3.89.18m3.89-2v1.82m-14.19-1,14.19,1m0-4.48-3.9.18m3.9-2v1.82m-14.19-1,14.19,1m0-4.48-3.89.19m3.89-2v1.82m-14.18-1.06,14.18,1.06m0-4.47-3.9.18m3.9-2v1.83m-14.19-1.1,14.19,1.1m0-4.48-3.9.2m3.89-2v1.82m-14.19-1.14,14.19,1.14m0-4.48L1281,476m3.89-2v1.82m-14.18-1.17,14.18,1.17m0-4.48-3.9.21m3.9-2v1.82m-14.19-1.21,14.19,1.21m0-4.48L1281,467m3.89-2.05v1.82m-14.18-1.25,14.18,1.25m0-4.48-3.89.23m3.89-2.05v1.82m-14.2-1.28,14.2,1.28m0-4.47-3.9.23m3.9-2.06v1.83m-14.2-1.34,14.2,1.34m0-4.48-3.89.25m3.89-2.06v1.81M1270.65,452l14.19,1.37m0-4.48-3.91.25m3.91-2.06v1.81m-14.2-1.41,14.2,1.41m0-4.48-3.91.26m3.89-2.07,0,1.81m-14.2-1.45,14.2,1.45m0-4.48-3.89.28m3.89-2.09v1.81m-14.18-1.48,14.18,1.48m-7.61,167.71h-6.41m-29.24-227.77-28.72-4M1240.5,813l-27.31,3.33m28.27-3.54-1,.11m.77-202.78.19,202.67m-9.93-182.29-3,0m0,2.55v-2.55m7,0-2.94,0m.13,163.73-.13-163.73m.13,163.73,3-.32m0,0-.15-163.44m0,0-4,0m1.18,163.8-4-.31m1.86-160.87-2,0m.13,158.34,2,.17m0-.38-2,.21m0,2.56v-2.56m42.1-183.78h18.11M1022.16,805.75l0-198.11m4.77,0h-4.77M285.06,801.09l6.44.84m-6.41-7.75,0,6.91m6.65-6.08v2.35m1283-16.2L1550,784.33m24.62-32.06L1550,754.91m-25-5.2,49.71,2.56M1550,754.91l-25-1.32m25,1.32.06,29.42m-2.68-30,18.92-2m-41.33.83,22.41,1.18m18.92-2-41.33-2.13M833.35,865.9,850,868m0,0v6.36m160.17-30.31,16.58,1.76m0,0L850,868m-10.18-2.15,10.42,1.32m160.16-22.45L839.85,865.86m180.95-20-10.37-1.11M850.27,867.18l170.53-21.34M221,769.66l64.15-3.82m995.77-328.39-1.36-.15m0,0-1.57.11m-2.31,4.25v-2m0,6.5v-2m0,6.52v-2m0,6.53v-2.05m0,6.56v-2.07m0,6.57v-2.1m0,6.6v-2.1m0,6.61v-2.14m0,6.64v-2.15m0,6.65V480m0,6.66,0-2.19m0,6.69V489m0,6.7v-2.22m0,6.73V498m0,6.74v-2.25m0,6.75v-2.27m0,6.78v-2.29m0,6.79v-2.3m0,6.82V520.4m0,6.84v-2.35m0,6.85v-2.35m0,6.86v-2.39m0,6.89v-2.4m0,6.9v-2.41m0,6.93v-2.43m0,6.93v-2.46m0,7v-2.47m0,7V560.8m0,7v-2.49m0,7v-2.53m0,7v-2.54m0,7v-2.55m3.76-136.69v-2m0,6.48v-2m0,6.49v-2m0,6.54v-2.06m0,6.55V458m0,6.56v-2.1m0,6.59v-2.11m0,6.6v-2.12m0,6.61v-2.13m0,6.62v-2.16m0,6.65v-2.17m0,6.68v-2.2m0,6.69v-2.22m0,6.71v-2.23m0,6.72v-2.25m0,6.74v-2.26m0,6.76v-2.28m0,6.78v-2.31m0,6.8v-2.32m0,6.81v-2.34m0,6.84v-2.36m0,6.85v-2.37m0,6.86v-2.38m0,6.88V543m0,6.9v-2.44m0,6.93V552m0,6.95v-2.47m0,7v-2.48m0,7v-2.49m0,7v-2.51m0,7v-2.54m0,7v-2.56m1.23-136.61v-2m0,6.47v-2m0,6.5,0-2m0,6.52v-2m0,6.53v-2.07m0,6.56v-2.09m0,6.57V467m0,6.58V471.5m0,6.61V476m0,6.63v-2.16m0,6.65v-2.19m0,6.68v-2.2m0,6.68v-2.21m0,6.7v-2.22m0,6.71V502.8m0,6.74,0-2.26m0,6.75v-2.28m0,6.77v-2.3m0,6.79v-2.32m0,6.81v-2.33m0,6.82v-2.36m0,6.85v-2.37m0,6.86v-2.39m0,6.88v-2.4m0,6.9v-2.42m0,6.91V552m0,6.94v-2.46m0,6.95V561m0,7v-2.5m0,7V569.9m0,7v-2.53m0,7v-2.54m7.84,28.79,13.54,0m.18,168.31v1.21m-13.54.19v1.22m-11.71-2,11.71.79m0,0,13.54-1.4m-13.72-167.11.18,168.51m-.18-168.51h13.54m-25.24,0h11.7m0-1.22v1.22m82.94-1.11h12.2m-27.47,0h15.27m12.42,159.76v1.15" transform="translate(-220.87 -263.8)" fill="none" stroke="#f7f8f9" stroke-miterlimit="10" stroke-width="2"/><path d="M1372.07,768.77v1.16m-15.29-2.11,15.28.95m0,0,12.2-1.26M1371.86,608.9l.21,159.87m-.21-159.87h12.19m-27.47,0h15.28m0-1.15v1.15m74.85-1.06h11m-26,0h15m11.3,152V761m-11,0v1.11m-15-2,15,.86m0,0,11-1.13m-11.29-150.94L1447,761m-.24-152.07h11m-26,0h15m0-1.1v1.1m67.89-1,10,0m-24.67,0,14.63,0m.28,146.06v1m-14.64-1.83,14.64.78m0,0,10-1m-10.3-144,.26,145m-.26-145h10M1500,609h14.65m0-1.05,0,1.05M1407.9,802.62l0-7m62.29-1-62.27,8m0-7,62.28-7.71m-85.86,6,23.58,1.68m22.27-145v3.3M1417.44,651l12.71-.35m-.93,0h.93m-.93,3.32.2,128.29m-.26-171.09.06,39.47m.2,131.62-9.91,1.16m12.52,2-12.52,1.49M1417.44,651l-.06-39.82m12,171.08.93.06m0,0-10.84,1.27m-35.28-128.27v-3.39M1400.4,786l-.2-131.06M1388.09,787.4,1400.4,786m0,0,.94.07m1.56-134.57-16.78.46m16.78-.46.19,137.73m-18.87-137.29,1.9,0m0,0,.19,139.27m15-5.16-.2-131.17M1384.42,791l1.89.14M1401,651.42l1.89,0m-16.59,139.73,16.78-2m-15-1.61,13.25-1.55m15.33-131.63.19,129.64m0,0-12,1.41m-1.93-134,16.4-.45m-1.7,3.37.19,129.72M1417.44,651l1.86,0m-2.44,133,.93.06m1.72,3.13-16.42,2m14.7-5.09-13,1.52m10.9-134.6-.07-39.85m-.87,39.84h.94m-.94,0-28.78.8m28.72-40.64.06,39.84M1270.53,332.34,1386.72,352m-385.4-58.74,20.79-3M1386.74,373l0-21m-315.4,65.39,10.92,1.14M1051,415.27l7.37.77m-338.8-7.25-2.89-.26m0,0,284.62-30m-284.62,30v-2.09m254.41,4.12V381.84m0,0,1.19.13m-34,31.61v-28.3m0,0,1.2.14m-33,31.08,0-27.88m0,0,1.19.14m-32.07,30.59V391.88m0,0,1.2.12m-31.17,30.1V395m0,0,1.2.12m-30.32,29.64,0-26.7m0,0,1.2.12m-29.52,29.17,0-26.31m0,0,1.19.11m-28.71,28.73V404m0,0,1.2.11m-28,28.29,0-25.59m0,0,1.19.1m237-24.91,29-3.05m-61.77,6.5,30.74-3.24m-62.53,6.58,29.78-3.13M876.9,392l28.88-3m-58.84,6.18,28-2.95m-57.1,6L845,395.36m-55.47,5.82,26.38-2.77M762,404.08l25.61-2.7m-52.36,5.5,24.88-2.6m-40.58,4.26,13.85-1.46m186.34-43.15L809.67,376.75m183-3.81-72.85-9m0-16-110.1,13.64m183-4.06L919.78,348m0,0v16m-110.1-2.34v15.16m183-19.22v15.41m-72.85-9v20.9m-110.1-8.08v19.79m183-23.6v4.14M986.22,376v1.75m-26-4.91v7.68m26-4.52-26-3.16m20.94,5.46-19-2.29m0,.16,18.29,2.19m114.75-49.49,22.32-2.74m-22.32,7.64v-1.91m0,6.57v-1.92m0,6.56v-1.92m0,6.57v-2m0,6.6v-2m0,6.62v-2m0,6.63v-2m0,6.63v-2m0,6.67v-2m0,6.68v-2m0,6.69v-2.05m0,6.7V382.9m0,6.71v-2.07m0,6.72v-2.1m0,6.75v-2.1m0,6.76v-2.12m0,6.77,0-2.13m0,6.78v-2.14m0,6.72v-2.08m230.61-18.94L1401,406.56m17.37-1.36L1401,406.56m0,0,.06,44.7m-130.5-85.68,2.52-.25m-723.58,445-75.85,6.45m378.71-20v4.5m531.95-2.66,0-4.6m-23.71-24.74-32.11,3.31m175.42-18.09-26.4,2.72M1007.41,582.53,1043,583m-35.54,24.55-28,0m-220.33-22-46.93.59m277.57-3.42-103,1.26m92.69,23.75h21.92m-122.1,0,35.2,0m-47.45,0h6.78m170.78-.16-37,0M759.21,430.06l-25.14,2.31m25.13,19.9-93.49,7.53m324-26.12L759.2,452.27m248.2-45-6.08.56M855.23,763.46l-68.13,5.1m66,27.59L759,787.57m94.81-.7-84.94-7.36M856,777.88l-77.34-6.35m102.65,13v2M873.7,774l-7.55-.59m-108,11.85,0-21.68m-19.05-46.3,0,34.21m.1-117.23-.07,80.88m-295.38,72.2,19.67-1.42m654.08-461.45v1.65m0,89.44-22.33,1.87m-262,127.12v1.26m0-87.06,0,82.52m0-83.6v1.08M799.62,544.6l0,40.48m0-41.56v1.08m-61.54.3.08-81.77m-23.94,122,23.83-.31M714.26,545.7l23.82-.8M669,460l37,2.47m-40.26-2.7L669,460M443.77,787.36l96.17,10.44M431.44,786l12.33,1.34m-33.48.17L539.94,801.9m5.45,7.93L410.27,794.27m139.24,16-4.12-.47m497.54-374.25v1.83m3.16-2.1-3.16.25m131.79-39.15-37.61,3.39m0,2.57,37.61-3.36m0-7.42-37.61,3.47m0,2.58,37.61-3.42m0-7.44-37.6,3.54m0,2.59,37.6-3.49m0-7.46-37.6,3.62m0,2.61,37.6-3.57m0-7.48-37.62,3.7m0,2.63,37.62-3.66m0-7.48-37.62,3.78m0,2.63,37.62-3.73m0-7.48-37.61,3.84m0,2.64,37.61-3.79" transform="translate(-220.87 -263.8)" fill="none" stroke="#f7f8f9" stroke-miterlimit="10" stroke-width="2"/><path d="M1174.7,362.71l-37.61,3.92m0,2.67,37.61-3.88m0-7.52-37.61,4m0,2.68,37.61-3.95m0-7.54-37.62,4.07m0,2.71,37.62-4.05m0-7.54-37.61,4.15m0,2.71,37.61-4.11m0-7.57-37.61,4.23m0,2.72,37.61-4.18m0-7.58-37.61,4.3m0,2.74,37.61-4.26m0-7.6-37.6,4.38m0,2.76,37.61-4.33m0-7.62-37.61,4.46m0,2.77,37.61-4.42m0-7.62-37.61,4.53m0,2.78,37.61-4.48m0-7.64-37.61,4.6m0,2.81,37.61-4.57m0-7.66-37.59,4.69m0,2.81,37.61-4.64m0-7.67-37.59,4.76m0,2.83,37.59-4.71m0-7.69-37.6,4.83m0,2.85,37.6-4.79m0-7.7-37.6,4.91m0,2.86,37.6-4.86m-37.6.13,37.6-4.94M850.45,607.8h15.77m18.67-24.66,1.84,0m-1.84-2.42,1.84,0m-1.84-1.79,1.84,0m-1.84-2.4,1.84,0m-1.84-1.8,1.84,0m-1.84-2.39,1.84,0m-1.84-1.8,1.84,0M884.89,568l1.84,0m-1.82-1.81,1.82,0m-1.82-2.35,1.82,0m-1.82-1.82,1.83,0m-1.83-2.32,1.83,0m-1.83-1.84,1.83,0m-1.83-2.3,1.83,0m-1.83-1.85,1.83,0m-1.83-2.28,1.83-.06m-1.83-1.85,1.83,0m-1.83-2.28,1.83-.05m-1.83-1.86,1.83-.06m-17.31-1.45-1.13,0m16.61-.77,1.83-.05m-1.83-1.87,1.83-.07m-17.31-1.38-1.13,0m16.61-.82,1.83-.06m-1.83-1.87,1.83-.08m-17.31-1.31-1.12,0m16.61-.87,1.82-.06m-1.82-1.89,1.83-.07m-17.31-1.25-1.13,0m16.61-.92,1.83-.06M884.92,528l1.83-.06m-17.31-1.19-1.13,0m16.61-1,1.83-.07m-1.83-1.91,1.83-.08m-17.31-1.11-1.13,0m16.61-1,1.83-.07m-1.83-1.92,1.83-.08m-17.31-1-1.13,0m16.61-1.07,1.83-.07m-1.83-1.93,1.83-.09m-17.31-1-1.13-.06M884.92,513l1.83-.09M884.92,511l1.83-.08m-17.31-.9-1.13-.06m16.61-1.16,1.83-.09m-1.83-1.95,1.83-.08m-17.29-.84-1.14-.06m16.61-1.21,1.82-.09m-1.82-2,1.82-.1m-17.29-.76-1.14-.06m16.61-1.26,1.84-.1m-1.84-2,1.84-.1m-17.31-.7-1.14-.06m16.61-1.31,1.84-.1m-1.84-2,1.84-.1m-17.31-.64-1.14-.06m16.61-1.36,1.84-.1m-1.84-2,1.84-.11m-17.31-.57-1.14-.06m16.61-1.41,1.84-.1m-1.84-2,1.84-.12m-17.31-.49-1.14-.07m16.61-1.46,1.84-.11m-1.84-2,1.84-.11m-17.31-.42-1.13-.08m16.6-1.51,1.84-.11m-1.84-2,1.84-.11m-17.3-.36-1.14-.07m16.6-1.56,1.84-.12m-1.83-2,1.83-.12m-17.3-.29-1.14-.07m16.61-1.6,1.83-.13m-1.83-2,1.84-.12m-17.31-.23-1.14-.07m16.61-1.65,1.84-.12m-1.84-2.05,1.84-.12M869.47,464l-1.14-.07m16.61-1.7,1.84-.14m-1.84-2,1.84-.13m-17.31-.1-1.14-.07M884.94,458l1.84-.13m-1.84-2.06,1.84-.14m-22-.37-3.26-.25m8,.61-4.71-.36m20.18-1.53,1.84-.13m-1.84-2.07,1.84-.14m-3.63-1.75,3.63-.27M759.66,584.54v1m.11-126.19v2m0-3.06v.94M869.42,581v2m0-39.58v1.27m15.51-90.86v2M868.28,583h1.14m-36.19.46h1.11m0-37.66-1.11,0m36.18-1.14-1.13,0m-35-1,1.11,0m35.07-3.6-1.13,0m-34,44.55v-1.21m2.33-39.84v2.1m-34-1v2.09M691.83,713.61,691.78,748m2.11-33.25,23.79,1.32m69.53-82.37,48.42-.54m-209.78,2.38-10.6-.15m166.27-15.93,38.25-.18m-216.5.74,25.12.15m-68.68-.4,43.56.25m.2-.51-50.61.22M743,618.94l-139.57.6M750,619l-38.15.16M615.18,685l0,26.09M401.23,692l-.07,27.49m62.38,14.84v1m0-16.5,0,15.46m-53.11-13.08-.14,66.3M873.76,632.75l-7.55.09m-79-14-8.09,0m17.24-.07-9.15,0M539.94,801.9v-4.1m114.42-178,27.47.15m-69.1-.37,41.63.22m95.67-.46,31.49.15m-69.64-.35,38.15.2m-46.8.22,29.59.15m-69.42-.36,39.83.21m59.28,133.66-23.39-1.71m23.39,1.71v7.61m288.49-440v-1.68m0,97.5v-1.41m43.52,2.24v-2.08m-5,2.49v-2.07M956.17,610.06H916.73m84.51,115.86v41.62m-84.55-46.1,39.47,2.1M999.6,767.4V725.82m-43.44,38.46V723.53M291.71,797.36l16.42-1.17m-16.63,5.74v-4.54m397.62,46.14L851.3,863.68M679.07,682.86l0,29.65m.13-104.57,0,10.63m-394,147.27-.06,28.34m.24-99-.18,70.66m890,66.62,24.11-3.1m-144.36,25.25-28.14-3.06M850,874.37l226.1-1.83V856.18h-6.86l-14.35-1.57M285.06,801.09,221,792.8M1391.14,607.73l-78.51-.1m257.53.32-179-.22m-364.23-.08,17.64,0M1258,814.14l-.41-435.77m-58.34,448.35-.41-561.93M1175,821.9v-1.51M1386.74,373l-74.39-11.58m257.39,40-183-28.46m-113.6,37.61,15.56,1.89m-18.1-2.19,2.54.3m227.11,343.61v-1m-2.69-142.13-20.31,0m21.21,0h-.9m1.1,101.47-.2-101.47m-.71,104.67.91-.06m-21.23,1.6,20.32-1.54M1469,717.9l.06,36.34m-1.16-143.15h.92m-11.07,0,10.15,0m.17,106.89-10.14.76" transform="translate(-220.87 -263.8)" fill="none" stroke="#f7f8f9" stroke-miterlimit="10" stroke-width="2"/><path d="M1469,717.9l-.93.08M1356.8,769v-1.16m-3-156.6-25.5,0m26.44,0h-.94M1354.88,723l-.15-111.82m-.8,115.35,1-.06m-26.47,2,25.51-1.92m-35.15,2.64,0,40.13m-1.14-158.09h1m-16.2,0,15.24,0m.14,118-15.25,1.15m16.2-1.23-1,.08m99.3-276.75-16.05,1m17.37-1.05-1.32.09m-16.06-1.27-20.67-2.17m20.68,4.4-20.67-2.13m36.72-1.08-16.06,1M1417.33,583v1.69m0-1.69-16.07.16m17.4-.17h-1.33M1380.4,449.09v2.27m-1.2-2.4v2.27M1351.3,582.31v1.33m-1.24-1.34v1.31m-69-2.22,3.89.08m-5.27-2.65,1.37,0m0-2,3.9.09m-5.27-2.65,1.37,0m0-2,3.9.09m-5.28-2.63,1.38,0m0-2,3.91.1m-5.27-2.63,1.36,0m0-2,3.91.11m-5.27-2.63,1.36,0m0-2,3.89.12m-5.26-2.63,1.37.05m0-2,3.9.13m-5.26-2.63,1.36,0m0-2,3.9.13m-5.27-2.62,1.37.07m0-2.08,3.89.15m-5.26-2.6,1.36,0m0-2.09,3.9.17m-5.26-2.61,1.36.05m0-2.1,3.89.18m-5.27-2.61,1.38.06m0-2.12,3.9.19m-5.27-2.61,1.37.06m0-2.13,3.9.2m-5.27-2.61,1.37.08m0-2.16,3.89.21m-5.27-2.6,1.37.07m0-2.17,3.9.22m-5.27-2.6,1.37.08m0-2.19,3.9.22m-5.28-2.58,1.38.08m0-2.21,3.89.23m-5.27-2.58,1.36.09m0-2.23,3.91.25m-5.27-2.59,1.36.09m0-2.24,3.89.26m-5.26-2.58,1.37.1m0-2.27,3.9.27m-5.26-2.58,1.36.1m0-2.27,3.9.27m-5.26-2.57,1.36.1m0-2.29,3.89.28m-5.27-2.57,1.37.1m0-2.3,3.9.29m-5.27-2.57,1.37.12m0-2.34,3.89.32m-5.27-2.56,1.38.11m0-2.36,3.89.33m-5.27-2.56,1.37.11m0-2.37,3.9.34m-5.27-2.56,1.37.13m0-2.39,3.89.34m-5.27-2.56,1.38.13m0-2.4,3.9.35m-5.27-2.54,1.37.12m0-2.42,3.9.36m-5.28-2.54,1.38.14m0-2.45,3.89.39m-5.27-2.56,1.36.14m0-2.46,3.91.4m-5.27-2.54,1.36.13m0-2.47,3.89.4m-5.26-2.54,1.37.15m0-2.5,3.9.41m-7.44,338.45v1.21m-43.56-170.23-20.8,0m28.75,0h-8m6.5,2.54.18,202.78m.77-202.78h-1m-6.5-2.54-20.8,0m28.25,0h-7.45m-2.29,23-3,0m4,0h-1m-.83,160.66-.13-158.1m54.4-49.92,3.91.06m-18.11-.3,14.2.24m-277.38,24.47h14.55m-20.8,0h6.25m567.05,144.62.06,28.82v15.55M849.61,874.32l-16.26-2.11m193.42-26.39v2.82m-3.41,3.44L850,874.37m176.75-22.73-3.41.44m279.09-244.39v1.18M1356.8,769l3.79.24m23.52-113.94.16,112.23m-.22-159.72v1.12m73.7-1V609m42.5,145.29,3.65.2M1524.66,609l.26,135.73M1524.65,608v1m-66.61,178.15,12.11.81m-40.94-134-9.91.3m10.84-.32-.93,0m.93,0,.2,128.37m1.65-21,0,24.13m-16.38-177.55v3.33m1.71-3.33,14.39,0m-16.11,0h1.72m11.79,3.3h.93m-12.71,0h11.78m-44.94,40.76,0-40.71m1.78-3.39h-1.79m3.74,47.46.19,132.15m12.11-132.51-12.3.36m13.24-.4-.94,0m-14.19-3-1.79,0m16.79-.47-15,.42m-1.6,135.81V791m32.25-136.65.93,0m-13,.38,12-.36m-.94-3.38,1.71,0m-16.43.46,14.72-.41m-10.9,134.43-.19-130.69m12.73-46.92v3.31m-31.42,0,0,40.62m28.72-40.64-28.77,0m29.7,0h-.93m-413.41-235V293.27m20.81,115.54,0-94.15m-29.48,62.42,8.69-.93m-31,34.5V382.18m-32.75,31.48v-28m-31.77,30.95V389m-30.85,30.45V392.2m-30,30,0-26.81M815.9,424.85l0-26.44m-28.28,29V401.38M760.14,430l0-25.69m-26.75,28.15,0-25.35m-13.85,1.71,0,24.91m242.6-57.52v4.13m422.13,407.34,0-19m-59.65,4.27-22,2.27m171.71-17.72L1458,759.17M979.42,607.61l-59.66.07M705.85,586.24l-40.28.5m46.59-.57-6.31.07M886.73,584l-25.3.31m58.33,23.49,59.66,0m-65,.07,5.32,0m-41.75,0h1.23m122.08-200-30.21,2.77m71.82.45-17.63-1.87M779,769.16l-1.19.1m9.25-.7-8.06.6m102.27,18.7v1.68m0-3v1.31m-7.61-11.44-17.63,1.45m-97.9,14.68v-5m-293.81-1.62L540,780.42m-76.54,5.52.93-.06M989.73,434.25v4.93m92.56,141.51-12.12.15m104.66-6.15-37.63.55m0,2,37.63-.52m0-6.88-37.64.63m0,2,37.64-.59m0-6.89-37.64.71m0,2,37.64-.68m0-6.91-37.64.79m0,2.07,37.64-.75m0-6.92-37.63.86m0,2.08,37.63-.82m0-6.94-37.63.94m0,2.09,37.63-.91m0-7-37.64,1m0,2.11,37.64-1m0-7L1137.18,542m0,2.14,37.64-1.06m0-7-37.63,1.17m0,2.15,37.63-1.14m0-7-37.63,1.24m0,2.15,37.63-1.21m0-7-37.63,1.31" transform="translate(-220.87 -263.8)" fill="none" stroke="#f7f8f9" stroke-miterlimit="10" stroke-width="2"/><path d="M1137.18,530l37.63-1.28m0-7-37.63,1.4m0,2.18,37.64-1.36m0-7-37.63,1.47m0,2.2,37.63-1.44m0-7.06-37.63,1.56m0,2.21,37.63-1.51m0-7.07-37.63,1.63m0,2.22,37.63-1.58m0-7.09-37.61,1.7m0,2.24,37.63-1.66m0-7.1-37.63,1.78m0,2.25,37.63-1.74m0-7.11-37.63,1.86m0,2.27,37.63-1.83m0-7.12-37.63,1.94m0,2.28,37.63-1.9m0-7.13-37.62,2m0,2.29,37.63-2m0-7.16-37.62,2.09M1094.56,485l37.54-2m0-7-37.54,2.16m0,2.28,37.54-2.12m0-7.05-37.54,2.24m0,2.29,37.54-2.19m0-7.08-37.54,2.32m0,2.32,37.54-2.28m42.66-9.79-37.62,2.38m0,2.38,37.62-2.35m0-7.24-37.62,2.47m0,2.4,37.62-2.44m0-7.24-37.63,2.54m0,2.41,37.63-2.51m0-7.26-37.62,2.62m0,2.42,37.63-2.58m0-7.27-37.62,2.69m0,2.43,37.62-2.65m-107.09.61-13.7,1m28.29-2.09-14.59,1.08m69.47-2.67,37.62-2.75m0-7.3L1137.13,433m-82.83,8.66,28-2.09M1054,437.1l28.29-2.17M1051,437.32l2.94-.22m120.78-16.61-37.62,3m0,2.49,37.62-3m0-7.35-37.62,3.08m0,2.5,37.62-3m-104.18,1.39L1051,421.24m31.22-2.62-11.68,1m66.56-3.07,37.62-3.12m-37.62-1.61,37.6-3.19M1051,419.12l8.17-.7m-8.17-6.31-3.15.28m126.85-11.17-37.61,3.32m0,2.54,37.61-3.26m-126.85,11,3.15-.27m-4.93.42,1.78-.15m-198.65,193h1.23M877,583.23l7.92-.1m-17.25-2.2,4.79-.07M877,579l7.92-.13m-17.25-2.14,4.79-.08m4.54-1.88,7.92-.14m-17.23-2.1,4.78-.08m4.53-1.91,7.92-.15m-17.23-2,4.78-.1m4.54-1.93,7.93-.16m-17.25-2,4.78-.1m4.54-2,7.93-.17m-17.25-2,4.78-.11m4.54-2,7.93-.2m-17.25-1.89,4.78-.13m4.54-2,7.93-.21m-17.25-1.86,4.78-.12m4.54-2,7.93-.24m-17.24-1.81,4.78-.14m4.53-2,7.93-.25m-23.46-2.35v-1.12m5.4,1.87-5.4-.17m6.85.22-1.45,0m.82-.16,4.78-.15M877,541l7.92-.26m-18.06-1.54-5.4-.18m6.85.23-1.45-.05m.82-.17,4.78-.16m4.54-2.1,7.92-.27M866.85,535l-5.4-.2m6.86.25-1.46,0m.82-.2,4.78-.17m4.54-2.11,7.93-.29m-18.07-1.42-5.39-.2m6.85.26-1.46-.06m.82-.2,4.78-.18m4.54-2.14,7.93-.31m-18.07-1.35-5.39-.22m6.85.29-1.46-.07m.82-.21,4.78-.2m4.54-2.14,7.93-.34m-18.06-1.29-5.4-.23m6.85.3-1.45-.07m.82-.22,4.77-.21m4.54-2.17,7.93-.35m-18.06-1.24-5.4-.23m6.85.3-1.45-.07m.82-.22,4.78-.23m4.53-2.19,7.93-.36m-18.06-1.18-5.4-.25m6.85.32-1.45-.07m.82-.25,4.78-.21m4.55-2.23,7.91-.38m-18.06-1.12-5.4-.26m6.85.34-1.45-.08m.82-.25,4.78-.22m4.55-2.26,7.91-.39m-18.06-1.06-5.39-.27m6.85.35-1.46-.08m.82-.26,4.78-.24m4.55-2.27,7.92-.41m-18.07-1-5.39-.28m6.85.36-1.46-.08m.82-.27,4.78-.25m4.55-2.3,7.92-.42m-18.06-.93-5.4-.3m6.85.37-1.45-.07m.81-.29,4.78-.26m4.55-2.32,7.92-.44m-18.06-.89-5.4-.3m6.85.39-1.45-.09m.82-.28,4.79-.28m4.53-2.33,7.92-.46M866.87,489l-5.4-.32m6.85.41-1.45-.09m.82-.31,4.79-.27M877,486l7.92-.47m-18.06-.76-5.4-.34m6.85.42-1.45-.08m.82-.33,4.79-.29m4.54-2.38,7.91-.49m-18.06-.71-5.39-.33m6.85.43-1.46-.1m.82-.32,4.79-.3m4.54-2.41,7.91-.5m-18.06-.64-5.39-.35m6.85.45-1.46-.1m.82-.34,4.79-.31m4.54-2.42,7.92-.53m-18.06-.58-5.4-.37m6.85.47-1.45-.1m.81-.35,4.79-.33m4.54-2.44,7.92-.54m-18.06-.52-5.4-.38m6.85.48-1.45-.1m.82-.36,4.78-.34m4.54-2.47,7.92-.55m-18.06-.47-5.4-.38m6.85.49-1.45-.11m.82-.37,4.79-.33m4.53-2.5,7.92-.57m-23.46-.81v-1.41m5.4,1.81-5.4-.4m6.85.51-1.45-.11m.82-.38,4.79-.35m4.53-2.52,7.92-.58m-17.24-.74,4.79-.36m4.54-2.53,7.91-.61m-17.24-.69,4.79-.37M759.69,546.3l0,38.24m0-39.7v1.46m.08-84.8-.08,82.27M911.33,763.86l3.06-.24m-6.14.47,3.08-.23m-45.18.42v1.9m0-8.75v6.85m.06-131.44,0,81.85M866.82,583l1.46,0m-65.6.85,30.55-.4m0-37.63-30.54,1m65.59-2.07-1.45,0m-47-.62,13.42-.43m-30.45,1,17-.55m48.47-4-1.45,0m-32.51,43.29,0-37.66M691.83,712.57v1m.08-78.79-.08,77.75m59.51-93.65-12.1-.07m39.89,15,8.08-.09m-172,1.69-43.79-.62m43.79.62-.07,49M401.38,619l-.15,72.42m213.91,20.69,0,31.48M401,787.27v4.43m.15-71.12L401,787.27m170.22-9.1,0,22.3m.1-70.67-.08,48.37m-31.3,19.63,0-17.38m199.14-28.91L719,750m43.55,10.81v1M914.44,618.94v13.35M684,842.88l5.18.65" transform="translate(-220.87 -263.8)" fill="none" stroke="#f7f8f9" stroke-miterlimit="10" stroke-width="2"/><path d="M679.13,635l-.06,47.38M1283.2,842.7,1574.74,797m-399.58,35.46-8.4-1.61m20.21,3.88-11.81-2.27m19.3,3.71-7.49-1.44m21.59,4.15-14.1-2.71M1271,778.45l0,39.15m-96,2.79V789.65m150.93-346.29v2.35m-.06-49.28.06,46.93m-.06-55.44v8.51M1500,609v-1m.27,145.26L1500,609m-1.26,142.29-.06-35.58m-29.84-104.59.17,103.62m-112.41-105.8v-1.15m.21,160.06-.21-158.91m-1.64,156.79,0-39.2m-36.24-115.26.13,114.43M1418.66,583v1.73m-.21-132.32.21,130.59m-.21-132.83v2.24m-38-1.08-1.19-.13m37.91,1.3.2,130.51m-.2-132.76v2.25m-16.22,130.66-20.31-.35m0,0v1.28m-.19-132.76.19,131.48m-1.2,0v1.29m-.18-132.87.18,131.58m-28.27-134.5.17,134M1351.12,446v2.31m-1.24-.12.17,134.11m-.18-136.42v2.31M1279.7,581.38h1.38m-5.27-2.64,3.89.07m-8.93-.17,5,.1m3.89-1.87,1.37,0m-5.26-2.64,3.89.08m-8.93-.2,5,.12m3.89-1.88,1.37,0m-5.26-2.64,3.88.1m-8.93-.22,5,.12m3.88-1.89,1.36,0m-5.25-2.63,3.89.1m-8.93-.24,5,.14m3.89-1.9,1.36,0m-5.25-2.63,3.89.11m-8.93-.26,5,.15m3.88-1.9,1.37,0m-5.26-2.63,3.89.12m-8.93-.29,5,.17m3.89-1.91,1.36.05m-5.25-2.64,3.89.14m-8.93-.31,5,.17m3.89-1.9,1.36.05m-5.25-2.62,3.88.13m-8.93-.33,5,.2m3.88-1.93,1.37.05m-5.26-2.62,3.89.17m-8.93-.38,5,.21m3.89-1.93,1.36.06m-5.25-2.62,3.89.18m-8.93-.4,5,.22m3.87-1.93,1.38.06m-5.25-2.62,3.87.19m-8.92-.41,5,.22m3.87-1.93,1.37.06m-5.26-2.6,3.89.18m-8.92-.43,5,.25m3.89-2,1.37.07m-5.26-2.61,3.89.2m-8.92-.46,5,.26m3.88-1.95,1.38.07m-5.27-2.61,3.89.22m-8.93-.49,5,.27m3.89-1.95,1.37.07m-5.26-2.6,3.89.22m-8.93-.51,5,.29m3.89-2,1.37.08m-5.26-2.6,3.88.24m-8.93-.54,5,.3m3.88-2,1.38.09m-5.27-2.6,3.89.25m-8.93-.56,5,.31m3.89-2,1.36.09m-5.25-2.59,3.89.25m-8.93-.58,5,.33m3.88-2,1.37.09m-5.25-2.59,3.88.27m-8.93-.62,5,.35m3.88-2,1.36.09m-5.25-2.59,3.89.28m-8.93-.63,5,.35m3.89-2,1.36.1m-5.25-2.59,3.89.29m-8.93-.66,5,.37m3.87-2,1.38.12m-5.27-2.59,3.89.3m-8.92-.68,5,.38m3.89-2,1.37.12m-5.26-2.57,3.89.29m-8.92-.71,5,.42m3.89-2,1.37.11m-5.26-2.57,3.88.33m-8.91-.74,5,.41m3.88-2,1.38.11m-5.27-2.57,3.89.34m-8.92-.76,5,.42m3.89-2,1.37.11m-5.26-2.55,3.89.33m-8.92-.78,5,.45m3.88-2.05,1.38.12m-5.26-2.57,3.88.35m-8.93-.79,5,.44m3.88-2,1.37.12m-5.26-2.55,3.89.36m-8.93-.84,5,.48m3.89-2.06,1.37.12m-5.26-2.55,3.88.37m-8.92-.85,5,.48m3.88-2.08,1.38.14m-5.27-2.54,3.89.37m-8.93-.87,5,.5m3.89-2.09,1.36.14m-5.25-2.54,3.89.4m-8.93-.92,5,.52m3.89-2.09,1.36.15m-5.25-2.54,3.88.4m-8.92-.93,5,.53m3.88-2.1,1.36.15m-3.71,171.15.17,167.71m-.17-168.93v1.22M1001.34,791.93v-21m-9,75.32L851.3,863.68m146.76-18.13-5.7.7m17.83-2.19-12.13,1.49m386-193.66v3.39m140.81,89.42v5m-54.76,42.59v2.23m0-6.6v4.37M1447,786.37l11,.75m-26-1.74,15,1m-16.91-175.24.06,39.48M1432,760.15v1.1m-47.59,26.4-.18-132.37m1.72-47.49v3.39m-1.8-3.39v3.39m7-3.38H1386m29.7,0-24.51,0M1001.32,378.57v-2.42m-15.1,1.61,6.41-.68M1384.3,794v-2.9M873.77,607.79h3M719.56,433.7l-66.45,6.12m80.31-7.39-13.86,1.27m302.57-24.89-14.73-1.58m17.9,1.91-3.17-.33m-32.4,127.84v46.1m80.44-1.91-16.18.21m35.62-.46-7.32.1m92.55-1.18-37.64.48m-47.59-4-7.32.1m9.16-.12-1.84,0m5-.07-3.15,0m40.7-.61-37.55.56m0,2,37.55-.52m-40.7.57,3.15,0m-5,.08,1.84,0m-9.16.13,7.32-.1m0-6.64-7.32.12m9.16-.15-1.84,0m5-.09-3.15.06m40.7-.68-37.55.62m0,2,37.55-.6m-40.7.65,3.15,0m-5,.08,1.84,0m-9.16.15,7.32-.12m0-6.64-7.32.14m9.16-.18-1.84,0m5-.1-3.13.06m40.7-.77-37.57.71m0,2,37.55-.67m-40.7.72,3.15,0m-5,.09,1.84,0m-9.16.16,7.32-.12m0-6.66-7.3.15m9.15-.19-1.85,0m5-.1-3.14.06m40.71-.85-37.57.79m0,2,37.57-.75m-40.71.81,3.14-.06m-5,.1,1.85,0m-9.15.19,7.3-.15m0-6.66-7.3.16m9.15-.21-1.85,0m5-.13-3.14.08m40.7-.94-37.56.86m0,2,37.56-.83m-40.7.9,3.14-.07" transform="translate(-220.87 -263.8)" fill="none" stroke="#f7f8f9" stroke-miterlimit="10" stroke-width="2"/><path d="M1089.59,559.4l1.85,0m-9.15.2,7.3-.16m0-6.69-7.3.19m9.15-.24-1.85.05m5-.12-3.14.07m40.7-1-37.56.94m0,2.06,37.56-.9m-40.7,1,3.14-.07m-5,.12,1.85,0m-9.15.23,7.3-.18m0-6.71-7.32.2m9.17-.25-1.85,0m5-.13-3.14.08m40.7-1.1-37.56,1m0,2.08,37.56-1m-40.7,1.06,3.14-.07m-5,.12,1.85,0m-9.17.24,7.32-.19m0-6.71-7.32.21m9.17-.26-1.85,0m5-.15-3.14.1m40.7-1.19-37.56,1.09m0,2.09,37.56-1.06m-40.7,1.15,3.14-.09m-5,.14,1.85,0m-9.17.25,7.32-.2m0-6.73-7.32.23m9.17-.28-1.85,0m5-.15-3.14.1m40.7-1.26-37.56,1.16m0,2.09,37.56-1.12m-40.7,1.22,3.14-.1m-5,.15,1.85-.05m-9.17.28,7.32-.23m0-6.73-7.32.23m9.17-.3-1.85.07m5-.17-3.14.1m40.69-1.34L1094.58,534m0,2.11,37.56-1.21m-40.7,1.31,3.14-.1m-5,.16,1.85-.06m-9.17.3,7.32-.24m0-6.76-7.32.26m9.16-.32-1.84.06m5-.17-3.14.11m40.7-1.42-37.56,1.31m0,2.13,37.56-1.28m-40.69,1.39,3.13-.11m-5,.18,1.85-.07m-9.17.31,7.32-.24m0-6.78-7.31.28m9.16-.35-1.85.07m5-.19-3.14.12m40.7-1.51-37.56,1.39m0,2.15,37.56-1.36m-40.7,1.47,3.14-.11m-5,.19,1.85-.08m-9.16.34,7.31-.26m0-6.79-7.31.29m9.16-.36-1.85.07m5-.2-3.14.13m40.7-1.6L1094.57,520m0,2.16,37.56-1.43m-40.7,1.55,3.14-.12m-5,.19,1.85-.07m-9.16.35,7.31-.28m0-6.8-7.31.3m9.16-.38-1.85.08m5-.2-3.14.12m40.7-1.67-37.56,1.55m0,2.17,37.56-1.51m-40.7,1.63,3.14-.12m-5,.2,1.85-.08m-9.16.38,7.31-.3m0-6.81-7.32.31m9.17-.4-1.85.09m5-.23-3.14.14m40.69-1.76-37.55,1.62m0,2.2,37.56-1.6m-40.7,1.72,3.14-.12m-5,.21,1.85-.09m-9.16.39,7.31-.3m0-6.84-7.32.34m9.17-.41-1.85.07m5-.22-3.14.15m40.69-1.85-37.55,1.7m0,2.21,37.55-1.67m-40.69,1.81,3.14-.14m-5,.21,1.85-.07m-9.17.39,7.32-.32m0-6.84-7.32.35m9.17-.43-1.85.08m5-.23-3.14.15m40.69-1.94-37.55,1.79m0,2.22,37.55-1.75m-40.69,1.88,3.14-.13m-5,.22,1.85-.09m-9.17.43,7.32-.34m0-6.86-7.32.36m9.17-.45-1.85.09m5-.24-3.13.15m40.69-2-37.56,1.85m0,2.24,37.56-1.82m-40.69,2,3.13-.15m-5,.23,1.85-.08m-9.17.43,7.32-.35m0-6.87-7.31.37m9.16-.47-1.85.1m5-.25-3.14.15m40.7-2.08-37.56,1.93m0,2.25,37.56-1.9m-40.7,2,3.14-.15m-5,.25,1.84-.1m-9.16.46,7.32-.36m0-6.89-7.31.39m9.16-.49-1.85.1m5-.27-3.14.17m40.7-2.18-37.56,2m0,2.25,37.56-2m-40.7,2.14,3.14-.18m-5,.27,1.85-.09m-9.16.47,7.31-.38m0-6.9-7.31.41m9.16-.51-1.85.1m5-.28-3.14.18m40.68-2.26-37.54,2.08m37.54.23,1.93-.1m-42.61,2.32,3.14-.18m-5,.28,1.85-.1m-9.16.5,7.31-.4m0-6.91-7.31.42m9.16-.54-1.85.12m5-.29-3.14.17m42.61-2.44-1.93.11m0,2.32,1.93-.1m-42.61,2.41,3.14-.19m-5,.29,1.85-.1m-9.16.51,7.31-.41m0-6.92-7.31.43m9.16-.55-1.85.12m5-.3-3.14.18m83.35-5-37.63,2.24m0,2.35,37.63-2.21m-83.35,4.88,3.14-.19m-5,.3,1.85-.11m-9.16.54,7.31-.43m0-6.95-7.32.45m9.17-.56-1.85.11m5-.3-3.14.19m83.34-5.13-37.62,2.32m0,2.36,37.63-2.28m-83.35,5.05,3.14-.19m-5,.3,1.85-.11m-9.17.55,7.32-.44m0-7-7.32.46m9.17-.57-1.85.11m5-.31-3.13.2m40.68-2.59-37.55,2.39m0,2.33,37.54-2.35m-40.68,2.54,3.14-.19m-5,.31,1.85-.12m-9.17.57,7.32-.45m0-7-7.32.48m9.16-.6-1.84.12m5-.32-3.14.2m40.68-2.67-37.54,2.47m0,2.34,37.54-2.43M1091.42,462l3.13-.2m-5,.31,1.85-.11m-9.17.59,7.32-.48m0-7-7.31.5m9.16-.63-1.85.13m5-.34-3.14.21m40.68-2.74-37.54,2.53m0,2.37,37.54-2.51m-40.68,2.71,3.14-.2m-5,.33,1.85-.13m-9.16.61,7.31-.48m0-7-7.31.51m9.16-.64-1.85.13m5-.35-3.14.22m40.68-2.83-37.54,2.61m0,2.38,37.54-2.58m-40.68,2.79,3.14-.21m-5,.34,1.85-.13m-9.16.63,7.31-.5m0-7-7.31.52m9.16-.66-1.85.14m5-.36-3.14.22m40.68-2.92-37.54,2.7m0,2.39,37.54-2.66m-40.68,2.89,3.14-.23m-5,.35,1.85-.12m-9.16.64,7.31-.52m-35.6-4.4-2.94.22m43.53-.81,37.54-2.73m-40.68,3,3.14-.22m-5,.36,1.85-.14m-9.16.68,7.31-.54m0-7.05-7.31.57" transform="translate(-220.87 -263.8)" fill="none" stroke="#f7f8f9" stroke-miterlimit="10" stroke-width="2"/><path d="M1091.41,436.44l-1.85.13m5-.37-3.14.24m40.67-3.08-37.53,2.84M1051,441.88l2.94-.23m120.78-16.34-37.62,2.92m-89.25,9.33,3.15-.24m-4.93.38,1.78-.14m41.69-10.27-7.32.59m9.17-.74-1.85.15m5-.4-3.13.25m40.67-3.24-37.54,3m0,2.45,37.54-3m-40.67,3.21,3.13-.25m-5,.4,1.85-.15m-9.17.72,7.32-.57m0-7.09-7.31.6m9.15-.75-1.84.15m5-.41-3.15.26m40.69-3.33-37.54,3.07m0,2.46,37.54-3M1091.39,425l3.15-.26m-5,.41,1.83-.15m-9.15.74,7.32-.59M1051,421.24l-3.15.26m126.87-10.65L1137.12,414m-42.58,6.05,37.54-3.12m-40.69,3.37,3.15-.25m-5,.41,1.84-.16m-9.15.76,7.31-.6m1.84-7.27-1.84.16m5-.44-3.15.28m26.17-2.26-22.32,1.92m-47.37,6.51,3.15-.26m-4.93.41,1.78-.15m-1.78-6.83-3.16.27m4.94-.43-1.78.16m87.9-12.48-1.92.18m5-.45-3.12.27m0,2.57,3.12-.27m-5,.44,1.92-.17m0-7.29-1.92.17m5-.46-3.12.29m0,2.58,3.12-.29m-5,.46,1.92-.17m0-7.31-1.91.17m5-.47-3.13.3m0,2.58,3.13-.29m-5,.48,1.91-.19m0-7.32-1.92.18m5-.48-3.13.3m0,2.6,3.13-.29m-5,.48,1.91-.19m0-7.33-1.92.19m5-.5-3.11.31m0,2.62,3.11-.3m-5,.49,1.92-.19m0-7.35-1.92.19m5-.5-3.11.31m0,2.63,3.11-.31m-5,.5,1.92-.19m-87.9,8.71,1.79-.17M1134,371.68l-1.92.2m5-.51-3.11.31m0,2.66,3.11-.33m-5,.51,1.92-.18m-87.9,8.88,1.79-.17M1134,367l-1.91.2m5-.52L1134,367m0,2.67,3.12-.32m-5,.52,1.91-.2m0-7.39-1.91.19m5-.53-3.12.34m0,2.68,3.12-.34m-5,.54,1.91-.2m0-7.41-1.93.2m5-.55-3.11.35m0,2.68,3.11-.32m-5,.53,1.93-.21m0-7.42L1132,353m5-.55-3.11.34m0,2.7,3.11-.33m-5,.55,1.93-.22m0-7.43-1.93.21m5-.56L1134,348m0,2.72,3.11-.35m-5,.56,1.93-.21m0-7.45-1.91.21m5-.57-3.13.36m0,2.73,3.13-.35m-5,.58L1134,346m0-7.46-1.91.22m5-.59-3.13.37m0,2.75,3.13-.36m-5,.58,1.91-.22m0-7.49-1.92.24m5-.6-3.12.36m0,2.77,3.12-.36m-5,.59,1.92-.23m0-7.49-1.92.23m5-.61-3.12.38m0,2.78,3.12-.38m-5,.6,1.92-.22m0-7.51-1.92.23m5-.62-3.12.39m0,2.79,3.12-.37m-5,.61,1.92-.24m0-7.52-1.91.24m5-.63-3.13.39m0,2.81,3.12-.39m-5,.62,1.92-.23m0-7.54-1.91.24m5-.64-3.13.4m0,2.82,3.13-.39m-5,.63,1.91-.24m0-7.55-1.92.24m5-.65-3.12.41m0,2.84,3.12-.4m-5,.64,1.91-.24m0-7.58-1.92.27m5-.67-3.12.4m0,2.86,3.12-.4m-5,.65,1.92-.25m0-4.72,3.12-.41m-5,.68,1.92-.27M869.42,583.31l7.55-.08m0-2.44,7.92-.11m-12.46.18,4.54-.07m-7.55-1.68L877,579m-15.54.22,8-.11m7.55-2.53,7.92-.13m-12.46.2,4.54-.07m-7.55-1.69,7.55-.12m-15.54.26,8-.14m7.55-2.52,7.92-.15m-12.45.23,4.53-.08m-7.55-1.69,7.55-.14m-15.54.29,8-.15m7.56-2.52,7.91-.17m-12.45.25,4.54-.08m-7.56-1.69,7.56-.16m-15.55.32,8-.16m7.56-2.53,7.93-.18m-12.47.28,4.54-.1m-7.56-1.68,7.56-.18m-15.55.36,8-.18m7.56-2.54,7.93-.18m-12.47.3,4.54-.12M869.43,558l7.55-.19m-15.53.39,8-.2m7.55-2.53,7.93-.2m-12.47.32,4.54-.12m-7.55-1.67,7.55-.22m-15.53.43,8-.21m7.55-2.55,7.93-.21m-12.47.35,4.54-.14m-7.55-1.67,7.55-.21m-15.53.45,8-.24m7.55-2.53,7.93-.25m-12.46.38,4.53-.13m-7.55-1.68,7.55-.23m-15.53.47,8-.24m7.55-2.54,7.93-.26m-12.46.41,4.53-.15m-7.55-1.67L877,541m-15.54.51,8-.26m7.56-2.55,7.92-.27m-12.46.44,4.54-.17M869.43,537l7.56-.26m0-2.28,7.93-.29m-12.47.45,4.54-.16m-7.55-1.66,7.55-.29m0-2.26,7.93-.31m-12.47.48,4.54-.17m-7.55-1.67,7.55-.3m0-2.24,7.93-.33m-12.47.5L877,526m-7.55-1.66,7.55-.31m0-2.25,7.93-.34m-12.47.53,4.54-.19m-7.55-1.66,7.55-.32m0-2.24,7.93-.35m-12.46.55,4.53-.2m-7.55-1.64,7.55-.35m0-2.21,7.93-.37m-12.46.58,4.53-.21m-7.55-1.66,7.57-.36m0-2.2,7.91-.38m-12.46.61,4.55-.23m-7.57-1.66,7.57-.37m0-2.18,7.92-.4m-12.47.63L877,505m-7.55-1.65,7.55-.39m0-2.17,7.92-.42m-12.47.66,4.55-.24m-7.55-1.66,7.55-.4m0-2.15,7.92-.44m-12.47.69,4.55-.25m-7.55-1.65,7.55-.42m0-2.15,7.92-.45m-12.45.71,4.53-.26" transform="translate(-220.87 -263.8)" fill="none" stroke="#f7f8f9" stroke-miterlimit="10" stroke-width="2"/><path d="M869.46,490.66l7.55-.42m0-2.13,7.92-.48m-12.45.74,4.53-.26m-7.55-1.65L877,486m0-2.12,7.91-.49m-12.45.76,4.54-.27m-7.56-1.63,7.56-.48m0-2.11,7.91-.5m-12.45.79,4.54-.29M869.47,478l7.55-.49m0-2.08,7.91-.52m-12.45.81,4.54-.29m-7.55-1.63,7.55-.5m0-2.09,7.92-.52m-12.46.82,4.54-.3m-7.55-1.63,7.55-.51m0-2.07,7.92-.54m-12.46.85L877,467m-7.55-1.62,7.55-.54m0-2.05,7.92-.56m-12.45.89,4.53-.33m-7.55-1.63,7.55-.54m0-2,7.92-.58m-12.45.91,4.53-.33M869.47,457l7.55-.56m-15.54,1.15,8-.59m7.56-2.58,7.91-.6m-12.45.94,4.54-.34m-7.56-1.62,7.56-.57m-15.53,1.17,8-.6M877,450.2l6.12-.48m-10.66.83,4.54-.35M866.17,714.69v1.07M836.66,583.43l30.16-.39m0-38.27-30.18.94m-2.31.08v-2.11m-95.12,75.17-53.74-.26m86.64,15.32,7-.09m-207.67,1-21.67-.32m183-14.77,40-.18m-69.6-.35-39.83.17M615.11,743.84l0,8.24M855.3,633l-19.67.23m30.26-.35L855.3,633M540,780.42l.07-49M719,750l-1.32-.1m495.56,77.65L1258,821.8m179.8-236.72-19.16-.32M1213.19,816.31v3.4m-.35-443.8.18,231.63m-.18-235.45v3.82m224.69,27.67-111.68-15.66m.23,194v1.33m-.17-137.5.17,136.17m151.42,174.7v-3.19m-149,18.5v-3.52m-285.54-362.8v2.71m375.45-3.08.07,45M1379.21,449l-28.09-3m28.1,5.23-28.09-2.92m29.47,134.53-1.2,0m-103.58-1.51,3.88.08m-8.93-.16,5,.08m0-4.5,3.89.08m-8.93-.18,5,.1m0-4.5,3.89.08m-8.94-.21,5,.13m0-4.52,3.89.1m-8.93-.22,5,.12m0-4.5,3.89.11m-8.93-.25,5,.14m0-4.5,3.88.12m-8.93-.29,5,.17m0-4.51,3.89.13m-8.93-.3,5,.17m0-4.5,3.89.14m-8.93-.33,5,.19m0-4.52,3.88.16m-8.93-.36,5,.2m0-4.5,3.89.16m-8.93-.37,5,.21m0-4.5,3.87.17m-8.91-.4,5,.23m0-4.51,3.89.19m-8.92-.42,5,.23m0-4.5,3.89.19m-8.92-.45,5,.26m0-4.5,3.88.2m-8.93-.48,5,.28m0-4.52,3.89.23m-8.93-.5,5,.27m0-4.5,3.89.23m-8.93-.52,5,.29m0-4.51,3.88.24m-8.93-.55,5,.31m0-4.5,3.89.25m-8.93-.57,5,.32m0-4.5,3.88.26m-8.92-.6,5,.34m0-4.51,3.89.28m-8.93-.63,5,.35m0-4.5,3.89.29m-8.93-.65,5,.36m0-4.5,3.87.28m-8.92-.66,5,.38m0-4.51,3.89.3m-8.92-.7,5,.4m0-4.5,3.89.31m-8.92-.72,5,.41m0-4.5,3.88.32m-8.92-.75,5,.43m0-4.51,3.89.34m-8.92-.77,5,.43m0-4.5,3.88.35m-8.91-.8,5,.45m0-4.5,3.89.36m-8.93-.82,5,.46m0-4.51,3.89.38m-8.93-.85,5,.47m0-4.5,3.88.37m-8.92-.86,5,.49m0-4.5,3.89.38m-8.93-.88,5,.5m0-4.51,3.89.4m-8.93-.91,5,.51m2.31-4.25,1.57.16m-8.93-.93,7.36.77M1001.34,797.3v-4.54m25.43,55.89v2.9m275.81-121.12.05,40.38m155.3-52.07.06,36.47m66.94-5.05v2.78m-93.16-144,.23,151.2m-.24-152.3V609m-12.26,174.6v3.32m-.2-132.64.2,129.15M1419.3,651v3.23m-418-246.44V378.92m-20.19-.61,5.09-.55m398.08,413.3v-3.4m-464.53-180-40.52,0m-44.9-23.05h-1.11m28.2-.35-24.78.31m133.64-174-31.94,2.93M886.73,580.66v2.44m0-133.65v2m103,84v1.21m64.26,44.4-2.93,0m40.39-.51h-1.84m5-.06-3.15.05m40.7-.52-37.55.47m-12.31-4.48-12.12.19m63.9-1-1.92,0m5-.08-3.13,0m0,2,3.13,0m-5,.07,1.92,0m-63.9.89,12.12-.16m0-6.62-12.12.2m63.9-1.07-1.92,0m5-.09-3.12,0m0,2,3.12-.05m-5,.09,1.92,0m-63.9,1,12.12-.19m0-6.62-12.12.22m63.9-1.21-1.92,0m5-.09-3.12,0m0,2.06,3.12-.06m-5,.1,1.92,0m-63.9,1.15,12.12-.23m0-6.63-12.12.26m63.89-1.34-1.91,0m5-.11-3.13.07m0,2.06,3.13-.06m-5,.1,1.91,0m-63.89,1.27,12.12-.23m0-6.65-12.12.27m63.89-1.46-1.92,0m5-.11-3.13.07m0,2.09,3.13-.08m-5,.11,1.92,0m-63.89,1.39,12.12-.26m0-6.66-12.12.3m63.89-1.6-1.92,0m5-.12-3.13.07m0,2.1,3.13-.08m-5,.13,1.92,0m-63.89,1.53,12.12-.28m0-6.69-12.11.32m63.9-1.72-1.92,0m5-.12-3.12.07m0,2.11,3.12-.07m-5,.12,1.92,0m-63.9,1.67,12.11-.32m0-6.69-12.11.35m63.9-1.85-1.92,0m5-.15-3.12.1m0,2.12,3.12-.08m-5,.13,1.92,0m-63.9,1.8,12.11-.35m0-6.7-12.11.38" transform="translate(-220.87 -263.8)" fill="none" stroke="#f7f8f9" stroke-miterlimit="10" stroke-width="2"/><path d="M1134.05,537.39l-1.91.07m5-.17-3.13.1m0,2.14,3.13-.09m-5,.15,1.91-.06m-63.89,1.92,12.11-.36m0-6.73-12.11.4m63.89-2.11-1.92.07m5-.17-3.13.1m0,2.16,3.13-.11m-5,.16,1.91-.05m-63.89,2.05,12.11-.39m0-6.74-12.11.43m63.89-2.25-1.92.08m5-.19-3.13.11m0,2.17,3.13-.11m-5,.18,1.92-.07m-63.89,2.19,12.11-.42m0-6.74-12.11.45m63.89-2.37-1.92.06m5-.19-3.12.13m0,2.17,3.12-.12m-5,.19,1.92-.07m-63.89,2.32,12.11-.44m0-6.76-12.11.47m63.89-2.5-1.92.07m5-.2-3.12.13m0,2.19,3.12-.12m-5,.2,1.92-.08m-63.89,2.45,12.11-.47m0-6.78-12.11.5M1134,513.7l-1.91.09m5-.21-3.13.12m0,2.21,3.12-.12m-5,.21,1.92-.09m-63.89,2.58,12.11-.48m0-6.8-12.1.52M1134,509l-1.92.09m5.05-.21L1134,509m0,2.24,3.13-.14m-5,.21,1.91-.07m-63.88,2.7,12.11-.52m0-6.8-12.11.55m63.89-2.89-1.92.08m5.05-.23-3.13.15m0,2.23,3.13-.14m-5.05.23,1.92-.09m-63.88,2.83,12.1-.54m0-6.81-12.11.58m63.89-3-1.92.08m5-.23-3.11.15m0,2.25,3.11-.15m-5,.24,1.92-.09m-63.89,3,12.11-.56m0-6.84-12.11.6m63.89-3.14-1.92.09m5-.25-3.11.16m0,2.26,3.11-.15m-5,.25,1.92-.1m-63.89,3.09,12.11-.59m0-6.85-12.11.63M1134,490l-1.91.1m5-.26L1134,490m0,2.28,3.11-.16m-5,.26,1.92-.1m-63.89,3.22,12.11-.61m0-6.86-12.11.65m63.88-3.42-1.91.1m5-.26-3.12.16m0,2.31,3.12-.18m-5,.27,1.91-.09m-63.88,3.34,12.11-.64m0-6.87-12.11.67m63.88-3.54-1.93.1m5.05-.28-3.12.18m3.12,2.13,37.62-2M1134,482.87l3.12-.18m-67,3.66,12.11-.66m0-6.89-12.11.7m67-3.86-3.11.18m40.74-2.35-37.63,2.17m0,2.34,37.63-2.14M1134,478.15l3.11-.17m-67,3.78,12.11-.69m0-6.9-12.11.71m63.88-3.79-1.93.11m5-.3-3.11.19m0,2.33,3.11-.17m-5,.29,1.93-.12m-63.88,3.75,12.11-.71m0-6.93-12.1.75m63.86-3.93-1.91.11m5-.3-3.13.19m0,2.36,3.11-.19m-5,.3,1.93-.11m-63.88,3.87,12.1-.74m0-6.94-12.1.78m63.86-4.07-1.91.13m5-.33-3.13.2m0,2.38,3.13-.2m-5,.32L1134,464m-63.86,4,12.1-.76m0-6.94-12.12.79m63.88-4.19-1.92.13m5.05-.34-3.13.21m0,2.39,3.13-.2m-5.05.32,1.92-.12m-63.88,4.12,12.12-.78m0-7-12.12.82m63.88-4.33-1.92.14m5-.35-3.12.21m0,2.41,3.12-.21m-5,.33,1.92-.12m-63.88,4.25,12.12-.81m0-7-12.12.85m63.88-4.46-1.92.14m5-.36-3.12.22m0,2.41,3.12-.21m-5,.35,1.92-.14m-63.88,4.39,12.12-.83m0-7-12.12.87m63.87-4.59-1.91.14m5-.36-3.13.22m0,2.44,3.12-.23m-5,.36,1.92-.13m-63.88,4.51,12.12-.85m-31.23-4.7-3.14.23m41.68-3.07-7.31.53m92.5-6.82-37.62,2.77m-3.13,2.68,3.13-.22m-5,.36,1.91-.14M1070.13,445l12.12-.87m0-7L1054,439.28m80-6.07-1.92.15m5.05-.39-3.13.24m3.13,2.23,37.62-2.82m-92.5,6.92,7.31-.55m-41.69,3.12,3.15-.23m-4.93.36,1.78-.13m41.69-10.18-7.32.58m9.17-.71-1.85.13m5-.38-3.13.25m40.67-3.17-37.54,2.92m42.58-.84,37.62-2.89m-92.49,7.11,7.31-.56m-7.32-6.49L1051,430.37m83-6.63-1.92.16m5-.41-3.12.25m0,2.49,3.12-.25m-5,.4,1.92-.15m-83,6.54,31.22-2.46m0-7.06L1051,425.81m83-6.8-1.92.16m5-.41L1134,419m0,2.51,3.12-.26m-5,.41,1.92-.15m-83,6.7,31.22-2.52m-36.15-4.05-3.16.27m4.94-.42-1.78.15m87.9-4.86,3.13-.25m-5,.41,1.91-.16m-83,6.89,31.22-2.6m-31.22-4.4-3.15.27m10.52-.91-7.37.64m38.53-3.31L1058.39,416m116.33-10-37.6,3.24m-3.13,2.79,3.13-.26m-5,.43,1.91-.17m-1.92-7.09-14.51,1.28m16.43-1.45-1.92.17m5-.44-3.12.27m0,2.55,3.12-.28m-5,.44,1.92-.16m-83,7.21,38.53-3.34M1051,407.55l-3.15.28m84.2-7.58-14.51,1.31M1051,410l38.53-3.42m-41.68,3.7L1051,410m-4.93.44,1.78-.16M1051,403l-3.15.3m41.68-3.84L1051,403m0,2.49,38.53-3.5m-41.68,3.79,3.15-.29m-4.93.45,1.78-.16m3.15-7.33-3.15.28m41.68-3.91L1051,398.43m-3.15,2.78,3.15-.29m-4.93.46,1.78-.17m3.15-7.35-3.15.3m41.68-4-38.53,3.7m-3.15,2.81,3.15-.3m-4.93.47,1.78-.17m3.15-7.37-3.15.31m41.66-4.09L1051,389.3m-3.15,2.83,3.15-.3m-4.93.47,1.78-.17m3.14-7.4-3.14.31m41.66-4.17L1051,384.73m-3.14,2.86,3.15-.32m0-7.11-3.15.33m41.67-4.26L1051,380.16" transform="translate(-220.87 -263.8)" fill="none" stroke="#f7f8f9" stroke-miterlimit="10" stroke-width="2"/><path d="M1047.87,383.05l3.14-.33m0-7.11-3.15.32m41.67-4.34-38.52,4m-3.15,2.89,3.15-.32m-4.93.5,1.78-.18m-1.78-6.93-3.16.34m4.94-.53-1.78.19M1051,371l-3.15.34m3.15,2.25,38.52-4.06M1047.86,374l3.15-.32m-4.93.51,1.78-.19m-1.78-6.93-3.16.33m4.94-.53-1.78.2m4.93-.54-3.15.34m3.15,2.25,38.52-4.13m-41.67,4.47,3.15-.34m-4.93.54,1.78-.2m-1.78-7-3.16.35m4.94-.55-1.78.2m4.93-.55-3.15.35m3.15,2.27,38.52-4.21m-41.67,4.55,3.15-.34m-4.93.54,1.78-.2m3.15-7.51-3.15.35m41.67-4.69L1051,357.36m0,2.62,38.52-4.28m-41.67,4.63L1051,360m-4.93.55,1.78-.2m3.15-7.54-3.15.37m41.66-4.78L1051,352.79m0,2.64,38.51-4.36m-41.66,4.72,3.15-.36m-4.93.56,1.78-.2m3.15-7.56-3.15.37m41.66-4.86L1051,348.23m0,2.66,38.51-4.45m-41.66,4.81,3.15-.36m-4.93.56,1.78-.2m3.15-7.59-3.15.38m41.66-4.94L1051,343.66m0,2.67,38.51-4.51m-41.66,4.89,3.15-.38m-4.93.59,1.78-.21m3.15-7.6-3.15.37m0,2.69,3.15-.38m-4.93.59,1.78-.21m3.15-7.63-3.15.39m0,2.7,3.15-.39m-4.93.6,1.78-.21M1051,330l-3.15.4m0,2.7,3.15-.38m-4.93.6,1.78-.22m3.14-7.65-3.14.39m25.22-3.19-22.08,2.8m0,2.71,31.83-4m-35,4.39,3.15-.4m-4.93.63,1.78-.23m3.14-7.68-3.14.41m9.06-1.17-5.92.76m0,2.74,15.59-2M1047.86,324l3.14-.4m-4.92.63,1.78-.23m3.14-7.71-3.15.42m84.17-11-37.52,4.9m0,2.8,37.52-4.86m-84.16,10.9,3.14-.41m-4.93.64,1.79-.23m46.64-10.68,37.52-4.92m-84.17,11.06,3.15-.41m-4.93.65,1.78-.24m-200,292.89h1.23m19.16-24.46,1.14,0M868.3,537l1.13,0m-1.12-4.16,1.13,0m-1.13-4.17,1.13-.05m-1.13-4.17,1.13,0m-1.13-4.17,1.13-.05M868.31,516l1.13,0m-1.13-4.17,1.13,0m-1.12-4.15,1.12-.07m-1.12-4.14,1.14-.06m-1.14-4.15,1.14-.07m-1.14-4.14,1.14-.06m-1.14-4.14,1.14-.08m-1.14-4.14,1.14-.06m-1.13-4.14,1.13-.06m-1.13-4.15,1.14-.07m-1.14-4.13,1.14-.07m-1.14-4.15,1.14-.07m-1.14-4.13,1.14-.07m-1.14-4.13,1.14-.09m-3.32,295.17v1.06m0-41.67,0,40.61m-32.9-215.08-33.63,1.13m35-1.17-1.41,0m33.6-1.13-31.41,1.06m-156.3,77.35-73.46-.35m79.82.37-6.36,0m60.08,15.71,32.92-.37M571.34,713l0,16.35m.14-94.54L571.34,713m-31.29,18.42v-1m177.59,19.52-23.78-1.74m-220.2,68.57L684,842.88M469.6,816.25l4.06.5M319.59,797.61l150,18.64M308.13,796.19l11.46,1.42M1271,820.13l136.49-17.55m11.15-217.82-1.33,0M1213,610.11l.16,206.2m57.41-406,0,24.63m-95.79,146.51v-2m.14,210.14-.12-182.14m302.39,3.58V607.9m.18,106.18-.18-103m-149,.15v-3.51m.14,117.23-.13-113.72m21.59-165.36-24-2.52m24,4.83-24-2.48m25.22,2.6-1.24-.12m29.51,134.62-28.1-.5M1302.63,771v3.58m-.05-47.7v3.58m81.47-119.25.06,40.71m-.06-43v2.27M1458,755.35l0,3.23m-.08-43.07v3.23m-607.48-111h-1.23m17.77,0H850.45m28.79,0H878m-44.78-23-30.55.38m34-.42-1.59,0m51.67-8.22v2.42m0-44.76v2.28m103-96v95.05m0-96.26v1.21m56.39,140.76-3.17,0m91.12-1.16-1.92,0m5-.07-3.13,0m-63.9-3.79-16.18.24m0,1.94,16.18-.22m0-6.58-16.19.28m0,2,16.18-.26m0-6.59-16.19.3m0,2,16.19-.28m0-6.6-16.19.33m0,2,16.19-.33m0-6.61-16.19.38m0,2,16.19-.36m0-6.62-16.19.4m0,2,16.19-.39m0-6.65L1054,549m0,2.05,16.18-.43m0-6.66-16.18.47m0,2,16.18-.45m0-6.67-16.18.5m0,2.07,16.18-.5m0-6.69-16.18.54m0,2.08,16.18-.52m0-6.7-16.18.57m0,2.09,16.18-.55m0-6.71-16.18.59m0,2.11,16.18-.58m0-6.73-16.18.63m0,2.12,16.18-.61m0-6.75L1054,517m0,2.13,16.18-.65m0-6.76-16.19.7m0,2.15,16.19-.68m0-6.77-16.18.74m0,2.15,16.19-.72m0-6.77-16.18.76m0,2.17,16.18-.75m0-6.8-16.18.8m0,2.2,16.18-.79m0-6.81-16.18.83m0,2.21,16.18-.82m0-6.82-16.18.86m0,2.22,16.18-.85m0-6.84L1054,485m0,2.23,16.18-.88m0-6.85-16.18.92m0,2.25,16.18-.91m0-6.88-16.18,1m0,2.25,16.18-.94m0-6.89-16.18,1m0,2.28,16.18-1m0-6.9-16.18,1m0,2.29,16.18-1m0-6.91L1054,462.13m0,2.31,16.16-1.05m0-6.92-16.17,1.1m0,2.31,16.16-1.08m0-6.93L1054,453m0,2.33,16.17-1.11m0-6.95L1054,448.42m0,2.35,16.17-1.15m-24-5.19-3.16.23m5-.36-1.79.13m45.32-3.34-1.85.14" transform="translate(-220.87 -263.8)" fill="none" stroke="#f7f8f9" stroke-miterlimit="10" stroke-width="2"/><path d="M1094.55,440.85l-3.14.24m40.68-3-37.54,2.77M1054,446.22l16.17-1.19M1054,439.28l-2.94.23m43.53-.89,37.54-2.81m-40.68,3.05,3.14-.24m-5,.37,1.85-.13m-9.17-6.35L1051,434.94m83-6.46-1.92.15m5-.4-3.12.25m-39.45,5.5,37.53-2.88m-40.67,3.12,3.14-.24m-5,.39,1.85-.15M1051,430.37l-3.15.25m0,2.4,3.15-.25m-4.93.39,1.78-.14m3.15-7.21-3.15.26m0,2.41,3.15-.26m-4.93.4,1.78-.14M1089.55,418l-7.31.61m51.75-4.34-1.91.16m5-.42-3.13.26m-86.12,9.66,3.15-.26m-4.93.39,1.78-.13m-1.78-6.84-3.16.28m4.94-.43-1.78.15m86-7.4L1117.56,411m0,2.52,14.52-1.23m-42.53,3.61,1.84-.16m-1.84-4.46,1.84-.17m-45.3-3.07-3.16.29m4.94-.45-1.78.16m43.46-1.39,1.84-.16m-45.3-3-3.16.29m4.94-.45-1.78.16m86-7.92-14.51,1.33m-28,5.12,1.84-.18m-45.3-2.9-3.16.3m4.94-.48-1.78.18m86-8.1-14.51,1.37m0,2.57,14.51-1.34m-81,7.53,38.53-3.58m-43.46-3-3.16.3m4.94-.47-1.78.17m86-8.27-14.5,1.4M1051,396.37l38.53-3.66m-43.46-2.93-3.16.31m4.94-.48-1.78.17m86-8.44-14.51,1.42M1051,391.83l38.53-3.75m-43.47-2.85-3.15.31m4.94-.5-1.79.19m45.3-4.54-1.85.18m-43.45-.19-3.15.32m4.93-.51-1.78.19m45.3-4.65-1.85.2m-43.45-.11-3.16.33m4.94-.52-1.78.19m45.3-4.73-1.85.2M1051,378.18l38.52-4m0-7.25L1051,371m38.52-1.47,1.85-.18m-1.85-7.09L1051,366.48m38.52-1.54,1.85-.19m-1.85-7.09L1051,361.91m38.52-1.59,1.85-.2m-45.3-2.21-3.16.35m4.94-.55-1.78.2m45.29-5.09-1.84.2m0,2.68,1.85-.21m-45.3-2.13-3.16.36m4.94-.56-1.78.2m45.29-5.18-1.85.2m-43.44.42-3.16.38m4.94-.58-1.78.2m45.29-5.27-1.85.21m-43.44.51-3.16.37m4.94-.58-1.78.21m45.29-5.36-1.85.21m-43.44.6-3.16.38m4.94-.6-1.78.22m43.44-5.23L1051,339.11m81-9.77-14.51,1.75M1051,341.79l38.51-4.6m-43.44-2.05-3.16.4m4.94-.61-1.78.21m43.44-5.31L1051,334.54m81-9.93-14.51,1.78M1051,337.24l38.51-4.68m-43.44-2-3.16.39m4.94-.61-1.78.22m71.44-8.9-23,2.86m37.53-4.67-14.51,1.81m0,2.79,14.51-1.8m-37.53,4.63,23-2.83M1051,332.7l38.51-4.75m-43.44-1.9-3.16.4m4.94-.63-1.78.23m86-10.89-37.53,4.75m-48.43,1.59-3.15.41m4.94-.64-1.79.23m86-11.07-37.52,4.83m0,2.79,37.53-4.78m-86,3.67-3.15.41m4.93-.64-1.78.23m43.44-5.67-38.51,5m0,2.76,38.51-5m-38.51.45,38.51-5.06M866.82,583.35h1.46m-6.85.09,5.39-.08m0-46.27,1.45-.05m-6.85.24,5.4-.19m0-4.21,1.46,0m-6.85.26,5.39-.21m0-4.21,1.46,0m-6.85.26,5.39-.21m0-4.2,1.45-.07m-6.85.29,5.4-.22m0-4.21,1.45-.06m-6.85.3,5.4-.24m0-4.2,1.45-.06m-6.85.31,5.4-.25m0-4.2,1.45-.08m-6.85.33,5.4-.25m0-4.21,1.46-.07m-6.85.33,5.39-.26m0-4.2,1.46-.08m-6.85.35,5.39-.27m0-4.21,1.45-.08m-6.85.37,5.4-.29m0-4.21,1.45-.08m-6.85.39,5.4-.31m0-4.21,1.45-.07m-6.85.39,5.4-.32m0-4.2,1.45-.09m-6.85.41,5.4-.32m0-4.2,1.46-.09m-6.86.42,5.4-.33m0-4.21,1.46-.09m-6.85.44,5.39-.35m0-4.2,1.46-.09m-6.85.45,5.39-.36m0-4.21,1.45-.1m-6.85.48,5.4-.38m0-4.2,1.45-.1m-6.85.49,5.4-.39m0-4.2,1.45-.1m-6.85.48,5.4-.38m-326.67,173-75.55-1.08M681.83,620l41.89-.19m-69.36-.37-41.63.19m-72.64,94.79.12-80m-.16,96,0-16m877.24-129.64-16.07-.26M1213,607.54v2.57m57.77-2.46.17,170.8m-.2-199.8v2.57m-.2-215.64,0,44.75m-95.74,197.18,0-26m302.59,135.76v-3.2m.06,39.17-.06-36m-149,11.2V725m0,43.25,0-39.73M1042.93,401v2.71M1350.06,582.3l-24-.42m25.22.43h-1.24M1001.34,770v-2.32m0,35.35v-4.82m0,5.73V803m301.11-191.73.13,115.58m-.13-118v2.4m155.3-.16.18,104.4M1457.75,609v2.16m-581-3.4-9.73,0m-64.31-22.68-1.59,0M937.54,413.66l-31,2.84M886.73,572.19v2.42m0-44.75v2.27m161.16,49-1.79,0m4.94-.06-3.15,0m6.08-4.65-2.93,0m0,2,2.93-.05m0-6.52-2.92.05m0,2,2.93,0m0-6.55-2.92.06m0,2,2.92-.05m0-6.55-2.93.07m0,2,2.93-.06m0-6.56-2.93.06m0,2,2.93-.07m0-6.58-2.93.07m0,2,2.93-.07m0-6.6-2.93.09m0,2,2.93-.07m0-6.62-2.93.09m0,2.05,2.93-.09m0-6.62-2.93.08m0,2.07L1054,542m0-6.65-2.93.1m0,2.08,2.93-.1" transform="translate(-220.87 -263.8)" fill="none" stroke="#f7f8f9" stroke-miterlimit="10" stroke-width="2"/><path d="M1054,530.73l-2.93.1m0,2.09,2.93-.1m0-6.67-2.93.12m0,2.09,2.93-.1m0-6.68-2.93.12m0,2.11,2.93-.11m0-6.69-2.93.11m0,2.14,2.93-.12m0-6.71-2.92.13m0,2.14,2.92-.12m0-6.71-2.92.12m0,2.16L1054,510m0-6.73-2.94.14m0,2.17,2.92-.14m0-6.75-2.94.15m0,2.18,2.94-.13m0-6.77-2.94.15m0,2.2,2.94-.14m0-6.78-2.94.16m0,2.21,2.94-.15m0-6.79-2.94.16m0,2.24,2.94-.17m0-6.81-2.94.18m0,2.24,2.94-.17m0-6.81L1051,476m0,2.26,2.94-.18m0-6.83-2.94.19m0,2.27,2.94-.18m0-6.85-2.94.19m0,2.28L1054,469m0-6.87-2.94.2m0,2.3,2.94-.19m0-6.87-2.93.2m0,2.31,2.94-.2m0-6.89-2.93.21m0,2.32,2.93-.2m0-6.9-2.93.22m0,2.33,2.93-.2M1134,438l-1.91.13m5-.37L1134,438m-83,8.48,2.93-.21m-7.87-6.34-3.16.24m91.07-4.44,3.13-.24m-5,.37,1.91-.13m-86.13-.5-1.78.13m4.93-.37-3.15.24M1134,431l3.12-.24m-5,.39L1134,431m-87.91-.19-3.16.26m4.94-.4-1.78.14m0-4.55-3.16.26m4.94-.4-1.78.14m86-11.77-37.54,3.15m39.45-8-1.92.16m5-.42-3.13.26m-42.6,6.15,3.15-.26m-23.22,2,18.23-1.55m-30.36,2.57,12.13-1m18.23-8.68L1051,412.11m66.54-5.85-22.32,2m22.32.56,14.51-1.26m-42.52-3.44L1051,407.55m66.54-6-22.34,2m22.34.53,14.51-1.29m-14.51-3.4,14.51-1.31m-36.85-1.29,22.34-2.08m-26.17,2.44,3.13-.29m-5,.46,1.84-.17m26.17-7.13,14.51-1.37m-36.85,3.49,22.34-2.12m-26.17,2.5,3.13-.3m-5,.47,1.84-.17m26.16-7.17,14.51-1.41m-36.84,3.58,22.33-2.17m-26.17,2.53,3.14-.3m-5,.48,1.83-.18m40.68-11.29-14.51,1.46m-66.53,9.2,38.51-3.81m42.53-11.58-14.51,1.48M1051,382.72l38.52-3.89m42.53-11.68-14.51,1.51m0,2.65,14.51-1.49m-36.84,3.79,22.33-2.3m-26.17,2.7,3.14-.32m-5,.51,1.85-.19m0-7.26-1.85.2m1.85,2.44,3.14-.34m-3.14-6.95-1.85.2m1.85,2.45,3.13-.34m-3.13-7-1.85.2m1.85,2.46,3.13-.34M1132,348.24l-14.5,1.64m-26.16,5.61,3.13-.35M1132,343.51l-14.5,1.66m-26.17,5.69,3.14-.36m-5,.57,1.85-.21M1132,338.79l-14.5,1.69m-26.17,5.75,3.14-.36m-5,.57,1.85-.21M1132,334.07l-14.49,1.71m-26.17,5.82,3.14-.37m-5,.59,1.85-.22m0-7.36-1.85.23m5-.61-3.14.38m26.15-3.15-22.32,2.69m22.34.07,14.49-1.74m-36.83,4.41,22.34-2.67M1091.37,337l3.14-.38m-5,.59,1.85-.21m0-7.39-1.85.24m5-.61-3.13.37m26.15-3.2-22.32,2.74m22.32,0,14.51-1.76m-36.83,4.46,22.32-2.7m-26.15,3.17,3.14-.38m-5,.6,1.85-.22m-1.9-7.15L1051,330m40.36-5-1.85.24m5-.63-3.13.39m0,2.76,3.13-.39m-5,.63,1.85-.24m-1.85-7.16-16.44,2.08m44.44-2.83L1132,318m-37.53,4.71,23-2.89m-34.68,4.35,6.68-.83m0-7.41-32.59,4.19m9.67,1.51,22.93-2.92m1.84-7.66-1.85.24m5-.65-3.14.41m0,2.79,3.14-.4m-5,.64,1.85-.24m0-4.62,3.14-.42m-5,.67,1.85-.25M840.72,607.81h6.86m-128.51,26.7,20.15-.23m-275.49-1-53.12-.76m54.05.77h-.93M628.39,620.2l43.92-.2m-69-.39-43.56.19M691.78,748l-6.43-.48m7.71.58-1.28-.1m579-166.81v1.72m-.24-250.6,0,33.24m-.09-86.35,0,53.11m-95.7,244.3v-1.95m0,4.82v-2.76M919.77,384.83l40.42-4.3m-150.53,16,110.11-11.71M716.7,406.44l93-9.9m37.92,211.2h-6.86m8.4,0h-1.23M886.73,568v2.39m0-44.73v2.27m164.31,48.62-3.15,0m0,2,3.15,0m-4.94.06,1.79,0m3.15-6.56-3.15,0m0,2,3.15-.05m-4.94.08,1.79,0m3.15-6.58-3.17.06m0,2,3.17-.07m-4.94.09,1.77,0m3.16-6.6-3.16.06m0,2,3.16-.06m-4.93.1,1.77,0m3.16-6.62-3.16.07m0,2,3.16-.07m-4.93.11,1.77,0m3.16-6.65-3.16.08m0,2,3.16-.08m-4.93.12,1.77,0m3.16-6.66-3.16.08m0,2,3.16-.08m-4.93.13,1.77,0m3.16-6.68-3.16.09m0,2,3.16-.08m-4.93.13,1.77-.05m3.16-6.71-3.16.1m0,2.06,3.16-.09m-4.93.14,1.77,0m3.16-6.72-3.16.11m0,2.07,3.16-.1m-4.93.15,1.77,0m3.16-6.75-3.16.11m0,2.09,3.16-.11m-4.93.17,1.77-.06m3.16-6.76-3.16.11m0,2.11,3.16-.13m-4.93.19,1.77-.06m3.16-6.79-3.16.13m0,2.1,3.16-.12m-4.93.19,1.77-.07m3.16-6.81-3.16.14m0,2.13,3.16-.13m-4.94.19,1.78-.06m3.16-6.83-3.16.13m0,2.15,3.16-.14m-4.94.21,1.78-.07m3.16-6.85-3.16.15m0,2.16,3.16-.15" transform="translate(-220.87 -263.8)" fill="none" stroke="#f7f8f9" stroke-miterlimit="10" stroke-width="2"/><path d="M1046.11,510.37l1.78-.07m3.14-6.87-3.15.15m0,2.17,3.17-.15m-4.94.23,1.77-.08m3.15-6.89-3.15.15m0,2.19L1051,501m-4.92.25,1.77-.09m3.15-6.91-3.15.17m0,2.19,3.15-.16m-4.92.25,1.77-.09m3.15-6.92-3.15.16m0,2.22,3.15-.17m-4.92.26,1.77-.09m3.15-6.95-3.15.18m0,2.22,3.15-.16m-4.92.26,1.77-.1m3.15-7-3.15.17m0,2.25,3.15-.18m-4.92.28,1.77-.1m3.15-7-3.15.19m0,2.24,3.15-.17m-4.92.29,1.77-.12m3.15-7-3.15.18m0,2.27,3.15-.18m-4.92.3,1.77-.12m3.15-7-3.15.2m0,2.28,3.15-.2m-4.92.31,1.77-.11m3.15-7.05-3.15.2m0,2.3,3.15-.2m-4.92.32,1.77-.12m3.15-7.06-3.15.21m0,2.31,3.15-.21m-4.92.32,1.77-.11m3.15-7.09-3.15.21m0,2.34,3.15-.23m-4.92.34,1.77-.11m3.15-7.11-3.15.22m0,2.33L1051,451m-4.94.35,1.79-.13m0-4.54,3.15-.22m-4.94.35,1.79-.13m0-6.91-1.78.14m4.93-.37-3.15.23m43.52-21.89-1.84.16m5-.42-3.15.26m3.85-2.48,22.32-1.9m-26.17-4.91-1.84.16m5-.44-3.15.28m0,2.5,3.15-.27m-3.15-6.87-1.84.16m5-.45-3.15.29m0,2.52,3.15-.29m-3.15-6.89-1.84.18m5-.46-3.15.28m26.17-2.41-22.34,2.06m-3.83,2.88,3.15-.28m-3.15-6.89-1.84.18m5-.48-3.13.3m26.17-2.46-22.34,2.1m-3.84-4.28-1.83.18m5-.49-3.14.31m26.18-2.52-22.34,2.15m-3.84-4.28-1.85.19m5-.49-3.14.3m26.17-2.57L1095.22,385m-.7-4.57-3.14.31m26.17,0,14.51-1.44m-36.84,3.66,22.33-2.22m-26.17,2.59,3.14-.31m-5,.5,1.85-.19m3.14-7.55-3.14.31m26.17,0,14.51-1.48m-36.84,3.73,22.33-2.25m-26.17,2.64,3.14-.31m-5,.5,1.85-.19m3.14-7.57-3.14.32m40.68-9L1117.55,364M1132,357.7l-14.49,1.57M1132,353l-14.5,1.61m-23-2.11-3.14.35m3.14-5-3.14.36m26.17-.29,14.5-1.63m-36.83,4.16,22.33-2.53m-23-4.73-3.14.37m26.17-.32,14.5-1.67m-36.83,4.24,22.33-2.57m-23-4.7-3.14.38m26.17-.35,14.49-1.71m-36.82,4.33,22.33-2.62m-26.18-18.23-1.84.24m5-.64-3.14.4m0,2.77,3.13-.39m-5,.63,1.85-.24m0-7.41-1.85.24m5-.65-3.14.41m0,2.78,3.14-.4m-5,.64,1.84-.24M820.82,607.83l19.9,0m-123,26.71h1.31M694,634.8l23.78-.28m-25.85.3h1.27m-7.71.08,6.44-.07M679,747.09l-55-4m61.3,4.49-6.35-.46m722.26-162.62-20.66-.35m-109.83-1.18,0,24.69m0-30.93v1.83m-227.84-182v2.71m-80.77-18.88,18.29-1.94m-20.26,2.16,2-.22M840.72,607.75h-19.9m84.95-191.18-30.08,2.77m11,144.38v2.38m0-44.72v2.24m159.37,53-3.17,0m5-.08-1.79,0m0-4.55-3.17.05m5-.09-1.79,0m0-4.57-3.17.06m4.94-.09-1.77,0m0-4.55L1043,563m4.94-.1-1.77,0m0-4.57-3.17.08m4.94-.12-1.77,0m0-4.55-3.17.07m4.94-.12-1.77,0m0-4.57-3.17.09m4.94-.13-1.77,0m0-4.55-3.17.09m4.94-.14-1.77,0m0-4.55-3.17.1m4.94-.17-1.77.07m0-4.57-3.17.11m4.94-.16-1.77,0m0-4.55-3.17.11m4.94-.18-1.77.07m0-4.57-3.17.13m4.94-.19-1.77.06m0-4.55L1043,522m4.94-.18-1.77.06m0-4.56-3.17.13m5-.2-1.78.07m0-4.56-3.17.14m5-.22-1.78.08m0-4.55-3.17.15m5-.23-1.78.08m0-4.56-3.17.15m4.94-.23-1.77.08m0-4.56-3.17.16m4.94-.25-1.77.09m0-4.56-3.17.17m4.94-.25-1.77.08m0-4.55-3.17.16m4.94-.26-1.77.1m0-4.55-3.17.17m4.94-.27-1.77.1m0-4.57-3.17.19m4.94-.29-1.77.1m0-4.55-3.17.19m4.94-.29-1.77.1m0-4.55-3.17.19m4.94-.31-1.77.12m0-4.56-3.17.2m4.94-.31-1.77.11m0-4.56-3.17.21m4.94-.33-1.77.12m0-4.56-3.17.21m4.94-.32-1.77.11m0-4.55-3.15.22m4.94-.35-1.79.13m0-4.55-3.15.22m4.94-.35-1.79.13m49.15-38.26,22.32-2m-22.34-2.69,22.34-2m-22.34-2.65,22.34-2m0-21.34-22.33,2.23m22.33-6.94-22.33,2.29m22.33-7L1095.21,371m-.69-4.58-3.14.33m26.17-.12,14.51-1.52M1095.21,369l22.34-2.34m-23-4.87-3.13.34m26.17-.15,14.49-1.56m-36.83,3.94,22.34-2.38m-23-4.84-3.13.35m26.16-.2,14.5-1.58m-36.83,4,22.33-2.45m0-7.38-22.33,2.5m22.33.2L1132,351m-36.83,4.1,22.33-2.48m0-7.41-22.33,2.56m22.33-7.25-22.33,2.6m22.33-7.3-22.34,2.66M679.13,635l6.34-.08m-59.62.68,53.28-.6m701.47-50.85-1.2,0m-108.63-10v2.56m-95.94-4.88v-2m0,4.82v-2.75" transform="translate(-220.87 -263.8)" fill="none" stroke="#f7f8f9" stroke-miterlimit="10" stroke-width="2"/><path d="M1001.34,610.06v-2.31M799.6,585.08l-33.18.42m120.32-26v2.37m0-44.7v2.23M1117.55,364l-22.34,2.37m22.34-7.07-22.34,2.42m22.33-7.11L1095.21,357M1379.4,584.1l-28.1-.46M1042.93,391.93v2.7M766.42,585.5l-6.76.08M874.93,419.42l-29.2,2.68m41,133.16v2.35m0-44.69v2.22m463.31,68.47-24-.4m25.22.43-1.24,0m-79.3-11.44V574m-95.94-7v-2m0,4.82v-2.74M1001.34,723.59V610.06m0,115.86V723.6m0,43.93V725.92M886.74,551v2.34m0-44.67v2.21m-68.53,96.94h1.24m451.3-38.19v2.52M1042.93,387.39v2.7M819.46,607.76h-1.24M845,422.17l-28.37,2.62m70.12,122v2.33m0-44.66v2.2M816.38,607.84h1.84m356.61-45.66v-2m0,4.83v-2.72M818.22,607.76h-1.84m70.36-65.2v2.31m0-44.65,0,2.18M809.51,607.84h6.87m-20,0h13.12m461.25-40.18v1.83M1042.93,382.83v2.71M809.51,607.77l-50.44.06m57.31-.07h-6.87m6.39-182.92-27.58,2.53M886.77,496v2.17m384,67v2.51m-95.94-10.29v-2m0,4.81v-2.69m-288-65.77v2.16m156.15-115.63V381M787.64,427.44l-26.81,2.47m125.94,57.62v2.14m384,73.47V565m-95.94-12.42v-1.95m0,4.82v-2.7M760.14,430l-.93.09m127.56,53.23v2.13m384,75.23v2.49m-227.84-189.4v2.71M886.77,479.06v2.12m288,66.54v-2m0,4.83v-2.68m-288-73.08v2.11m384,81.67v1.84M1042.92,369.2v2.71M886.77,470.6v2.09m384,83.45v2.47m-95.93-15.72V541m0,4.81v-2.65m-288-76.73v2.07m0-14.76v2m156.14-91v2.69M886.78,462.13v2.08m384,89.89v1.83m-95.94-17.85v-2m0,4.83V538.3m-288-80.39v2m384,91.68v2.46m-227.83-194v2.71m131.89,170.44v-1.94m0,4.81v-2.63m95.94,16.09v1.82M1042.92,355.56v2.7m227.82,188.88v2.44m-95.94-21.14v-2m0,4.82v-2.62M1042.92,351v2.71m227.82,191.33v1.84m-95.93-23.27v-2m0,4.83v-2.61m95.93,18.75v2.42M1042.92,346.47v2.71M1174.8,518.79v-1.94m0,4.81v-2.58m95.94,21.46v1.83M1042.92,341.93v2.69m227.82,193.51v2.41M1174.8,514v-2m0,4.83v-2.57m-131.88-176.9v2.7M1270.74,536v1.84m-95.94-28.7v-2m0,4.81v-2.54m95.93,24.16V536M1042.92,332.84v2.7m131.88,168.8,0-1.95m0,4.82v-2.54m95.93,26.84v1.82M1042.92,328.28V331m227.81,198.15v2.37m-96-32v-1.95m0,4.82v-2.53M1042.92,323.74v2.71M1270.73,527v1.83m-96-34.1v-2m0,4.82v-2.52m96,29.58V527M1042.92,319.2v2.71m131.86,168v-1.95m0,4.82v-2.5m95.93,32.21,0,1.84M1042.92,314.65v2.7m227.79,202.78v2.33m-95.93-37.4v-1.94m0,4.81v-2.48m95.93,32.5v1.83m-95.94-39.53v-2m0,4.83v-2.47m95.94,35V518m-95.94-42.52v-2m0,4.82v-2.45m95.94,37.59v1.82m0-4.12v2.3m-95.94-42.83v-1.94m0,4.81V471m95.93,37.86v1.84m-95.93-44.95v-2m0,4.82v-2.42m95.93,40.39v2.27M1174.76,461V459m0,4.81v-2.4m95.94,42.95v1.83m0-4.09v2.26m-95.94-48.23v-2m0,4.83v-2.4m95.94,43.24v1.83m-95.94-50.36v-1.95m0,4.81v-2.37m95.93,45.79v2.25m-96-53.34v-2m0,4.82V447m95.93,48.32v1.84m0-4.06v2.22m-95.94-53.65v-1.94m0,4.81v-2.34m95.94,48.61v1.82m-95.94-55.77v-1.95m0,4.82v-2.34m95.94,51.21v2.21m-95.94-58.77v-1.95m0,4.82v-2.32m95.93,53.7v1.82m0-4v2.19m-95.94-59.06v-1.95m0,4.81v-2.3m95.94,54v1.84m-95.94-61.19v-1.95m0,4.82V423m95.94,56.59v2.17m-95.94-64.17v-1.94m0,4.81v-2.27m95.94,59.06v1.83m0-4v2.15m-95.94-64.47v-2m0,4.83v-2.26m95.93,59.34v1.84m-96-66.61V406m0,4.81,0-2.23m96,62v2.13m-96-69.58v-2m0,4.82v-2.22m96,64.43v1.83m0-3.95v2.12m-96-69.89v-1.95m0,4.81V399m96,64.72v1.83m-96-72v-2m0,4.82v-2.19m95.93,67.42,0,2.09m-96-75v-2m0,4.81v-2.17m95.94,69.8v1.83m0-3.92v2.09m-95.94-75.3v-2m0,4.82v-2.16m95.94,70.08v1.82m-95.94-77.42v-2m0,4.82v-2.15m95.94,72.83v2.06m-95.94-80.41v-2m0,4.81V375" transform="translate(-220.87 -263.8)" fill="none" stroke="#f7f8f9" stroke-miterlimit="10" stroke-width="2"/><path d="M1270.65,450.18V452m0-3.87v2m-96-80.71v-1.94m0,4.8v-2.11m95.94,75.45v1.82m-95.94-82.83v-2m0,4.82v-2.11m95.94,78.21v2m-95.94-85.83V357.9m0,4.81v-2.09m95.94,80.53V443m0-3.83v2M1174.7,355v-1.95m0,4.82v-2.09m95.93,80.83v1.82m0-3.5v1.68m-95.94-86.43v-1.94m0,4.81V351m0-5.62v-1.95m0,4.82v-2m0-5.64v-1.94m0,4.81v-2m0-5.64v-2m0,4.82v-2m0-5.67V329m0,4.81v-2m0-5.67V324.2m0,4.81v-2m0-5.7v-1.94m0,4.81v-2m0-5.71,0-1.95m0,2.86v-.91m0,2.87v-2m0-5.71v-2m0,2.88v-.92m0,2.85v-1.93m0-5.74V305m0,2.89v-.94m0,2.86v-1.92m0-5.75v-1.95m0,2.91v-1m0,2.86v-1.9m0-5.78v-1.95m0,2.92v-1m0,2.87v-1.9m0-2.92v-1M805.37,831.23l4.68-.16m42.32-29.69,314.39,29.47M853.21,796.64l37.31-3.4m99.21-359L669,460M853.21,796.15l37.31-3.39m-36.64-5.9,27.44-2.36M652.93,586.89l.16-126.07M706,462.5l-.12,123.74m208.58,46,0,131.33m.05-144.68V607.83M1213,610.11h27.29" transform="translate(-220.87 -263.8)" fill="none" stroke="#f7f8f9" stroke-miterlimit="10" stroke-width="2"/></svg>