<svg id="Layer_1" data-name="Layer 1" xmlns="http://www.w3.org/2000/svg" viewBox="0 0 1773.7 932.35"><path d="M1003.83,731.59,828,744.89m181.2-13.68-5.36.38m10.5-.7-5.14.32m10.22-.58-5.08.26m10.09-.48-5,.22m9.93-.38-4.92.16m9.73-.26-4.81.1m9.51-.16-4.7.06m9.28-.06h-4.58m9,0-4.42,0m8.69.15-4.27-.11m8.37.26-4.1-.15m8,.36-3.92-.21m7.64.47-3.72-.26m7.24.58-3.52-.32m6.82.68-3.3-.36m6.37.77-3.07-.41m5.89.86-2.82-.45m5.39,1-2.57-.52m4.87,1.08-2.3-.56m4.33,1.16-2-.6m3.77,1.27-1.74-.67m3.17,1.36-1.43-.69m2.57,1.42-1.14-.73m35.48,43L1088.61,737m-198-41.25L985,691.18m-69.62-14.86,69.93-2.6m110.38,60.77,1.32.82m-3-1.59,1.66.77M1092,733l2,.71m-4.28-1.38,2.3.67m-4.89-1.29,2.59.62m-5.48-1.18,2.89.56m-6.05-1.06,3.16.5m-6.59-.95,3.43.45m-7.1-.85,3.67.4m-7.59-.74,3.92.34m-8-.63,4.13.29m-8.47-.52,4.34.23m-8.88-.39,4.54.16m-9.27-.27,4.73.11m-9.62-.17,4.89.06m-15.14,0,5.2-.06m-10.53.18,5.33-.12m-10.77.3,5.44-.18m-11,.41,5.53-.23m-11.15.52,5.62-.29m-11.31.64,5.69-.35m-11.43.75,5.74-.4m-179.5,13.39,173.76-13m223.26-38.13-33.06-10.58m226.12,72.33-275.81,34.31m151-109.24-31.74,1.61m56.93,3.54-25.19-5.15m25.19,6.46-27.72-5.79m0,0-25.6,1.31m0,0,53.31,12.41M1098,736.17,1134.4,777m129.17-95.55L1320.49,695m56.74,38.9,42.94,19.94M1267.6,686.1l52.89,13.28m99.68,54.49,53.65-6.67m-96.59-13.27,57.4-5.87m-207.49-39.72,150.09,45.59m57.4-5.87L1338.8,704m95.83,24.08,14.9,5.83m0,3.64,24.26,9.67m0,3.27,0-3.27m-153.3-80-25.18-3.86m-81.48-3.56,0,5.1m7.6-5.35-7.57.25m235.47,38.59L1338.8,678.68m-40.37-15.43,22.09,3.34m-99.09-7,0,5.08m35.79-6.25-35.76,1.17m274.41,88.11-.07-9.62m67.17,1.07-.11-9M1338.8,704v-25.3m517.48,15-.64-25m9.23-.71-9.23.71M1801,672.89l-11.11.86m-66.48,5.18L1709.74,680m-82.15,40.08-.48-33.65m-16.71,35.64-.46-34.31m17.17-1.33-17.17,1.33m232.43-19.91,13.27.79M1597,686.28l12.92,1.48m-12.49,32.1,13,2.21m17.19-2-17.19,2M1724,709l-13.65,1.58m132.67-18,13.3,1.18m9.23-1.06-9.23,1.06m-146,16.86-.57-30.54m-12.86,28.78,13.43,1.76m-14-31.72,13.38,1.18m91.83,18.16-.58-25.27M1790.41,697l-.53-23.29m-17.83-1.27,17.83,1.27m75.63,18.87-.64-24.69M1597,686.28l-16.22,1.21m16.65,32.37-.43-33.58m99.86,22.5-.52-30M1843,692.5l-.61-24.65m-297.95,58.62,18.41,3.65m0,0-67.06,7.93M1168.8,543l-3.3,1.36m136.25-56.65,0,24.26m0,0-102.56,34.63m-3.36-14.83-.1,14.65m.1-14.65-27,11.23m133-55.29-9.93,4.13m9.89,51.69,18.9-4.46m-59.78,2,40.88,2.45m48.09-27.43-48.09-4.13m46-158.3L1302,343.38m-105.42,77.05-30.26,28.95m30.26-28.95-.11,15.83m-30.26,26.63.11-13.51M1302,319.53l0,23.85m0-23.85-105.46,100.9m45.58,256.62-28.69-6.9m0-3.42,0,3.42m-18.61,7.94v3.41m32.27,10.29-32.27-10.29m-.75-5.25,10.12-.46m30.73,8.52-30.73-8.52m0-3.42,0,3.42m-.74-5.23,10-.41m-19.37,6.1v1.62m33.37,8.17-33.36-9.79m9.38-5.69v1.62m30.93,6.23-30.93-7.85m9.26-5.6v1.6m28.92,4.71L1212.73,665m22.21,19.35v-4.08m28.62,2.59-28.63,1.49m25.38-8.11,3.6.79m4,6.88-4.37-1m4.37,1L1227.45,686m40.49-2.17v1.84m-40.5,2.22V686m36.47-9v1.82m-29.53,1.45v-1.85m29.52-1.42-29.52,1.42m26.27-8,0,1.79m-19,.83,0-1.8m19-.82-19,.82m.5,5.78,0-4m18.17-.79,0,4m0,0-18.17.85m18.22-12.35,0,5.69m-3.16-6.26,3.19.57m-3.22,5.06,0-5.63m38.16-.76,0,15.57m0-15.57-35,1.33m-66.17-4.23L1192,660m21.85-.17-2.37-.46m2.37.46-19.66.66m9.25-2.67,8,1.55m.19-30.74-.19,30.74M1201,627.28l10.72.55m.38-61.21-.38,61.21M1201,628l10.72.57m-23.94,53.24-5-4.86m-174.92,13.63,180-8.77m-5-4.86-33.22-10.47m-141.59,18.34L1182.7,677M1264,412.47l28.1-21.07m-28.36,93.84,28.18-13.62m-28.18,12.71,28.18-13.69M1264,413.36l28.1-21m-58,49-11.67,8.41m30.81-5.81-19.14-2.6m-12,68-.07,11.5m11.75-16.93-11.68,5.43m17.43-4.93-1.4-.13m-4.35-1.15-11.68,5.48m18.86-4.84-1.42-.14m-17.11-53.09-.33,58.07m12-66.46-.31,61m21-58.18-20.72-2.8m0,0-11.66,8.39m-14.26,13.93,11.95-8.4m-11.95,8.4-.41,62.3m.45-7.46-.06,7.29m8.21-66.5-7.81,5.45m7.92,48.65,3.32-1.52m-11.24-47.13-.34,52.4m8.24-2.36,3.34-1.49m-3.32.1.33-54.4m-.39,63.37,0-7.58m3.67-58.11-3.32,2.32m-.81,63.55,0-7.57m-7.83,3.53,7.83-3.53m86-172.39-9.85,8.68m9.85-8.68-.24,144.28M1169.48,460l-3.28,2.89m3.28-2.89-.68,83M985.08,686.1l22.79-1M985,691.74l22.79-1.12" transform="translate(-381.82 -71.17)" fill="none" stroke="#f3f7f9" stroke-miterlimit="10" stroke-width="2"/><path d="M985,690.8l22.79-1.1m.07-4.63-.07,4.63m-22.72-3.6-.07,4.7m202.88-30.14-.15,21.19m-38.13-29.75,38.28,8.56m-38.41,5.86.13-14.42m38.28,8.56,6.31-.19m-6.46,21.38,6.31-.31m-44.44-29.44,5.22-.12m193-159.45,2,.21M1448,457.61l-100.21,34.92m0-1.75v1.75m0-4.31,4,.44M1448,452.08l-100.19,36.14m0-1.76v1.76m0-4.31,4,.45m96.15-37.78-100.16,37.33m0-1.76v1.76m0-4.32,4,.47m96.12-39-100.13,38.52m0-1.75v1.75m0-4.31,4,.49m96.09-40.23-100.1,39.74m0-1.75v1.75m0-4.31,4,.5M1447.84,430,1347.77,471m0-1.74V471m0-4.31,4,.51m96-42.63-100,42.12m0-1.74v1.74m0-4.3,4,.53m96-43.85-100,43.32m0-1.74v1.74m0-4.3,4,.53m96-45-100,44.52m0-1.75v1.75m0-4.31,4,.56m96-46.28-100,45.72m0-1.74v1.74m0-4.3,4,.58m95.93-47.49-99.94,46.91m0-1.74v1.74m0-4.3,4,.59m95.91-48.68-99.91,48.09m0-1.74v1.74m0-4.29,4,.6m95.88-49.89-99.88,49.29m0-1.74v1.74m0-4.3,3.94.6m95.92-51.07-99.86,50.47m0-1.73v1.73m0-4.28,3.83.6m96-52.26-99.83,51.66m0-1.74v1.74m0-4.3,3.74.6m96.06-53.44L1347.74,428m0-1.73V428m0-4.28,3.65.6m96.12-54.64-99.77,54m0-1.74v1.74m0-4.29,3.56.59m96.18-55.82-99.74,55.23m0-1.74v1.74m0-4.29,3.49.6m96.22-57-99.71,56.4m0-1.73v1.73m0-4.29,3.41.61m96.27-58.18-99.68,57.57m0-1.72,0,1.72m0-4.26,3.36.59m96.31-59.37-99.67,58.78m0-1.74v1.74m0-4.29,3.28.59m96.36-60.54-99.64,59.95m0-1.74v1.74m0-4.28,3.21.61m96.39-61.74L1347.72,398m0-1.72V398m0-4.28,3.15.61m96.42-62.91-99.57,62.3m0-1.72v1.72m0-4.27,3.09.59M1447.26,326l-99.54,63.48m0-1.72v1.72m0-4.26,3,.59m96.48-65.25-99.51,64.66m0-1.74v1.74m0-4.27,3,.59m96.51-66.43-99.49,65.84m0-1.74v1.74m0-4.28,2.92.6m96.54-67.61-99.46,67m0-1.73v1.73m0-4.26,2.86.59m96.57-68.77-99.43,68.18m0-1.74v1.74m0-4.26,2.82.59m96.58-70-99.4,69.37m0-1.73v1.73m0-4.27,2.76.59m96.61-71.12-99.37,70.53m0-1.73v1.73m0-4.27,2.71.61m96.63-72.29-99.34,71.68m0-1.72v1.72m0-4.25,2.68.59M1447,282.47l-99.32,72.86m0-4.25,2.63.59M1447,277l-99.29,74m0-1.73v1.73m0-4.27,2.57.61m96.69-75.8-99.26,75.19m0-1.72v1.72m0-4.25,2.54.59m96.69-76.95-99.23,76.36m0-1.73v1.73m0-4.25,2.5.59m96.7-78.11-99.2,77.52m0-1.73v1.73m0-4.26,2.46.6m96.71-79.27-99.17,78.67m0-1.71v1.71m0-4.23,2.43.59M1446.84,250l-99.16,79.85m0-1.73v1.73m0-4.25,2.4.59m96.73-81.6-99.13,81m0-1.73v1.73m0-4.26,2.36.59m96.74-82.74-99.1,82.15m0-1.71v1.71m0-4.23,2.33.59m96.74-83.91-99.07,83.32m0-1.73v1.73m0-4.24,2.28.59m96.76-85.07-99,84.48m0-1.72v1.72m0-4.24,2.25.59M1446.69,223l-99,85.63m0-1.72v1.72m0-4.25,2.22.61m96.76-87.39-99,86.78m0-1.71v1.71m0-4.22,2.19.59m96.77-88.54-99,87.95m0-1.73v1.73m0-4.24,2.16.59m96.77-89.68-98.93,89.09m0-1.72v1.72m0-4.23,2.13.59m96.77-90.83-98.9,90.24m0-1.71v1.71m0-4.23,2.1.58m96.77-92-98.87,91.39m0-1.72v1.72m0-4.23,2.07.59m96.77-93.12-98.84,92.53m0-1.71v1.71m0-4.23,2,.6m96.77-94.29L1347.67,279m0-1.71V279m0-4.22,2,.58m96.77-95.41-98.8,94.83m0-1.72v1.72m0-4.23,2,.59m96.77-96.56-98.77,96m0-1.71v1.71m0-4.23,2,.59m96.78-97.7-98.75,97.11m0-1.71v1.71m0-4.2,1.95.57m96.77-98.84-98.72,98.27m0-1.71v1.71m0-4.22,1.92.59m96.77-100-98.69,99.41m0-1.71v1.71m0-4.23,1.89.59m96.77-101.12-98.66,100.53m0-1.71v1.71m0-4.2,1.87.57m96.77-102.26-98.64,101.69m0-1.71v1.71m0-4.22,1.86.59m96.75-103.42-98.61,102.83m0-1.7v1.7m0-4.21,1.83.59m96.75-104.55-98.58,104m0-1.71V241m98.56-106.12L1347.64,239.3M1154.83,652l37.18,8m13.41-.44,6.07-.19m-6.07.19-2-.39M1192,660l13.41-.44m-14.77-86.67-5.37-.17m0,0,16.07-3.65m-16-1.31,0,5m16.09-6.49,0,2.84m56.28-19.4,0-7.73m-23.14,6.51,23.14-6.51m6-38.4v-1.15" transform="translate(-381.82 -71.17)" fill="none" stroke="#f3f7f9" stroke-miterlimit="10" stroke-width="2"/><path d="M1253,508v-1.12m10.68-6.48V499M1253,504.94v-1.3m3.76,1.63-3.76-.33m0,0,10.67-4.57m0-3.34v-1.35M1253,501.73l0-1.3m3.63,1.62-3.65-.32m0,0,10.69-4.7m0-3.35v-1.34m-7.14,6.5-3.54-.33m0,0,10.68-4.83m0-3.33V489M1253,495.3l10.69-4.95m0-3.34v-1.35M1253,492.09v-1.3m3.36,1.64-3.36-.34m0,0,10.67-5.08m0-3.35,0-1.34M1253,488.88v-1.3m3.28,1.64-3.28-.34m0,0,10.67-5.22m0-3.32V479M1253,485.68v-1.3m3.19,1.63-3.19-.33m0,0,10.67-5.34m0-3.35v-1.35m-10.67,6.83v-1.3m3.12,1.63-3.12-.33m0,0,10.67-5.48m0-3.33V472.3m-10.67,7V478m3,1.63-3-.33m0,0,10.67-5.6m0-3.34V469m-10.67,7.08v-1.28m3,1.62-3-.34m0,0,10.66-5.73m0-3.33,0-1.35m-10.69,7.22v-1.3m2.9,1.62-2.91-.32m0,0,10.67-5.87m0-3.33v-1.35m-10.68,7.34,0-1.3m2.83,1.63-2.85-.33m0,0,10.68-6m0-3.33V459m-10.67,7.46v-1.28m2.76,1.62-2.77-.34m0,0,10.67-6.11m0-3.33v-1.35m-10.68,7.6,0-1.3m2.7,1.63-2.72-.33m0,0L1263.8,457m0-3.33v-1.34M1253.14,460v-1.28m2.65,1.62-2.65-.34m0,0,10.66-6.37m0-3.33,0-1.34m-10.68,7.85v-1.29m2.61,1.62-2.61-.33m0,0,10.66-6.51m0-3.33v-1.34m-10.66,8v-1.3m2.55,1.62-2.55-.32m0,0,10.66-6.65m0-3.32v-1.35m-10.66,8.13v-1.31m2.49,1.62-2.49-.31m0,0,10.66-6.78m0-3.33V439m-10.66,8.25V446m2.44,1.62-2.44-.33m0,0,10.66-6.9m0-3.32V435.7m-8.26,8.7-2.41-.34m0,0,10.66-7m0-3.33,0-1.34m-10.68,8.5,0-1.29m2.35,1.62-2.37-.33m0,0,10.66-7.16m0-3.31v-1.35m-10.66,8.63v-1.29m2.31,1.62-2.32-.33m0,0,10.66-7.28m0-3.33v-1.35m-10.66,8.77,0-1.29m2.26,1.62-2.28-.33m0,0,10.66-7.42m0-3.31v-1.35m-10.66,8.88V430m2.23,1.62-2.23-.34m0,0,10.66-7.53m0-3.32V419.1m-10.66,9v-1.31m2.2,1.62-2.2-.31m0,0,10.66-7.68m0-3.31,0-1.35m-10.66,9.14v-1.28m2.16,1.61-2.16-.33m0,0,10.64-7.79m-10.63,4.6v-1.29m2.12,1.62-2.12-.33m0-1.29,10.65-8m-10.65,9.26L1264,413.8m-43.83,37.65,2.28-1.67m-2.62,60.62,2.29-1.07m-2.29.35,2.29-1.08m-2-56.43,2.28-1.64M1257.58,561l3.18-.66m0,0-.39,104.33m.39-104.33,40.92,1.83m-40.88-12.38,40.89,2.16m-44-10.06,3.17-.89m0,0,0,8.79m0,0,0,10.55m-11.66-61.1,3.89-1.78m.85-2.11-20.09,9.29M1253,494.11l-19.26,9m13.83-4.41,1.52.13m-1.58,11.37.06-11.5m-13.16,16.94.06-10.92m.25-.11,1.48.12m-1.53,10.81,0-10.93m-17.29-44.76,2.64-1.83m-10.92,7.57,7.17-5m-7.49,57,.32-52m-.38,60.72,0-7m-9.39,53.18,1.91-.39m-9.66,2,6.66-1.4m-7,53.67.37-52.27m-.55,76.87.16-23.18m-.64-55,10.7-2.35m-10.73,57.31-.16,23.1m7.88-78.32-7.33,1.56m7.36,52.66,2.59.12m-10-52.78-.38,52.28m7.73,1.81,2.6.14m-2.59-1.57.37-54.31m-.55,79.74.17-24m3-56.3-2.6.56m-1,79.67.16-24m-7.32-1.78,7.34.36m-49-51.75,6.51.2m66-27.53-.06,10.88M986.69,548.13l234.74,10.48M986.91,535.29l-.22,12.84m0,0,.63,9.17m45,80.77,90.66-1.29m-91.42,1,89.77-1.27m0,0,1.65.25m-1.65-.25.12-10.4M1210,559,1187,565m-153.65,6.54L1149,575.06m35.9-9.49-175-6.67M1149,575.06l35.9-9.49M1187,565l0-3.22m-63.91,64.33,31.94-.22m-146.26,1,23-.15m91.36,0,31.94-.23m-146.26,1.05,22.94-.17m91.28,9.35.1-10m-90.54-55.24-.82,55.2m-22-55.9,22.87.7m.77,0-.82,55.17m-1,11.37-.49,32.73m1.27-32.75-.5,32.72m186.76-111.47,2.8-.71m39.33,1.76-39.33-1.76m-28.75,7.27,2.19-.55m0,0,23.76-6m-6.57,7.3,2.37-.53m0,0-19.56-.76m-152.23-5.9,9.63.38m-2.88-7.93-6.75,7.55m17.6-7.08-10.85-.47m-6.75,7.55,0-3.57m99.45,7.43,8.37.32m10-6.84-18.38,6.52m27.66-6.12-9.28-.4m-18.38,6.52,0-3.35m-48.05,1.49,9,.34m4.05-7.36-13,7m23-6.57-10-.45m-13,7,0-3.45m92.9,3.81,11.88-3.34m-39.56,2.21,27.68,1.13m-44.88-1.85,9.48-3.57m-42.12,2.23,32.64,1.34m-48-2,6.72-3.85m-45,2.27,38.24,1.58m-51.46-2.12,3.49-4.13M998.06,554l44.62,1.83m160.25-92,5.21.59m-15,195.39,10.32-.34m-48.18-7.76,37.86,8.1M1164,646.38l-8.65.18m0,0,37.87,6.9m0,0,10.31-.29m-10.31.29-.05,6.39" transform="translate(-381.82 -71.17)" fill="none" stroke="#f3f7f9" stroke-miterlimit="10" stroke-width="2"/><path d="M1320.61,540.83,1302.42,545m-.19,116.5,18.29,2.64m-19-1,19,2.86m-18.25-35.44,0,31m0-32.68,18.28.71M1302.42,545l-.15,83.82M1320.52,664,1303,661.49m.06-32.67.13-83.75M1303,661.49l0-30.91m.15-85.51,17.43-4M661.22,831.65l58-6.7M901.3,675.36,661.22,831.65M915.4,674.86,719.21,825M675.88,828l35.79-4.1m192-148.47L675.88,828M912.54,675.11l-8.85.34m-192,148.47L912.54,675.11m270.55-48-.18,22.56m2-22.47-.16,22.79m5.54-22.84-5.38,0m0,0-1.79-.09m1.79-.61-1.79-.09m7.17.06-5.38,0m36.73,2.21-.18,30.89m-7.38-30.83-.19,31.08m7.75-31.94-7.56.08m0,0-2.37-.12M1222,566.38l-.36,61.49m-7.18-61.78-.38,61.86m7.56.72-7.56.06m0,0-2.37-.12m-310,45.2,83.63-2.93m169.85-60.4,28,.13m-280.1-1.28,83.3.38m1168,70.31.12,3.08m-5-3.36-84.8-4.61m-600.71,98.46,0-1.89m6.92,4.69,0-2.68m8,5.36,0-3.47m8.93,5.94,0-4.24m9.72,6.46,0-5m10.3,6.89,0-5.68m10.67,7.22-.06-6.29m10.79,7.43-.06-6.84m10.68,7.53-.08-7.28m10.3,7.54-.07-7.64m9.69,7.43-.09-7.87m8.85,7.22-.08-8m7.84,6.9-.11-8m-6-1.76,579.57-97.86m-586.68,98.85,7.11-1m-14.94,1.67,7.83-.68m-16.37,1,8.54-.37m-17.62.47,9.08-.1m-18.5-.13,9.42.23m-19-.75,9.54.52m-19-1.32,9.45.8m-18.6-1.87,9.15,1.07m-17.8-2.37,8.65,1.3m-16.62-2.82,8,1.52m-15.15-3.18,7.18,1.66m-13.57-3.51,6.39,1.85m-48.25-15.33,41.86,13.48M1918,693.85l146.75-18.72m-245.33,31.29,76.14-9.71M2154.41,680l-4.85-.28M1576,779.36,2154.41,680M1568.28,780.45l7.73-1.09m-16.5,1.86,8.77-.77m-18.37,1.21,9.6-.44m-19.83.54,10.23-.1m-20.83-.15,10.6.25m-21.33-.84,10.73.59M1507.74,780l10.61.93m-20.87-2.14,10.26,1.21m-20-2.69,9.69,1.48m-18.59-3.18,8.9,1.7m-16.86-3.59,8,1.89M1464,771.7l6.9,2m-6.9-2-15.58-5.11m-281.41,61,0-4.51m-1.3,9.76,0-5.57m-3.16,11,.06-6.62m-5.08,12.26,0-7.64m-7,13.31.08-8.61m-9,14.26.09-9.55m-10.91,15,.11-10.35m-12.68,15.51.11-11.07m-14.27,15.79.14-11.65m-15.61,15.78.15-12.06m-16.61,15.48.15-12.29m69-25.94,6.43-4.19m-14.58,8.4,8.15-4.21M639.89,856.8,382,889.68m765.78-54,4.71-4.14m3-4,1.33-3.8m-4.31,7.8,3-4M382,978.16l688.66-116.27m0,0,15-2.86m0,0,13.76-3.26m0,0,12.65-3.63m0,0,11.32-3.92m0,0,9.78-4.1m23.6-20.34-.3-3.54m0,0-1.87-3.36m0,0-18.81-23.07m28.56,21.74,2.18,3.59m0,0,.52,3.92m0,0-1.25,4.19m0,0-3.1,4.43m0,0-5,4.62m0,0-7,4.7m0,0-8.92,4.71m0,0-10.8,4.65m0,0-12.57,4.44m0,0-14.13,4.14m0,0-15.46,3.72m0,0-16.46,3.19m0,0L382,984.42M1576.12,787.35l-503.88,90.79m16.46-3.42-16.46,3.42m31.93-7.55-15.47,4.13m29.63-8.85-14.16,4.72m26.73-9.88-12.57,5.16m23.39-10.61-10.82,5.45m19.75-11.1-8.93,5.65m15.93-11.32-7,5.67m12-11.31-5,5.64m8.13-11.12-3.11,5.48m4.37-10.73-1.26,5.25m-21.42-44.64,12.78,19M1471,776.39l-6.9-2.8m14.87,5.48-8-2.68m16.87,5.15-8.9-2.47m18.59,4.69-9.69-2.22m20,4.13-10.27-1.91m20.9,3.45-10.63-1.54m21.36,2.68-10.73-1.14m21.35,1.83-10.62-.69m20.84.95-10.22-.26m19.84.05-9.62.21m18.38-.86-8.76.65m16.52-1.74-7.76,1.09m-424,4,0-4.31m920.4-113-200-10.88M382,692.92,560.5,670.6M902,661.22,560.5,670.6M1607.48,505l-12.76,2.32m266.82,33.09,48.17-4.22m0,0-275-36.12m275,36.12-.54-18.66M1607.48,505l-.34-25.84m27.14-6.07-27.14,6.07m27.55,20.91-.41-27m.41,27L1607.48,505m-274.57-277.5L1446,98.57m-113.12,151,113.28-121.76m-109.37,123-3.91-1.21m113.28-121.76L1446,98.57m-113.12,151,0-22.09m5.89,451.2,0-159.53M1557.29,230.3,1491.59,204m89.8,532.75-18.45,2.36m-67.1,8.55-22,2.8m-4.56-678.41,104.78,54.16M1540,242.1l17.28-11.8M1446,98.57l23.27-26.51m161.46,161.46.38,26.33m273.33,91.23L1630.74,233.52M1905,369.43l-.52-18.35M1630.74,233.52l-43.28,25.93m.3,24.59-.3-24.59m43.66.4L1587.76,284m312.9,232.1,8.51,1.37M1896.47,366l8.5,3.4m0,0,4.2,148.08M1896.47,366l4.19,150.11m-266.38-43.07,17.27,2.8m-20.43-216,17.15,6.85m-17.15-6.85,3.16,213.22m-46.52-189,.13,10.25m-11.55,22.06,28.73,9.12m0,0-5.52,2.62m5.52-2.62-.35-25.39m209.6,233.11-3-.36m3.23,137.11,3-.23m-3,.23-3.23-137.11m-4.31.44,4.31-.44m-1.14,136.82,4.37.29m20.11-40-2.22-90.73m3.08,125.55-.79-31.95m-17.23,33.21,18-1.26m-3.08-125.55-18-2m3.13,131.88,20.49-1.53m-3.23-131.06-20.47-2.39m3.13,132.07,19.1-1.35m-3.1-125.7-19-2.15m21.07,127.79,1.08.06m-.79-32-.08-2.83" transform="translate(-381.82 -71.17)" fill="none" stroke="#f3f7f9" stroke-miterlimit="10" stroke-width="2"/><path d="M1835.69,630l-19.08.36m18-.38,1.07,0m-28.23,36.77-6.59.45m5.81-33.71.78,33.26m-3-130.65,2.19,94.39m-8.78-95.13,6.59.74m5.71,133.54-9.21.7m9.21-.7L1807,533.27m-9.19-1.08,9.19,1.08m1.58,133.55-7.68.55m-3-132.23,7.67.87m2,130.75,1.09.06m-.85-36.29.07,2.94m-7.73-2.8,7.66-.14m-1.08,0,1.08,0M1656.78,514.62l-4.53-.54m2.62,167.84,4.56-.33m-4.56.33-2.62-167.84m-4.25.67,4.25-.67m-1.67,167.43,4.29.41M1688,632.79l-1.91-109.95m2.64,152.21-.67-38.78m-28.73,40.84,29.4-2.06m-2.64-152.21-29.26-3.28m2.55,161.29,32.57-2.42m-2.77-158.89-32.41-3.77m2.56,161.51,30.49-2.14m-2.66-152.45-30.35-3.41m31.92,155.77,1.09.09m-.69-38.9-.06-3.42m0,0-30.44.59m29.37-.62,1.07,0M1647.16,678,1627,679.38m19.53-42.14.62,40.73m-2.44-159.77,1.76,115.39m-21.81-117.65,20,2.26m5.86,163.31-23.51,1.74m23.51-1.74L1648,514.75M1624.61,512l23.39,2.73m.22,163.31L1627,679.55m-2.34-163.9,21.09,2.38m1.78,115.59.06,3.6M1626.35,634l21.19-.41M1349.78,492.74l98.22-34m-98.2,57.28,98.37-27.63m-98.37,27.63,0-23.31m-2.08-162.09,1.62.39m-12.52-80.26V328m0-77.22,10.84-11.48m233.71,494.52,0,2.94m171.06-24.21-171.1,21.27m314.17-39.07-76.15,9.48m-38.1-207.39,119.39,19.3M1777.33,318.35,1896.47,366m-142.32-38.88,23.18-8.8m0,0,3.94,178.49m-46.44-117.63,0-2.1m18.62-6,1.65-.53m-20.69,9.15,2.18,109.89m-25-119.57,1.29.39m-33.6-10.21,1.41.42m-77.85,114.75-4.25,1m4.22-2.89,0,1.91m-24.57-3.77,24.57,3.77m-.06-4.71-4.25,1m4.22-2.92,0,1.91m-24.57-3.89,24.57,3.89m-.07-4.71-4.24,1m4.22-2.95,0,1.9m-24.56-4,24.56,4m-.06-4.7-4.24,1.07m4.22-3,0,1.91M1578,457.12l24.56,4.15m-.06-4.71-4.24,1.11m4.21-3,0,1.9M1578,452.3l24.56,4.26m-.06-4.7-4.24,1.15m4.21-3.06,0,1.91m-24.55-4.39,24.55,4.39m-.06-4.69-4.24,1.16m4.21-3.07,0,1.91m-24.54-4.53,24.54,4.53m-.06-4.71-4.24,1.21m4.21-3.12,0,1.91m-24.54-4.65,24.54,4.65m-.08-4.69L1598,439m4.22-3.15v1.91M1577.74,433l24.52,4.77m-.06-4.69-4.23,1.27m4.2-3.18,0,1.91m-24.52-4.9,24.52,4.9m-.06-4.69-4.23,1.3m4.2-3.21,0,1.91m-24.52-5,24.52,5m-.06-4.69-4.23,1.33m4.2-3.24,0,1.91m-24.52-5.15,24.52,5.15M1602,419l-4.23,1.36m4.2-3.26,0,1.9m-24.52-5.27L1602,419m0-4.7-4.24,1.41m4.21-3.3,0,1.89m-24.53-5.38,24.53,5.38m-.08-4.67-4.22,1.44m4.21-3.33v1.89m-24.51-5.51,24.51,5.51m-.06-4.68-4.22,1.46m4.21-3.36V405m-24.49-5.64,24.49,5.64m-.06-4.69-4.22,1.5m4.19-3.39,0,1.89m-24.49-5.75,24.49,5.75m-.06-4.67-4.22,1.52m4.19-3.42,0,1.9m-24.49-5.87,24.49,5.87m-.06-4.66-4.22,1.55m4.19-3.46,0,1.91m-24.49-6,24.49,6m-.06-4.68-4.22,1.59m4.19-3.48,0,1.89m-24.49-6.13,24.49,6.13m-.07-4.68-4.21,1.64m4.19-3.53,0,1.89M1577,375.34l24.48,6.24m-.06-4.66-4.21,1.65m4.19-3.54,0,1.89M1577,370.55l24.48,6.37m-.06-4.66-4.17,1.67m4.15-3.56,0,1.89m-24.46-6.5,24.46,6.5m-.06-4.67-4.09,1.68m4.06-3.56,0,1.88M1576.88,361l24.46,6.62m-.06-4.66-4,1.68m4-3.56,0,1.88m-24.46-6.74,24.46,6.74m-.06-4.66-3.94,1.68m3.91-3.56,0,1.88m-24.46-6.86,24.46,6.86m-.06-4.65-3.88,1.67m3.85-3.56,0,1.89m-24.46-7,24.46,7m-.06-4.66-3.8,1.66m3.77-3.54,0,1.88m-24.46-7.1,24.46,7.1m-.07-4.65L1597.3,346m3.71-3.56,0,1.89m-24.45-7.23,24.45,7.23m-.06-4.66-3.67,1.67m3.65-3.54,0,1.87m-24.44-7.34,24.44,7.34m-.06-4.64-3.6,1.66m3.57-3.54,0,1.88m-24.44-7.46,24.44,7.46m-.06-4.65-3.54,1.67m3.51-3.54,0,1.87m-24.44-7.58,24.44,7.58m-6.13,176.94-16.11-1.89m-36-11.23-48.78-6.1m46.2-246-48.27-18.4m51.16,503.1-47.18,5.32m44.86-235.35-46.75-5.71m48.25,6.07-1.5-.18m1.47-2.65-48.24-6m50.61,238.19-1.52.17m-.82-229.51,2.34,229.34m-20.3-205.69,0-2.9m8.48-.37-4.25-.42m1.81,188.68-1.81-188.68m1.81,188.68,4.28-.38m0,0-1.84-187.88m-4.25-.42-4.23.79m6,187.89-4.3-.71m.41-184.66-2.12.38m1.69,181.33,2.14.35M1526.24,521l-2.12-.2m3.82,181.15-2.13.18m0,2.95,0-2.95m52.75-200.65,28.92,3.52M1332.82,704.44l0-185.79m5.93.5-5.93-.5m-12.23,3.51,12.23-3.51M901.72,673.81l0,1.53M1918,693.94l-22,2.81m21.21-29.2-22,1.84m-30.51-4.73,52.48,2.89m-22,1.84-30.44-1.78m30.44,1.78.76,27.36m-5.17-28,16.86-1.39m-42.89-.13,26,1.52m16.86-1.39-43-2.38M661.22,831.65l-20.94,13.62M1137,776.72l6.77,7.43m0,0L640.28,845.27m28.52-12.51-12.55,8.41m475.64-62.37-463.09,54m467.14-49.27-4-4.69M656.25,841.17l479.69-57.68m456.6-311.6v-1.12m.07,5.89v-1.18" transform="translate(-381.82 -71.17)" fill="none" stroke="#f3f7f9" stroke-miterlimit="10" stroke-width="2"/><path d="M1596.75,472.56l0-1.14m.08,5.87,0-1.18m1.69-3.3,0-1.12m.08,5.86,0-1.18m9,28.61,17.07,2.09m2.53,178.06,0,1.3m-17.18,0v1.31M1597,685l12.93,1.46m0,0,17.15-1.32M1607.5,506.29l2.43,180.16m-2.43-180.16,17.06,2m-29.82.23,12.76-2.28m17,.78v1.27M1607.48,505l0,1.31m99.26,10.82,13.58,1.66m-31.12.77,17.54-2.43m16.61,160.67,0,1.15m-13.67-.11V680M1692,677.29l17.76,1.53m0,0,13.64-1m-16.59-159.52,3,160.56m-3-160.56,13.59,1.64m-31.14.78,17.55-2.42m13.56.51,0,1.13m-13.61-2.79,0,1.15m79.82,8.59,11.08,1.35m-28.71.65,17.63-2M1772,671.45l17.82,1.26m0,0,11.12-.85m-14.34-144,3.22,144.82m-3.22-144.82,11.08,1.34m-28.71.63,17.63-2m65.6,7,9.21,1.12m-26.64.54,17.43-1.66M1838,666.64l17.6,1m0,0,9.22-.71m-12.58-131.16,3.36,131.87m-3.36-131.87,9.19,1.1m-26.62.53,17.43-1.63M1753,715l-.15-7.22m66.59-1.27L1753,715m-.15-7.22,66.43-7.86m-95.39,4.39,29,3.47m15.29-139.26.06,3.09m0,0L1757.4,571m9.72.71,1.07-.06m-1.07.06,2.56,120.51m-3.41-160.37.78,36.65m-12.66-38,11.88,1.33m3.41,160.37-9.73,1m12.6,2.06L1760,696.55m6.24-164.72,1.07-.12m2.34,160.49,1.09.1m-16.38-162,12.95,1.45m3.43,160.59L1760,693.39M1737.4,569.64l-13-.77m15.51,126.76-2.49-126M1726.84,697l13.05-1.32m0,0,1.1.12m-.73-129.27-17.86-1.15m16.07,4.25-14.09-.84m15.88-2.26,2.64,132.33m-5.5-129.17,1.07-.06m-16.07-4.25L1725,700.7m16-5-2.52-126.17m-14.65,131,1.16.14m0,0,17.92-1.89m-16.06-1.63,14.15-1.43m13.56-125.08,2.55,123.24m-14.95-124,12.4.74m2.55,123.24-12.43,1.24m11-124.54,2.55,123.4m-16-124.21,13.49.81m-1.09.06,1.09-.06m1.46,123.3,1.09.1m1.84,3-17.13,1.8m15.29-4.8-13.52,1.37m8-165.32-31.23-3.53m32,40.8-.76-37.27m-1.07.12,1.07-.12m-31.23-3.27,30.16,3.39m0,0,.76,37.07m-431.47-326,12.06-13.74m-17.12,95.41,5-4.54m-3.18,5,3.18-2.86m-1.31,3.31,1.31-1.16m328.07-17.71L1734,335.27m20.22-7.66L1734,335.27m0,0,.84,41.84m-159-110.63,11.72-7M985,691.74l-95.17,4.65m337.32-8,0,3.45M1724,709l-.08-4.63m-27.52-25.51-36.93,2.77m182.94-13.74-24.82,1.86m-515.8-182,46,4.87m-56-.74-28.2,11.73m-67.16-67.26-27,23.74m122.66-107.94-95.68,84.2m17.37,228.65-1.1.05m14.71,23-32.59-9.84m39.54,2.17-30.15-7.89m37.39.7-28.14-6.34m50.1,12.09,0,1.73m-3.23-10.16-3.19-.63m-63.06,6.49.11-15.78M1201,628.4l-.16,24.3m-168.93,18.09,117.61-4.27m84.27-161.85-.06,11.3M1216,514.38l.32-53.75m-7.49,57,7.17-3.27m76.13-162.32,0,4.54m-119.9,103.72,30.71,3.55M1169.48,460l2.74.32M1448,449.86,1420.16,460m0,4.35,27.81-9.89m-27.82,4.77L1448,449m-.3-54.2L1420,408.31m-68.27,28.85-3.93,2m99.87-49.77-95.94,47.81M1420,408.29l27.7-13.47m-96.08,38.06-3.83,1.95m99.85-51-96,49m-.09-4.3-3.74,2m99.82-52.15-96.08,50.19m-.09-4.28-3.65,1.95m99.79-53.34-96.14,51.39m-.09-4.3-3.56,2m99.76-54.52L1351.3,420m-.07-4.28-3.49,1.95m99.73-55.7-96.24,53.75m-.08-4.28-3.41,1.95m99.7-56.89-96.29,54.94m-.07-4.28-3.36,1.95M1447.41,351l-96.33,56.13m-.08-4.29-3.28,2m99.66-59.26L1351,402.87m-.07-4.26-3.21,1.93m99.63-60.42-96.42,58.49m-.06-4.28-3.15,1.95m99.6-61.62-96.45,59.67m-.06-4.29-3.09,2m99.57-62.79L1350.81,390m-.06-4.26-3,2m99.54-64-96.51,62m-.06-4.27-3,1.94m99.51-65.13-96.54,63.19m-.06-4.27-2.92,1.94m99.49-66.31-96.57,64.37m-.06-4.27-2.86,1.94m99.46-67.49L1350.57,373m0-4.26-2.82,1.93M1447.13,302l-96.6,66.72m-.06-4.27-2.76,1.95m99.39-69.83-96.63,67.88m0-4.25-2.71,1.93m99.36-71-96.65,69.06m0-4.27-2.67,1.94M1447,285.69l-96.66,70.23m-2.68-2.3v1.71m2.63-3.66-2.63,1.94M1447,280.28l-96.68,71.39m-.06-4.25-2.57,1.93M1447,274.84l-96.71,72.58m0-4.27-2.54,1.94M1447,269.43l-96.71,73.72m0-4.25-2.5,1.93M1446.92,264,1350.2,338.9m0-4.25-2.46,1.93m99.19-78-96.73,76.06m96.7-81.46-96.75,77.22m0-4.25-2.4,1.93m99.15-80.32-96.75,78.39m0-4.26-2.36,1.94m99.12-81.47L1350,321.9m0-4.23-2.33,1.93M1446.77,237,1350,317.67m0-4.24-2.28,1.92m99.06-83.78L1350,313.43m0-4.24-2.25,1.93m99-84.94-96.78,83m0-4.23-2.22,1.92m99-86.1L1349.9,305m0-4.24-2.19,1.92m99-87.25-96.79,85.33m0-4.24-2.16,1.92m98.95-88.4-96.79,86.48m0-4.23-2.13,1.92m98.92-89.55-96.79,87.63m0-4.24-2.1,1.94m98.89-90.72L1349.77,288m0-4.22-2.07,1.92m98.86-91.85-96.79,89.93m0-4.22-2,1.92m98.83-93-96.79,91.08m0-4.24-2,1.93m98.8-94.15-96.79,92.22m0-4.22-2,1.92m98.79-95.29-96.79,93.37m0-4.23-2,1.93" transform="translate(-381.82 -71.17)" fill="none" stroke="#f3f7f9" stroke-miterlimit="10" stroke-width="2"/><path d="M1446.41,172.37l-96.79,94.51m0-4.22-1.95,1.92M1446.38,167l-96.78,95.65m0-4.2-1.92,1.92m98.7-98.74-96.78,96.82m0-4.23-1.89,1.93m98.67-99.88-96.78,97.95m0-4.22-1.86,1.92m98.64-101L1349.51,250m0-4.2-1.86,1.92m98.62-102.14L1349.5,245.81m0-4.21-1.83,1.92m98.59-103.29L1349.47,241.6M1261,503.47l2.62-1.1m-2.62.83,2.62-1.11m-2.6-1.93,2.6-1.14m-2.6.91,2.62-1.13m-2.62-2,2.62-1.16m-2.62,1,2.62-1.16m-2.61-2,2.62-1.19m-10.67,3,0-1.19m3.44,1.52-2.61-.25m7.2-2,2.62-1.2m-2.6-2,2.62-1.24m-2.62,1.15,2.62-1.23m-2.61-2,2.62-1.26m-2.62,1.23,2.62-1.26m-7.46.38,7.48-3.69M1253,487.58l3.21-1.57m-.06-3.21,7.54-3.83M1253,484.38l3.13-1.58m-.06-3.21,7.61-3.95m-10.67,5.53,3.06-1.58m-.06-3.2,7.69-4.09M1253.07,478l3-1.57m-.06-3.21,7.76-4.21m-10.67,5.8,2.91-1.59m0-3.2,7.83-4.34m-10.68,5.92,2.85-1.58m-.06-3.2,7.89-4.47m-10.66,6,2.77-1.57m0-3.2,7.94-4.6m-10.66,6.18,2.72-1.58m0-3.2,8-4.73m-10.66,6.3,2.65-1.57m0-3.2,8-4.85m-10.67,6.43,2.62-1.58m0-3.2,8.11-5m-10.68,6.56,2.57-1.58m0-3.2,8.16-5.11m-10.66,6.69,2.5-1.58m0-3.19,8.2-5.25m-10.66,6.82,2.46-1.57M1253.2,446l1.58-1m-1.57-1v-1.19m2.37-1.58,8.29-5.5m-10.66,7.08,2.37-1.58m0-3.19,8.34-5.64m-10.66,7.21,2.32-1.57m0-3.19,8.37-5.77m-10.65,7.34,2.28-1.57m0-3.19,8.41-5.91m-10.64,7.48,2.23-1.57m0-3.2,8.45-6m-10.66,7.6,2.21-1.58m0-3.18,8.48-6.15m-10.66,7.71,2.18-1.56m0-3.19,8.53-6.28m-10.66,7.86,2.13-1.58m-35.64,88.34,0,2.27m.36-60.5,0,3.89M1253,498.3l-3.88,1.75m-12.43,4.87,1.43-.65m9.14,6.06,0-9.46m-57,126.24-.18,23.76m7.89-24.06.37-54m-7,55.09,6.66.36m1.2-81.68,22.34,1.18m-22.57,10.72,11.09.5m-212-4.92.48-4.39m-.86,8.05.38-3.66m189,11-36.51-1.4m4.7,46.87-.13,15.42m.44-50.64-.31,35.22m-33.7,15.65h1.63m-90.59.6,89-.59m-89.75,1.3-.14,10.37m123.46-11.25-.23,24.87m106-101.6-3.17-.17m-56.26,16.56-8.69-.33m19.38.74-10.69-.41m20.6.17,35.58,1.37m-43.12-1.66,7.54.29M985.3,673.72l-.22,12.38m12.6-128.41,12.25.48m-22.61-.87,10.36.39m58.22-1.29,4.34-4m-8,7.46,3.63-3.41m103.46,4.26,10.43-3.49m-19.29,6.44,8.86-3m-49.84-2.06,7.62-3.74m-14.05,6.91,6.43-3.17m94,94.57-2.68-.47m2.68.47,0,4.63m-48.15-11.24,0,4.86M1303,630.58l17.52.79m-418.86,44,13.71-.48m0,0,0,1.46m267.84-65.71-.12,15.76m.43-58.18-.31,42.42m2.07-37.91-.4,53.76M902,661.22l-.27,12.59m1.39-64.48L902,661.22m524.16,95.33,47.69-6.08m102.28,36.88L2154.53,683.1M1157.14,807.21l-12.82-14.72m20.06,23.06-7.24-8.34m181.64-288.06,11-3.1m213,214.07-5.54-499.82m-83.47,516.9-4.54-675.14m-19.72,665.47,0-3.64m138.36-439.6,16.83,5.79M1576,290.19l11.86,4.1M1835.69,630l-2.23-90.84m-16.77,94.11,18-.42m-26.92.63.78,33.35m-1.87-33.32-6.58.15m7.67-.18-1.09,0M1692,678.43l0-1.14m-2.11-2.15-.69-38.9m-1.07,0,1.07,0m-30.44.73,29.37-.7m-40.5,1,.62,40.84m-1.68-40.82-20.13.48m128.7-265,2.51,120.3m-4.17-119.77-18.62,6m20.28-6.49-1.66.53m-18.66,3.86-22-6.68m22,8.78-22-6.63m40.55-1.48-18.62,6m18.66-3.86,2.49,119.49m-2.53-121.64,0,2.15m-40.59-.67L1715,486.13m-2.18-115.7,0,2.15m-1.3-.39,2.13,113.73M1711.52,370l0,2.15m-30.9-9.31,2,118m-2.07-120.26,0,2.24m-1.4-.42,2,118.21m-2.08-120.45,0,2.24m-80.72,115.09,4.26.65m-24.58-4.9,14.37,2.18m5.89-2.67,4.26.67m-24.58-5,14.37,2.25m5.89-2.68,4.26.68m-24.57-5,14.36,2.33m5.89-2.71,4.26.71M1578.05,459l14.36,2.41m5.89-2.72,4.26.72M1578,454.19l14.36,2.46m5.89-2.75,4.25.76m-24.55-5.25,14.35,2.54m5.87-2.77,4.27.77m-24.55-5.31,14.35,2.62m5.87-2.8,4.27.8m-24.55-5.39,14.35,2.7m5.87-2.82,4.27.8m-24.55-5.44,14.35,2.75M1598,435l4.26.83m-24.54-5.51,14.34,2.82m5.88-2.86,4.24.86m-24.52-5.58,14.34,2.9m5.88-2.89,4.24.88m-24.52-5.64,14.34,3m5.88-2.9,4.24.89m-24.52-5.72,14.34,3m5.88-2.92,4.24.92m-24.52-5.79,14.34,3.12m5.86-2.95,4.27.93m-24.53-5.85,14.34,3.19m5.86-3,4.27,1m-24.51-5.93,14.32,3.25m5.86-3,4.27,1m-24.51-6,14.32,3.33m5.86-3,4.25,1m-24.49-6.05,14.32,3.4m5.86-3.05,4.25,1m-24.49-6.11,14.33,3.47m5.85-3.08,4.25,1m-24.49-6.19,14.33,3.54m5.85-3.09,4.25,1.08m-24.47-6.27,14.31,3.62m5.85-3.12,4.25,1.09M1577,373.37l14.31,3.69m5.89-3.13,4.21,1.1M1577,368.62l20.26,5.31m0-4.66,4.13,1.1m-24.47-6.55,20.34,5.45m0-4.66,4,1.1M1576.85,359l20.42,5.57" transform="translate(-381.82 -71.17)" fill="none" stroke="#f3f7f9" stroke-miterlimit="10" stroke-width="2"/><path d="M1597.28,360l4,1.1m-24.46-6.79,20.49,5.69m0-4.66,3.91,1.1m-24.46-6.92,20.55,5.82m0-4.67,3.83,1.11m-24.45-7,20.62,5.91m0-4.64,3.77,1.1m-24.45-7.15L1597.3,346m0-4.66,3.71,1.1m-24.45-7.26,20.74,6.16m0-4.65,3.64,1.11m-24.45-7.4,20.81,6.29m0-4.64,3.57,1.1m-24.44-7.52,20.87,6.42m2.24-3.94,1.27.4m-24.44-7.65,23.17,7.25M1597,685l0,1.29m5.78-207.79,4.34.65m-28.91-4.33,24.57,3.68m314.46,189.06.75,26.3M640.28,845.27l-.39,11.53m495.93-63L639.88,857.12m503.75-64.31-7.81,1M1627.07,684v1.1m64.91-6.7,4.37.39m24.88-113.4,2.13,112.36M1838,667.58l4.34.27m-40.8,30.31,17.7,1.78m-52.22-131.46,1.08.06m-10.79-.68,9.71.62m1.14,3.15,2.58,120.67m1.28-19.82.5,22.76m-17.39-127.81-.77-36.93m-1.83-3.57.07,3.13m1.7-2.92,14.64,1.71m-16.41-1.92,1.77.21m-33-3.85.06,3.24m33.76,40.9,2.17.14m-35.93-40.78.75,38.56M1320.79,324.1v-1.48m12.09,4.43V249.57m390.93,451-.42-21.63m.48,25.4-.06-3.77m-69-18.64-27.8,2.11m187.44-14.09-13.57,1M1263.62,503.52,1253,508m94.75-177.32L1336.8,328M1221.4,664.64l-7.57.27m43.35-1.58-35.78,1.31m42.17,16.84v1.34m-3.23-10.57-18.17.79m-48.12,8.5,0-3.67m-186-6.22,23-.83m261-314.22-.07,34.8m113.31,79-8.23,2.9m50.86-18-27.8,9.83m-4.47-8.7-1.58.59m-62.36,19.19-4,1.56m67.93-26.47-1.58.62m0,4.42,1.58-.59m-63.94,16.1-4,1.61m100.09-40.21-27.76,11.15m-6,6.9,1.58-.6m-63.92,16.79-4,1.67m67.89-28.1-1.58.65m0,4.57,1.56-.64m-63.89,25.76,1.13-.47m-1.15-7.79-4,1.71M1415.64,436l-1.58.67m6,2.15,27.76-11.52m-96,39.86,1.13-.47m-1.15-7.84-4,1.76m67.86-29.72-1.56.68m0,4.72,1.58-.68m-63.88,18.88-4,1.81m67.85-30.53-1.58.7m0,4.8,1.56-.7m-63.85,28,1.15-.5m-1.15-7.93-4,1.85m67.83-31.34-1.58.73m0,4.85,1.58-.71m-63.84,28.77,1.14-.52m-1.15-8-4,1.89m67.8-32.15-1.56.74m0,4.93,1.58-.73M1351.76,450l1.14-.53M1414,416.22l1.56-.76m-63.8,30.28,1.15-.54M1349.32,331l-1.62,1.3M1257.43,504.7l2.57-1.08m-.06-3.22,1.09-.47m-3.58,1.54,2.49-1.07m-.06-3.22,1.15-.52m-3.57,1.59,2.42-1.07m-.05-3.21,1.21-.56m-3.56,1.63,2.35-1.07m.08-3.21,1.15-.53m-1.29.52,1.29-.61m-3.57,1.68,2.28-1.07m0-3.21,1.28-.62m-1.34.62,1.34-.65m-3.56,1.72,2.22-1.07m-4.12-43.14,8.25-5.39m-44.1,75.08,0,7.69m0-9.11v1.42m.33-58v1.41m78.34,205.78,3.07-.12m-6.16.24,3.09-.12m-41.24-4.86v4.94M1239.5,504.4l-3.31,1.49m4.74-2.13-1.43.64m7.78-3.53-6.35,2.89m-1.42-.14,7.77-3.54m-9.18,4.19,1.41-.65m7.77-3.54,0-1.25m-56.65,74-.39,53.56m5.43-80.06,3.46.18m-29.36,10.62,29.13,1.28m35.6-10-13-.7m36.14,1.92-23.11-1.22m-224.6,10.47-.2,11.94m-24.37,100-.05,2.84m215.5-21-2.61-.44m5.26,5.54v1.35M1301.69,552V562.2M382,1002.54l690.24-124.4m353.91-121.59-6-2.68m7.65,3.44-1.67-.76m22.3,10-20.63-9.28m36.23,16.28-15.6-7m47.27-34.47,0,5.93m85-50.56.55,46.33m-131.82.07-.2-35.49m200.29-344.87,1.93,122.34m-2-124.67,0,2.33m-.76-48.62.73,46.29m-1.32-84.5.59,38.21M1838,666.64l-3.19-129.2m1.73,127.41-.79-32M1805.51,536l2.19,94.52M1689.23,520.68v-1.14M1692,677.29l-2.74-156.61m-.12,112.14-1.91-110.13M1645.76,518l1.78,115.59m107.52-263,0,2.15m-42.25-.14-1.3-.39m-133.33,102.3,14.37,2.17m4.19-.55,1.73.26m-5.93-.89,4.2.63m-18.62-6.44,14.37,2.22m4.19-.47,1.73.27m-5.93-.92,4.2.65m-18.62-6.6,14.37,2.32m4.19-.41,1.73.29m-5.93-.95,4.2.66m-18.6-6.73,14.36,2.37m4.18-.31,1.73.28m-5.93-1,4.2.7m-.06-3.73,1.75.31m-1.75-1.26,1.73.29m-5.93-1,4.2.73m-.06-3.78,1.75.3m-1.75-1.21,1.73.32m-5.93-1.06,4.2.74m-.06-3.81,1.73.3m-1.74-1.17,1.74.32m-5.93-1.07,4.19.75m0-3.87,1.72.32m-1.74-1.12,1.74.33m-5.93-1.1,4.19.77m0-3.92,1.72.33m-1.74-1.07,1.73.33m-5.92-1.15,4.19.82m0-4,1.73.35m-1.75-1,1.73.35m-5.92-1.18,4.19.83m0-4,1.73.35m-1.75-1,1.73.35m-5.92-1.2,4.19.85m0-4.1,1.73.36m-1.75-.94,1.73.37m-5.92-1.23,4.19.86m0-4.14,1.73.38m-1.75-.9,1.73.37m-5.92-1.26,4.19.89m0-4.19,1.73.38m-1.75-.85,1.73.38m-5.92-1.28,4.19.9m-.06-4.25,1.73.4m-1.73-.81,1.73.4m-5.92-1.32,4.19.92m-18.57-8.5,14.32,3.25m4.19.59,1.73.4m-5.92-1.35,4.19.95m-18.57-8.64,14.32,3.32m4.19.68,1.73.39m-5.92-1.36,4.19,1m-18.57-8.79,14.32,3.38m4.19.75,1.73.4m-5.92-1.39,4.19,1" transform="translate(-381.82 -71.17)" fill="none" stroke="#f3f7f9" stroke-miterlimit="10" stroke-width="2"/><path d="M1577.19,387.79l14.33,3.46m4.18.82,1.73.42m-5.91-1.43,4.18,1M1577.13,383l14.33,3.53m4.19.91,1.72.42m-5.91-1.47,4.19,1.05m-18.56-9.24,14.31,3.61m4.18,1,1.73.44m-5.91-1.5,4.18,1.06M1577,373.4l14.31,3.69m4.19,1,1.72.44m-5.91-1.51,4.19,1.07m-.79,130.44L1597,685m-2.28-177.69,0,1.27M1540.58,497l2.32,229.69m-15-24.71L1526.24,521M1320.49,695v-1.7m-176.81,94.92,0,4.33m.09-8.43,0,3.27m-21.57-9L719.21,825M1134.4,777l-12.28,1.4m14.83-1.71-2.55.31m586-253.84.81,42.23m-.87-45.52.06,3.29m141.11,17.2,3.22,123.86m-3.31-127.34.09,3.48m-42.17,163.84.06,2.19m-.16-6.48.1,4.29m-29-7.19,11.16,1.12m-29-2.92,17.86,1.8m-23.07-165.33.79,36.83m-43.75.33L1726.84,697m26.55-129.62,1.77.1m4.79,126,.08,3.16m-15.36-1.4-2.52-125.22m12.18-42.79.06,3.12m-1.83-3.33-31.22-3.64M1320.79,322.62v-2.15m16,7.53-3.92-.95M1201.34,572.14,1201,627m.39-57.9v1.47m62.36-90.18v2m28.16-10.7,0,20.17m122.36-24.47-8.82,3.12m10.37-8.81-1.56.58m6-2.2-4.43,1.62m0,4.3,4.41-1.57m-6,2.13,1.58-.56m-54.08,11-4.76,1.8m24.48-9.24-19.72,7.44m58.46-22.06-4.42,1.66m32.2-12.16-27.78,10.5m-4.41,6,4.43-1.64m-6,2.21,1.58-.57m-62.8,15-1.15.44m68.33-26.63-4.41,1.72m32.19-12.54-27.78,10.82m0,4.49,27.79-10.53m-32.2,12.21,4.41-1.68m-58.45,22.15,19.72-7.47m-24.48,9.29,4.76-1.82m-8.77-4.82-1.13.45m63.89-25.68-1.56.64m6-2.41-4.43,1.77m4.44,2.79,27.78-10.85m-32.19,12.59,4.41-1.74m-63.2,24.72,4.77-1.86m-8.75,3.42,4-1.56m-5.13,2,1.15-.46m67.14-36-4.41,1.83m32.17-13.32-27.76,11.49m0,4.63,27.76-11.19m-32.19,13,4.43-1.78M1352.91,471l4-1.61m63.14-35.27-4.41,1.89m32.16-13.71-27.75,11.82m-4.39,6.55,4.41-1.84m-6,2.49,1.58-.65m-62.75,26,4-1.65m-4-6.69-1.15.5M1420,429l-4.41,1.94m32.16-14.09L1420,429m0,4.78,27.75-11.84m-32.16,13.72,4.41-1.88m-63.16,26.95,4.77-2m-8.75,3.72,4-1.7m-5.13,2.2,1.15-.5m0-8.4-1.15.51M1420,423.79l-4.41,2m32.14-14.48L1420,423.79m0,4.85,27.75-12.16m-32.16,14.1,4.41-1.94m-67.11,29.45,4-1.74m-4-6.72-1.14.53M1420,418.63l-4.41,2m32.13-14.86L1420,418.63m0,4.93,27.73-12.5m-32.14,14.48,4.41-2m-67.11,30.23,4-1.8m-4-6.72-1.15.55M1420,413.47l-4.41,2.09m32.13-15.24L1420,413.47m0,5,27.72-12.82m-32.13,14.86,4.41-2m-68.24,23-4,1.93m67.79-33-1.58.75m6-2.9-4.41,2.15m4.42,2.92,27.72-13.15m-32.13,15.23,4.41-2.08m-4.42-2.94,4.41-2.15m-6,2.91,1.58-.76m-63.79,31,1.15-.56M1258,504.74l2.56-1.07m-3.81,1.6,1.25-.53m-5,2.11,3.77-1.58m1.16-3.75,2.47-1.07m-2.56-2.17,2.42-1.07m-2.51-2.15,2.36-1.08m-2.43-2.14,2.28-1.08m-2.36-2.15,2.24-1.07M1220.08,458l-.3,51.65m37.77,58.07-.36,90.64m.39-97.36,0,6.72m-92-23,30.19,1.6M986.91,535.29l178.59,9.48m-23.37,18.52-39-1.52M986.41,609.71l-1.06,61.17m2-113.58-.91,52.41m509.43,138,67.1-8.55m218.33-242.28L1757.62,493m-263.79-2,1.89,241.06m82.89-226.71,2.19,182.08M1449.33,698.4l-1.16-210m329.16-170.07L1648.27,266.7m169.27,402.41-.08-2.91m-158.09,10.91-.64-40.14m.69,43.88-.05-3.57M1347.68,325.57v2.52m406.49-.48.89,43m-43.54-.53-30.9-9.4m30.94,11.55-30.9-9.31m-83.85,114.41,1.73.26m-5.94-.89,4.21.63m-.06-4.73,1.73.25m-5.94-.92,4.21.67m-.06-4.75,1.73.28m-5.94-.95,4.21.67m-.06-4.74,1.73.29m-5.93-1,4.2.7m-4.27-5.45,4.19.71M1578,455.17l14.35,2.45m0-4.76,4.18.74M1578,450.33l14.36,2.53m-.06-4.76,4.18.78m-18.54-3.36,14.36,2.58m-.06-4.75,4.19.79m-18.55-3.45,14.36,2.66m-.06-4.73,4.19.8m-18.55-3.56,14.36,2.76m-.06-4.76,4.19.82m-18.55-3.63,14.36,2.81m-.06-4.75,4.19.85m-18.55-3.74,14.36,2.89m-.08-4.73,4.21.86m-18.55-3.83,14.34,3m-.06-4.74,4.21.88m-18.53-3.92,14.32,3m-.06-4.74,4.21.91m-18.53-4,14.32,3.11m-.06-4.73,4.19.92m-18.51-4.1,14.32,3.18m4.13-3.78,1.73.39m-5.92-1.35,4.19,1m-.06-4.71,1.73.39m-5.92-1.37,4.19,1m-.06-4.71,1.73.41m-5.92-1.41,4.19,1m-.06-4.7,1.73.41m-5.91-1.43,4.18,1m0-4.71,1.72.42m-5.91-1.46,4.19,1m-.07-4.7,1.73.43m-5.91-1.49,4.18,1.06m0-4.7,1.72.44m-5.91-1.51,4.19,1.07m-275,305.93,0-16.86m0,18.17v-1.31m0,9.24V685.4m0,14V695m0,6.23v-1.88m480.38-32,.06,3m63.86-5.36,0,2M1769,529.86l3,141.59m-19.71-104.2,1.07.08m-13.13-.85,12.06.77m-431.53-248.9.06-77.13m-.06,79.25v-2.12m-73.55,192-12.56,5.22M1253,508l-5.43,2.24m85.36-183.16-12.09-2.95" transform="translate(-381.82 -71.17)" fill="none" stroke="#f3f7f9" stroke-miterlimit="10" stroke-width="2"/><path d="M1201.35,570.52V572m62.29-71.59v1.72m.09-25.1v2m88.08,10.4-4,1.41m49.35-17.44L1387,476.93m28.78-10.17-1.58.56m6-2.12-4.43,1.56m-54.07,14.62-4.77,1.74m24.5-8.94-19.73,7.2m0,3.75,19.73-7m-24.5,8.7,4.77-1.7m-4.77-6.43-4,1.51M1382.74,469l-1.34.5m-19.71,11.25,19.73-7.23m-24.5,9,4.77-1.76m-4.78-6.43-4,1.56m28.47-7,1.34-.5m-29.81,11.3,4-1.51m-5.14,1.95,1.15-.44m4-9.76-4,1.61m8.77.42,19.71-7.72m-28.48,2.92-1.13.47m5.13-2.11-4,1.64m8.75-3.63-4.75,2m0,3.94,4.77-1.92m-8.77-4.75-1.15.49m5.13-2.18-4,1.69m8.75-3.72-4.77,2m0,4,4.75-2m-4.77-6.46-4,1.75m8.75.31,19.7-8.42m-24.47,2-4,1.78m4,2.36,4.77-2.09m-4.77-2.27,4.76-2.13m0-4.4,19.68-9.11m-24.44,11.3,4.76-2.19m-8.75,4,4-1.85m-4-6.73-1.15.56m9.88-.43,19.68-9.33m-24.43,11.59,4.75-2.26m-8.73,4.15,4-1.89m-4-2.41,4-1.94m-100.27,63.09,1.27-.53m-4.92,2.12,3.65-1.59m-.09-3.21,1.27-.56m-4.81,2.15,3.54-1.59m-.07-3.21,1.25-.57m-4.71,2.15,3.46-1.58m-.08-3.2,1.26-.59M1253,494l3.36-1.57m-.07-3.21,1.25-.61m-4.54,2.18,3.29-1.57m-63.62,76.66-7.35,1.86m-33.69-11.37,8.87.4M1008.1,671.65l-.21,13.21m1.83-114-.91,56m189,25.3-6.66-1.14m390.26,85.71,171.11-21.82M1757.62,493l-1.68-.28m-177.38,8.72,0,4m238,124.94-2.2-93.12m2.28,96-.08-2.91m.85,35.7-.77-32.79m-158,3.71-.06-3.56m20.54-273.19-29.62-9m29.67,11.26-29.64-8.93m31,9.35-1.4-.42M1627,679.55l.06,3.7m-.66-45.53.6,41.66M1757.4,571l2.55,122.2M1315.79,322.89,1302,319.53M1263.65,497v1.77m.09-25.14,0,2m28.33-83.24-.18,78.24M1352.93,489l-1.14.41m29.63-10.47-19.73,7m-4.77-2.74-4,1.47m29.83-10.91-1.34.5m0,3.95,1.34-.49m-29.83,10.61,4-1.42m-5.13,1.83,1.14-.41m-1.15-7.61-4,1.51m5.16-1.94-1.15.43M1387,467.37l-4.21,1.59m-1.32,4.52,1.34-.5m-29.83,11,4-1.47m-5.14,1.89,1.15-.42m8.75-11.52-4.77,1.86m25.83-6,4.21-1.6m-25.27,1.22-4.77,1.92m24.48-5.69,1.34-.51m-1.36-8.34-19.71,8.14m0,4,19.71-7.94m0-8.91-19.7,8.38m0,4.07,19.71-8.17m-19.71-.38-4.77,2.09m24.47-6.36,1.34-.57m-21,.38-4.76,2.15m4.77,2.05,19.68-8.64m-24.45,2.17-4,1.84m8.75-4-4.76,2.2m24.44-11.29-19.68,9.09m0,4.27,19.69-8.88m-24.46,2.4-4,1.89m8.73-4.14-4.75,2.25m24.43-11.59-19.68,9.34m19.7-4.78,1.34-.62M1356.88,439l-4,1.94m28.41-9.2,1.34-.64M1356.88,439l4.75-2.31M1183.52,568.19l-28,7.07m29.82-7.52-1.81.45m-66.38-13.33,34.5,1.51m-57.53,5.06-41.84-1.62m-43.46,67.79-.71,44m485.71-183.37,0,2.78m-2.09-267.36,2.07,264.38M1491.59,204l.15,19.69M1448,457.61v-2.24m0,3.4v-1.16m.18,30.81-.17-29.65m210.67,174.64-1.8-113.85M1347.68,321.31v2.53M1626.35,634l.06,3.69m173.69-4.07.77,33.56m-43.53-99.35.06,3.12m-523.71-55L1222,520.83m95.61-197.5-1.82-.44m-52.13,170.79v1.82m.09-25.18v2m93.18,15.25-4,1.41m8.76-3.1-4.77,1.69m25.84-9.14-1.34.49m5.56-2-4.22,1.48m-31,6.59-4,1.46m5.16-1.87-1.15.41M1387,472.15l-4.2,1.53m0,4,4.2-1.48m27.18-19.07-8.81,3.33M1382.76,473l4.2-1.54m-5.57-6.71-19.71,7.69m25.27-5.7,10.15-3.85M1381.39,460l-19.71,7.91m21-4.28,4.2-1.65m-4.22-7.25-1.34.56m0,4.21,1.32-.53m0-9-1.34.58m0,4.28,1.34-.56m-1.35-8.45-19.7,8.63m21-4.84,4.2-1.79m-5.56-6.69-19.69,8.86m19.69-4.44,1.34-.59m0-9.15-1.34.62m0,4.48,1.34-.61m0-9.21-1.34.63m1.36,3.94,4.19-1.94m-25.23,2.87-4.75,2.32m25.77-7.9,4.21-2m-25.23,7.57,19.68-9.56m-198.4,222.54-19-3.25m592-153.64-19.39-3.13m-158.32-14.8.33,26.65m-.34-28.16v1.19M1814.41,537l-.08-2.87M1320.52,666v-1.83m304.15-148.22L1626.35,634M1800,630.67l.06,3M1222,520.83l-2.28.95m99.76-198-1.87-.45m3.18.77-1.31-.32m-55.8,166.57,0,1.86m.09-25.22v2m150.42-6.76-8.83,3.22M1387,476.16l10.17-3.62m0-9L1387,467.37m18.38-6.95-8.23,3.1M1387,471.44l10.15-3.74m-14.38-3.48-1.34.51m23.92-5,8.83-3.35m-17,6.46,8.21-3.11m-22.6-.28-1.32.55m5.54,2,10.15-4m-10.16-5-4.21,1.74m0,4.24,4.21-1.7m0-9-4.2,1.78m0,4.3,4.21-1.74m-4.24-7.28-1.32.57m5.54,2,10.14-4.33m-14.36-3-1.34.6m1.34,3.83,4.21-1.84m0-9.25-4.19,1.94m0,4.49,4.19-1.89m0-9.31-4.21,2m4.21,2.63L1397,429.1m-15.68-2-19.68,9.56m25.23-7.58,10.12-4.79m-15.67,2.8,1.33-.65M1100.86,554.13l6.28.28m-64.5,5-32.71-1.26M1184.72,650l-1.81-.32" transform="translate(-381.82 -71.17)" fill="none" stroke="#f3f7f9" stroke-miterlimit="10" stroke-width="2"/><path d="M1190.08,650.87l-5.36-.92m551.83-160.34L1715,486.13M1578.2,471.62l0,1.68M1448,452.08v-2.22m0,4.61,0-2.39m208.85,63.69,0-1.15m.07,4.66,0-3.51M1347.68,317.08v2.52M1320.61,539V522.16m477.22,13.21,2.2,95.3M1219.72,521.78l-3.34,1.38m47.39-59.5v2m133.34,2.8L1387,472.15m18.38-6.72-8.23,3m8.25,1.18,8.82-3.13m-17,6.05,8.23-2.92m0-4.93,8.81-3.24m-17,6.25,8.23-3m-18.41-2.1-4.2,1.63m4.19-6.42-4.21,1.68m22.59-4.66,8.82-3.45m-17,6.68,8.22-3.23m8.78-13-8.81,3.65m-18.35,11.87,10.15-4.08m17-16.54-8.81,3.75m-18.33,12.17,10.13-4.21m-10.16-4.92-4.21,1.85m22.57-5.27,8.81-3.75m-17,7.26,8.21-3.51m-18.38-1.34-4.19,1.89m4.21,2.59,10.13-4.45m17-17.34-8.79,4.07m-18.34,13,10.14-4.57m17-17.61-8.81,4.17m0,4.83,8.79-4.07m-17,7.87,8.22-3.8m-22.57,1.15-1.33.65m23.87-6.7,8.81-4.18m-17,8.07,8.2-3.89m-22.54,6,4.2-2.05m-326.6,128,40.62,1.78m614.13-68-1.3-.21m-135.52-16.25,0,1.95m46.41,40.4.06,3.63m-.11-7.31,0,3.68m-360.93-25v1.9m.1-28.58v2M1414.12,452l-8.82,3.44m8.81-8.55-8.83,3.54m-8.23-1.59L1386.92,453m18.35-7.59-8.22,3.4m8.23,1.07,8.83-3.55m-17,6.87,8.21-3.32m-8.24-6-10.14,4.33m18.35-7.83-8.21,3.5m8.23,1,8.81-3.65m-17,7.07,8.22-3.42m8.78-13.39-8.81,3.86m8.78-9-8.8,4m0,4.69,8.81-3.86m-17,7.46,8.22-3.6m-8.25-5.89-10.13,4.69m18.35-8.47-8.22,3.78m8.23,1,8.8-4m-17,7.66,8.21-3.69m-8.24-5.86-10.12,4.81m18.32-8.7-8.2,3.89m-10.14.05-4.2,2m4.2-2.06,10.12-4.92m316.73,66.45-31-5m-104.53-12.38v1.15m-130.24-23.09v-2.24m0,4.7,0-2.46M1347.68,312.84v2.51m-27.07,225.48V539m-.06,92.35v-1.82m0,34.46,0-32.64m477.23-99.18.06,2.95m-.13-5.91.07,3M1216,523.34l-7.18,3m55-69.32,0,2m133.3-.36-10.15,4m18.37-7.16-8.22,3.19m0-4.9-10.15,4.08m18.36-7.38-8.21,3.3m0-14.68-10.13,4.43m18.35-8L1397,439m0-4.9-10.14,4.57m18.35-8.26-8.21,3.69m17-22.93-8.8,4.28m0,0,8.8-4.28m-17,8.27,8.2-4m-359,136.25,3.22.15m-50.85-2.24,47.63,2.09m635.12-71.06-29.74-4.8m31.14,5-1.4-.23m-103.15-13.88,0,1.73m-257.61,161,.06-88.49m-56.81-87.39v2M1397,419.49l-10.12,4.92m18.32-8.92-8.2,4m181.15,45.33,0,2M1447.9,441.07v-2.24m0,4.78,0-2.54M1347.68,308.6v2.52M1202.5,528.94l-6.71,2.78m11.94-5-5.23,2.18m61.31-78.6v2m314.3,11.41v1.08M1263.83,447v2M1578.08,462l0,1.79m-130.24-28.2v-2.22m0,4.86,0-2.64M1347.68,304.35v2.53m-83.84,136.81v2M1578.07,460V462m-314.22-21.59,0,2m184-12.3v-2.23m0,4.93,0-2.7M1347.67,300.13v2.51M1263.86,437v2m0-5.3v2M1578,457.12l0,1.83m-2-168.76.31,26.16M1447.81,424.54V422.3m0,5,0-2.77M1347.67,295.89v2.51m-83.78,132v2M1578,455.17v1.95m-2.28-190.64.29,23.71m-2-164,1.68,140.26M1263.9,427.07v2m183.89-10v-2.23m0,5.09,0-2.86M1347.67,291.66v2.51m-83.75,129.59,0,2M1578,452.3l0,1.89m-314.06-33.75v2m314,27.92v2m-130.21-38.76V411.3m0,5.18,0-2.94M1347.67,287.43V290m-83.74,127.18v2m0-5.3v2m314,31.69,0,1.94M1447.72,408v-2.22m0,5.25,0-3m-100-124.83v2.51m230.22,159.81,0,2m-130.22-44.93v-2.22m0,5.32,0-3.1M1347.67,279v2.52m230.19,161.15,0,2m-.05-3.95,0,1.95m-130.2-45.58v-2.22m0,5.39,0-3.17m-100-122.31,0,2.51M1577.8,437.81l0,2.06m-130.19-48.3v-2.22m0,5.47,0-3.25m-100-121V273m230.12,162.83,0,1.95m-130.18-48.46,0-3.26m0,0v-2.22m-99.94-117.58v2.52M1577.74,433l0,2.11m-130.17-51.24,0-3.25m130.14,50.43,0,1.95m-130.17-52.38v-2.23m-99.91-116.3v2.49m99.91,113.81,0-3.25m130.14,53,0,2.17m-130.17-55.21v-2.23m-99.88-115v2.51m230,165.84,0,2m-130.15-55.27,0-3.25m0,0v-2.22m-99.85-113.8v2.52m230,167.2,0,2.23M1447.5,367.44l0-3.26m130.11,57.23,0,1.95m-130.14-59.18V362m-99.83-112.53v2.49m99.82,110,0-3.25m130.11,59.83,0,2.29m-130.14-62.12V356.5m-99.8-111.28v2.51M1577.55,416.6v1.95M1447.44,356.5l0-3.24m0,0V351m-99.77-110v2.51M1577.5,413.74l0,2.33m-130.12-65,0-3.24m130.1,64v1.95m-130.11-65.95v-2.22m0,0,0-3.24m130.08,66.6,0,2.39m-130.11-69v-2.21M1577.43,407v1.94m-130.09-68.81,0-3.25" transform="translate(-381.82 -71.17)" fill="none" stroke="#f3f7f9" stroke-miterlimit="10" stroke-width="2"/><path d="M1447.32,336.87v-2.21m130.06,69.47,0,2.44m-130.09-71.91,0-3.24m130.08,70.76v1.95m-130.09-72.71v-2.21m0,0,0-3.24m130.08,73.35,0,2.5M1447.26,326v-2.2m130,73.61,0,1.94m-130.08-75.55,0-3.24m0,0v-2.21m130,76.2,0,2.56m-130.08-78.76,0-3.24m130,77.51,0,1.93M1447.2,315.08v-2.21m0,0,0-3.24m130,80.1,0,2.6m-130.08-82.7v-2.21m130,80.37,0,1.94m-130-82.31,0-3.22m0,0V302m130,82.94,0,2.66M1447.13,302l0-3.24m130,84.24,0,1.94m-130.05-86.18v-2.19m0,0,0-3.24m130,86.81,0,2.71m-130.05-89.52v-2.19m130,87.06v1.94m-130-89,0-3.23m0,0v-2.21m130,89.65,0,2.76m-130-92.41,0-3.22m130,90.93v1.94m-130-92.87v-2.19m0,0,0-3.24m130,93.51,0,2.82M1447,277v-2.2m130,93.78v1.93m-130-95.71,0-3.22m130,94.14,0,2.86m-130-97v-2.19m130,94.39,0,1.94m-130-96.33,0-3.23m130,94.77,0,2.85m-130-97.62V264m129.93,95,0,1.93m-130-97,0-3.22m129.92,95.4,0,2.85M1446.9,260.79v-2.2m129.9,95.67,0,1.93m-129.93-97.6,0-3.21m129.89,96,0,2.85m-129.92-98.88v-2.19m129.87,96.28,0,1.94m-129.9-98.22,0-3.22m129.86,96.66,0,2.84M1446.84,250v-2.2m129.85,96.94,0,1.92m-129.87-98.86,0-3.21m129.83,97.3,0,2.85M1446.81,244.56v-2.19m129.82,97.56,0,1.93M1446.8,242.37l0-3.21m129.8,97.92,0,2.85M1446.78,239.16V237m129.79,98.19,0,1.92M1446.77,237l0-3.21m129.78,98.55,0,2.85m-129.81-101.4v-2.19m129.76,98.81,0,1.93M1446.74,231.57l0-3.21m129.75,99.19,0,2.83m-129.78-102v-2.18m129.73,99.43,0,1.94M1446.71,226.18l0-3.21m129.72,99.81,0,2.83M1446.69,223v-2.19m129.7,100.06,0,1.94m-.07-6.43,0,4.49m-129.7-100.06,0-3.21m0,0v-2.18m0,0,0-3.21m0,0V210m0,0,0-3.2m0,0v-2.18m0,0,0-3.2m0,0v-2.19m0,0,0-3.19m0,0v-2.18m0,0,0-3.19m0,0v-2.18m0,0,0-3.21m0,0v-2.17m0,0,0-3.19m0,0v-2.18m0,0,0-3.19m0,0v-2.18m0,0v-3.19m0,0,0-2.17m0,0v-3.19m0,0,0-2.18m0,0v-3.18m0,0,0-2.18m0,0v-3.17m0,0,0-2.18m0,0v-3.18m0,0,0-2.16m0,0v-3.2m0,0,0-2.16m0,0v-3.18m0,0,0-2.16m0,0,0-7.08M1042.4,728.62h5m179.66-36.5,193.06,61.75M1228,688.29l39.58-2.19m24.52-329.5-119.9,103.72M1228,687.9l39.58-2.18M1235,680.23l28.64-1.41M1202.5,528.94l.43-65.07m-37.43,80.44.7-81.42M1257.58,561l-38.95-1.71m83,2.88-.18,100.93m.19-111.15,0-8.5" transform="translate(-381.82 -71.17)" fill="none" stroke="#f3f7f9" stroke-miterlimit="10" stroke-width="2"/></svg>